<?xml version="1.0" encoding="UTF-8" standalone="no"?>
<!-- Created with Inkscape (http://www.inkscape.org/) by GhostOverFlow256-->

<svg
   width="323.1933mm"
   height="402.60721mm"
   viewBox="0 0 1221.518 1521.6651"
   version="1.1"
   id="svg5"
   xml:space="preserve"
   xmlns="http://www.w3.org/2000/svg"
   xmlns:svg="http://www.w3.org/2000/svg"><defs
     id="defs2" /><g
     id="layer1"
     transform="translate(1667.2629,270.53862)"><path
       style="fill:#000000"
       d="m -841.89032,1250.8768 c -8.43849,-0.6879 -13.80107,-3.0741 -16.40629,-7.3003 -2.22142,-3.6036 -3.53494,-8.1206 -2.73693,-9.4118 0.31246,-0.5055 3.65995,-0.5169 7.84415,-0.027 5.97553,0.7002 7.62191,1.2899 9.07946,3.2523 2.26099,3.0442 6.43156,3.9666 11.61893,2.5698 4.9943,-1.3448 6.10068,-3.2701 6.10068,-10.6163 0,-5.3662 -0.10846,-5.6257 -1.75,-4.1864 -5.36339,4.7026 -14.94867,6.2156 -21.53212,3.3988 -7.81851,-3.3454 -12.76821,-12.5928 -12.82759,-23.9655 -0.0478,-9.1485 1.25462,-14.1772 5.01689,-19.3709 6.47449,-8.9377 19.83267,-11.0451 28.06708,-4.4277 l 4.02574,3.2351 v -3.0471 -3.0471 h 6.5 6.5 v 29.0321 c 0,30.4729 -0.36588,33.3997 -4.78578,38.2837 -4.13031,4.5639 -12.99706,6.5831 -24.71422,5.628 z m 9.53273,-33.4607 c 7.81607,-4.0419 8.95303,-20.9515 1.8127,-26.9597 -5.94818,-5.0051 -14.39902,-2.4361 -16.89834,5.1369 -1.59021,4.8184 -0.6976,15.2646 1.60457,18.7782 2.98637,4.5578 8.25423,5.7475 13.48107,3.0446 z m 114.61161,30.4886 c -1.43162,-7.1581 -1.06082,-7.9717 3.63315,-7.9717 4.94441,0 8.08851,-1.8733 10.29031,-6.1311 1.5225,-2.9442 1.3483,-3.5585 -8.0057,-28.2308 -5.25917,-13.8716 -9.5621,-25.7846 -9.5621,-26.4734 0,-0.914 1.93721,-1.1729 7.17001,-0.9585 l 7.16999,0.2938 6.0151,18 6.015,18 5.8549,-18.25 5.8549,-18.25 h 7.567 c 6.8009,0 7.4977,0.1772 6.8823,1.75 -0.3766,0.9625 -5.3848,14.5418 -11.1293,30.1763 -5.7445,15.6345 -11.447,30.2196 -12.6722,32.4114 -3.6547,6.538 -6.6409,8.1107 -16.1559,8.509 l -8.28312,0.3467 z m -671.55072,-17.2781 c -6.6688,-2.3367 -7.4455,-4.6481 -8.0522,-23.9615 l -0.5414,-17.2321 -2.75,-0.3164 c -2.6238,-0.3019 -2.75,-0.5659 -2.75,-5.75 0,-5.3707 0.035,-5.4336 3,-5.4336 2.9227,0 3,-0.1255 3,-4.8707 v -4.8706 l 7,-4.0527 7,-4.0527 v 8.9233 8.9234 h 5 5 v 5.5 c 0,4.5364 -0.3066,5.5161 -1.75,5.5919 -0.9625,0.051 -3.1,0.163 -4.75,0.25 l -3,0.1581 v 14.2881 c 0,15.8116 0.3363,16.6659 6.1436,15.604 3.1277,-0.5718 3.1472,-0.5486 3.8526,4.5806 0.39,2.8354 0.4557,5.4087 0.1461,5.7183 -0.6952,0.6952 -8.4197,2.2266 -11.1423,2.209 -1.1,-0.01 -3.5329,-0.55 -5.4064,-1.2064 z m 166.9064,0.3702 c -7.7585,-1.5655 -12.5597,-5.6028 -16.145,-13.5763 -2.6547,-5.9037 -3.0869,-16.3847 -0.9772,-23.6956 1.7024,-5.8993 7.2655,-12.498 12.5664,-14.9058 7.8505,-3.5658 20.6809,-1.6963 26.8959,3.9189 3.5876,3.2413 6.772,11.1438 7.3713,18.2927 l 0.5787,6.9023 h -17.2759 -17.2759 l 0.5912,3.6434 c 1.106,6.8151 7.6534,10.8489 13.6068,8.383 1.5423,-0.6389 3.303,-2.2562 3.9125,-3.594 1.2041,-2.6427 2.8305,-2.8907 9.9408,-1.5159 5.4685,1.0574 5.6651,1.3034 3.8489,4.8157 -4.749,9.1835 -15.8099,13.7184 -27.6385,11.3316 z m 16,-33.6135 c 0,-2.4578 -2.84,-7.2943 -4.9446,-8.4207 -1.0582,-0.5663 -3.3331,-1.0296 -5.0554,-1.0296 -4.1845,0 -6.6677,1.4566 -8.4897,4.98 -2.9547,5.7139 -2.5231,6.02 8.4897,6.02 8.3646,0 10,-0.2534 10,-1.5497 z m 120.5,33.0974 c -10.3135,-3.7745 -13.8774,-16.6675 -6.7181,-24.3036 3.0439,-3.2466 7.9574,-5.2181 19.7181,-7.9118 7.3365,-1.6803 8.0252,-2.05 8.3043,-4.4566 0.4598,-3.9659 -2.1321,-5.8757 -7.9745,-5.8757 -4.3244,0 -5.4293,0.4302 -7.9013,3.0766 -2.8571,3.0584 -2.9064,3.0698 -8.4012,1.9291 -5.9514,-1.2355 -6.2696,-1.6842 -4.1166,-5.8054 4.0414,-7.7359 10.8226,-10.625 23.514,-10.0182 6.8976,0.3297 9.4726,0.9004 12.4963,2.7691 5.8196,3.5967 6.579,6.5274 6.579,25.391 0,11.805 0.4082,17.5634 1.4556,20.5321 1.6334,4.6293 1.9762,4.3994 -6.3063,4.2292 -6.2127,-0.1276 -7.1493,-0.5365 -7.1493,-3.1212 0,-1.7234 -0.4407,-1.629 -4.75,1.0175 -5.876,3.6087 -13.1504,4.5972 -18.75,2.5479 z m 14.9014,-9.9421 c 4.5104,-1.8845 6.5986,-5.1781 6.5986,-10.4076 v -4.3569 l -3.25,0.6616 c -7.75,1.5777 -10.9775,2.7248 -12.8028,4.55 -3.2173,3.2174 -2.1778,7.2051 2.5528,9.7926 2.6011,1.4227 2.952,1.4105 6.9014,-0.2397 z m 313.53737,10.0844 c -6.25694,-1.7627 -10.4277,-4.9644 -13.68493,-10.5053 -2.55737,-4.3504 -2.75386,-5.4749 -2.75386,-15.7594 0,-10.5787 0.13542,-11.2939 3.02366,-15.9691 4.38419,-7.0966 10.01788,-10.7231 17.49889,-11.2642 16.09856,-1.1645 26.97745,9.0563 26.97745,25.3455 v 5.4625 h -17 c -18.80195,0 -18.35741,-0.1845 -15.57878,6.4657 2.95665,7.0763 12.99523,8.5524 16.41005,2.413 1.61933,-2.9113 1.82879,-2.9808 7.0755,-2.3479 6.00231,0.7241 8.09323,1.3391 8.09323,2.3804 0,0.3835 -1.29896,2.7455 -2.88658,5.2489 -4.88956,7.71 -16.80672,11.4507 -27.17463,8.5299 z m 16.68728,-34.94 c -1.21423,-6.3248 -8.92092,-9.8033 -14.77647,-6.6695 -1.86182,0.9964 -4.8496,6.4718 -4.8496,8.8874 0,0.6415 3.83161,1.0321 10.125,1.0321 h 10.125 z m 94.31273,34.94 c -6.2569,-1.7627 -10.4277,-4.9644 -13.6849,-10.5053 -2.5576,-4.3507 -2.7539,-5.4746 -2.7539,-15.7631 0,-10.5837 0.135,-11.2969 3.0237,-15.9691 4.3859,-7.0941 10.0198,-10.7195 17.4988,-11.2605 16.0986,-1.1645 26.97754,9.0563 26.97754,25.3455 v 5.4625 h -17.00004 c -18.8019,0 -18.3574,-0.1845 -15.5788,6.4657 2.9567,7.0763 12.9952,8.5524 16.4101,2.413 1.6193,-2.9113 1.8288,-2.9808 7.0755,-2.3479 6.0023,0.7241 8.0932,1.3391 8.0932,2.3804 0,0.3835 -1.299,2.7455 -2.8866,5.2489 -4.8895,7.71 -16.8067,11.4507 -27.1746,8.5299 z m 16.6873,-34.94 c -1.2143,-6.3248 -8.9209,-9.8033 -14.7765,-6.6695 -1.8618,0.9964 -4.8496,6.4718 -4.8496,8.8874 0,0.6415 3.8316,1.0321 10.125,1.0321 h 10.125 z m -861.21508,34.4487 -3.0889,-0.3014 -7.7727,-24.6577 c -4.275,-13.5618 -7.9956,-25.2387 -8.268,-25.9487 -0.3758,-0.9792 1.2038,-1.2909 6.5406,-1.2909 h 7.0361 l 1.5034,5.25 c 0.827,2.8875 2.9676,10.3666 4.7571,16.6203 l 3.2535,11.3703 2.2367,-8.3703 c 1.2302,-4.6037 3.2208,-12.0828 4.4235,-16.6203 l 2.1868,-8.25 h 6.773 6.773 l 3.7521,15.25 c 2.0637,8.3875 4.05,15.5859 4.4139,15.9964 0.364,0.4106 2.7105,-6.3394 5.2144,-15 l 4.5528,-15.7464 7.238,-0.2956 c 3.9809,-0.1625 7.0326,0.062 6.7814,0.5 -0.2511,0.4376 -3.9383,11.8206 -8.1939,25.2956 -4.2555,13.475 -8.1069,24.8952 -8.5587,25.3782 -0.7655,0.8183 -2.8928,0.964 -10.5017,0.7194 l -3.0365,-0.098 -3.8574,-14.75 c -2.1216,-8.1125 -4.1483,-15.0832 -4.5039,-15.4904 -0.3555,-0.4072 -2.3857,6.0219 -4.5114,14.287 -2.1258,8.2651 -4.2795,15.2836 -4.7862,15.5967 -1.1218,0.6934 -6.1686,0.964 -10.357,0.5554 z m 67.839,-0.012 -3.25,-0.3133 v -25.9367 -25.9366 h 7 7 v 26 c 0,14.3 -0.3375,26.0346 -0.75,26.077 -3.2051,0.3289 -7.2645,0.3734 -10,0.1096 z m 60.4874,0 -2.7625,-0.3177 0.2625,-35.6823 0.2626,-35.6824 6.75,-0.2957 6.75,-0.2957 v 13.0251 13.0251 l 4.5157,-3.183 c 9.0497,-6.3788 21.9018,-4.3616 26.9167,4.2248 1.841,3.152 2.0812,5.5592 2.4191,24.2494 0.3558,19.6804 0.2791,20.7555 -1.4882,20.8567 -3.5533,0.2035 -11.6677,-0.078 -12.0061,-0.4161 -0.187,-0.1871 -0.3726,-7.3111 -0.4124,-15.8314 -0.1059,-22.6584 -1.2314,-25.8635 -9.0802,-25.8635 -8.5691,0 -10.8646,6.0504 -10.8646,28.6365 0,9.9831 -0.3162,13.383 -1.25,13.4405 -5.9261,0.3649 -7.6023,0.3825 -10.0126,0.1054 z m 89.0126,0 c -3.0727,-0.3536 -2.7967,1.4047 -2.8546,-18.1836 -0.017,-5.775 -5e-4,-15.7875 0.037,-22.25 l 0.068,-11.7531 h 6.5 6.5 v 2.9 2.9 l 3.4,-3.4 c 3.7147,-3.7147 8.2879,-4.4505 14.406,-2.3178 l 3.1044,1.0822 -2.0908,5.6678 c -1.15,3.1173 -2.2318,5.8323 -2.4042,6.0334 -0.1723,0.2011 -1.6863,-0.113 -3.3644,-0.698 -4.7334,-1.65 -8.5605,0.1492 -10.4703,4.9223 -1.2027,3.0059 -1.5807,7.6522 -1.5807,19.4303 0,11.6761 -0.3072,15.4987 -1.25,15.5568 -5.9249,0.3648 -7.6008,0.3826 -10,0.1066 z m 94,0 -2.75,-0.3164 v -25.9336 -25.9336 h 6.5 6.5 v 2.9794 2.9794 l 4.4249,-3.119 c 7.748,-5.4613 18.8069,-4.9183 23.9342,1.1752 l 2.4246,2.8814 1.8582,-2.0546 c 7.3877,-8.169 22.3,-7.6083 28.0882,1.0561 2.1829,3.2677 2.2699,4.2161 2.2699,24.75 0,13.5075 -0.3674,21.3855 -1,21.443 -0.55,0.05 -2.35,0.091 -4,0.091 -1.65,0 -4.35,-0.041 -6,-0.091 l -3,-0.091 v -18.7775 c 0,-21.3886 -0.5142,-23.2255 -6.501,-23.2255 -8.1617,0 -10.499,6.3751 -10.499,28.6365 0,8.1817 -0.3878,13.3988 -1,13.4544 -0.55,0.05 -2.35,0.091 -4,0.091 -1.65,0 -4.35,-0.041 -6,-0.091 l -3,-0.091 v -18.7775 c 0,-21.4809 -0.4966,-23.2224 -6.6225,-23.2224 -8.8905,0 -10.3775,3.6494 -10.3775,25.4679 0,12.518 -0.3035,16.5508 -1.25,16.6091 -5.9249,0.3648 -7.6007,0.3826 -10,0.1066 z m 146.5,0.01 -4.25,-0.3075 v -25.9425 -25.9425 h 7 7 v 25.8865 25.8865 l -2.75,0.3635 c -1.5125,0.1999 -4.6625,0.2251 -7,0.056 z m 27.5,0 -3.75,-0.3103 v -25.9397 -25.9396 h 6.5 6.49998 v 3.6962 3.6961 l 3.25,-3.1348 c 4.03077,-3.8879 7.54733,-5.2575 13.49938,-5.2575 6.92203,0 13.05351,3.3547 15.34207,8.3941 1.62015,3.5676 1.86751,6.7609 1.88659,24.3559 l 0.022,20.2429 -2.5,0.091 c -1.375,0.05 -3.85,0.091 -5.5,0.091 -1.65,0 -3.64773,-0.041 -4.43939,-0.091 -1.18682,-0.075 -1.49389,-3.4069 -1.75,-18.9886 -0.27814,-16.9223 -0.50974,-19.1174 -2.2156,-21 -2.91126,-3.2128 -8.73347,-2.8434 -12.82923,0.8139 l -3.26578,2.9162 -0.32953,17.9837 -0.32953,17.9837 -3.17047,0.3501 c -1.74379,0.1925 -4.85799,0.2104 -6.92049,0.04 z m 59.99998,-0.01 -2.75,-0.3164 v -25.9336 -25.9336 h 7 7 v 26 c 0,20.0923 -0.28402,26.0175 -1.25,26.077 -5.92491,0.3648 -7.60073,0.3826 -10,0.1066 z m 28,0 c -2.66207,-0.3063 -2.75185,-0.5142 -2.80794,-6.5 -0.0843,-8.9933 -0.0924,-39.7145 -0.0113,-42.9336 0.0683,-2.7108 0.16178,-2.75 6.56924,-2.75 h 6.5 v 2.9794 2.9794 l 4.58158,-3.2294 c 4.15716,-2.9302 5.26198,-3.2294 11.92666,-3.2294 7.94461,0 10.75437,1.2952 14.92997,6.8823 1.90552,2.5497 2.08613,4.383 2.38293,24.1882 0.25815,17.2262 0.062,21.4442 -1,21.5045 -0.72663,0.041 -3.90883,0.1538 -7.07157,0.25 l -5.75043,0.175 4.3e-4,-17.1008 c 4.5e-4,-17.7257 -0.82206,-22.6986 -4.03901,-24.4203 -4.81064,-2.5746 -12.10659,0.1326 -13.85214,5.1399 -0.63639,1.8256 -1.10842,10.1428 -1.10842,19.5304 0,12.3729 -0.3041,16.3695 -1.25,16.4278 -5.92491,0.3648 -7.60073,0.3826 -10,0.1066 z m -505.54598,-59.0004 -3.296,-0.3168 0.296,-6.1832 0.296,-6.1832 6.75,-0.2957 6.75,-0.2957 v 6.5457 c 0,3.6001 -0.3375,6.5803 -0.75,6.6227 -3.2157,0.33 -7.2717,0.3729 -10.046,0.1062 z m 389.046,0 -3.25,-0.3133 v -6.4367 -6.4366 h 7 7 v 6.5 c 0,3.575 -0.3375,6.5346 -0.75,6.577 -3.2051,0.3289 -7.2645,0.3734 -10,0.1096 z m 88.49998,0 c -2.68225,-0.3086 -2.75,-0.4749 -2.75,-6.75 v -6.4336 h 7 7 v 6.5 c 0,4.4923 -0.3861,6.5238 -1.25,6.577 -5.92491,0.3648 -7.60073,0.3826 -10,0.1066 z m -544.41798,-52.0838 c -5.3086,-1.3634 -12.2425,-6.0053 -14.7961,-9.9051 -7.0573,-10.7777 -5.6096,-27.8483 3.1004,-36.5583 6.3896,-6.3896 16.5857,-8.9821 26.2282,-6.6689 22.86,5.484 27.0216,38.6009 6.3204,50.2962 -5.6565,3.1958 -14.6763,4.4225 -20.8529,2.8361 z m 15.4327,-14.523 3.7353,-3.4231 v -8.6537 -8.6537 l -3.7353,-3.4231 c -3.0397,-2.7857 -4.5347,-3.4232 -8.0275,-3.4232 -2.3607,0 -5.341,0.7346 -6.6229,1.6325 -3.1147,2.1816 -6.0704,8.9338 -6.0704,13.8675 0,4.9337 2.9557,11.6859 6.0704,13.8675 1.2819,0.8979 4.2622,1.6325 6.6229,1.6325 3.4928,0 4.9878,-0.6375 8.0275,-3.4232 z m 134.2353,14.5452 c -13.1943,-4.344 -18.9383,-12.3365 -18.9781,-26.4068 -0.034,-12.0938 4.0608,-19.6313 13.2901,-24.4631 6.9825,-3.6556 18.9565,-3.9044 25.3224,-0.5261 5.4453,2.8897 10.2366,7.7786 12.4945,12.7491 2.1384,4.7073 2.4909,15.7213 0.6951,21.7154 -1.5067,5.0287 -7.898,12.2932 -13.1958,14.9984 -4.4731,2.2842 -15.318,3.3522 -19.6282,1.9331 z m 14.4863,-13.2926 c 3.5344,-2.7801 5.5137,-7.5661 5.5137,-13.3321 0,-9.3738 -4.9405,-15.5 -12.5,-15.5 -7.5595,0 -12.5,6.1262 -12.5,15.5 0,9.3738 4.9405,15.5 12.5,15.5 2.8253,0 5.1456,-0.72 6.9863,-2.1679 z m 37.9444,12.5081 c -5.4871,-2.7386 -5.9003,-4.262 -6.2633,-23.0902 l -0.3326,-17.25 h -2.9174 c -3.0381,0 -3.1396,-0.2587 -3.1396,-8 0,-3.7281 0.219,-4 3.2222,-4 2.9155,0 3,-0.1348 3,-4.787 v -4.787 l 6.4557,-3.713 c 3.5506,-2.0422 6.7006,-3.713 7,-3.713 0.2994,0 0.5443,3.8003 0.5443,8.4452 v 8.4452 l 4.75,0.3048 4.75,0.3048 v 5.5 5.5 l -4.75,0.3048 -4.75,0.3048 v 13.8227 c 0,15.6587 0.4599,16.7668 6.489,15.6357 l 3.511,-0.6586 v 3.9635 c 0,2.1799 0.2612,4.6442 0.5804,5.4761 1.266,3.2991 -12.5027,4.8096 -18.1497,1.9912 z m 95.5387,0.1841 c -5.953,-1.9143 -12.2543,-7.4156 -15.0069,-13.1017 -3.1926,-6.5951 -3.1981,-17.9883 -0.012,-25.2161 7.309,-16.5813 31.1123,-20.4193 43.6877,-7.0441 1.7259,1.8357 3.9313,4.909 4.9008,6.8296 2.2273,4.412 3.0332,15.2169 1.5453,20.716 -1.5297,5.6533 -6.628,12.1153 -12.3496,15.6527 -5.7275,3.541 -15.5722,4.4767 -22.7652,2.1636 z m 16.7778,-12.9651 c 1.5954,-1.3424 3.4299,-4.2071 4.0768,-6.366 3.5325,-11.7906 -1.8182,-22.1932 -11.4154,-22.1932 -3.6589,0 -5.0937,0.601 -8.1733,3.4232 l -3.7353,3.4231 v 8.6537 8.6537 l 3.7353,3.4231 c 4.8004,4.3993 10.9857,4.791 15.5119,0.9824 z m 44.2222,12.9651 c -6.0039,-1.9306 -12.2604,-7.4282 -15.0782,-13.2491 -1.763,-3.6419 -2.2827,-6.4383 -2.2762,-12.2473 0.015,-13.6583 6.6191,-23.2958 18.2863,-26.6876 13.2991,-3.8661 26.6037,1.6989 32.6376,13.6517 2.2272,4.412 3.0331,15.2169 1.5452,20.716 -1.5296,5.6533 -6.628,12.1153 -12.3496,15.6527 -5.7275,3.541 -15.5722,4.4767 -22.7651,2.1636 z m 16.7778,-12.9651 c 1.5954,-1.3424 3.4299,-4.2071 4.0768,-6.366 3.5325,-11.7906 -1.8182,-22.1932 -11.4154,-22.1932 -3.6589,0 -5.0937,0.601 -8.1733,3.4232 l -3.7353,3.4231 v 8.6537 8.6537 l 3.7353,3.4231 c 4.8004,4.3993 10.9857,4.791 15.5119,0.9824 z m 209.46535,12.997 c -5.28058,-2.3952 -6.21257,-6.0647 -6.21257,-24.4607 v -15.9688 l -3.25,-0.3133 c -3.23474,-0.3119 -3.25,-0.3392 -3.25,-5.8134 0,-5.4742 0.0153,-5.5015 3.25,-5.8134 3.17692,-0.3063 3.25,-0.4224 3.25,-5.1639 v -4.8506 l 6.41248,-3.586 c 3.52687,-1.9724 6.67687,-3.5861 7,-3.5861 0.32314,0 0.58752,3.825 0.58752,8.5 v 8.5 h 4.5 4.5 v 6 6 h -4.5 -4.5 v 14.4326 c 0,13.6078 0.11558,14.4693 2.02247,15.0745 1.11236,0.3531 3.36236,0.3477 5,-0.012 l 2.97753,-0.654 v 5.5204 c 0,3.0363 -0.49697,5.8276 -1.10439,6.203 -2.40305,1.4852 -13.40262,1.4797 -16.68304,-0.01 z m 41.78743,0.5685 c -13.19432,-4.344 -18.93833,-12.3365 -18.97804,-26.4068 -0.0341,-12.0938 4.06077,-19.6313 13.29005,-24.4631 6.98247,-3.6556 18.95654,-3.9044 25.32244,-0.5261 5.44524,2.8897 10.23653,7.7786 12.49447,12.7491 2.13839,4.7073 2.49093,15.7213 0.69506,21.7154 -1.50666,5.0287 -7.89796,12.2932 -13.19577,14.9984 -4.47306,2.2842 -15.31799,3.3522 -19.62821,1.9331 z m 14.48632,-13.2926 c 3.53436,-2.7801 5.51368,-7.5661 5.51368,-13.3321 0,-9.3738 -4.94051,-15.5 -12.5,-15.5 -7.55949,0 -12.5,6.1262 -12.5,15.5 0,9.3738 4.94051,15.5 12.5,15.5 2.8253,0 5.14563,-0.72 6.98632,-2.1679 z m 79.51368,12.5736 c -1.925,-0.8338 -4.7375,-2.7004 -6.25,-4.148 l -2.75,-2.6319 v 3.6871 3.6871 h -6.5 -6.5 v -35.9167 c 0,-22.6171 0.36369,-36.0401 0.98218,-36.25 0.5402,-0.1833 3.6902,-0.1808 7,0.01 l 6.01782,0.3388 v 12.5855 12.5855 l 2.26365,-2.1266 c 9.76079,-9.1697 25.27962,-5.6403 32.00059,7.278 2.85028,5.4785 3.54146,18.2296 1.38719,25.5914 -3.85054,13.1584 -16.48016,20.1531 -27.65143,15.3143 z m 10.53327,-12.437 c 3.3055,-3.1053 4.81616,-9.65 3.95002,-17.1127 -0.61253,-5.2775 -1.26528,-6.838 -4.0075,-9.5802 -3.67626,-3.6763 -7.67069,-4.2606 -12.4015,-1.8142 -8.18305,4.2316 -7.95983,24.5018 0.32698,29.6929 3.77988,2.3678 8.88,1.8693 12.132,-1.1858 z m 42.46026,13.097 c -12.00584,-3.6521 -17.79624,-13.8064 -16.77642,-29.4202 0.5532,-8.4695 2.96813,-13.7732 8.57977,-18.843 5.08566,-4.5946 10.02299,-6.1873 17.17132,-5.5391 13.3172,1.2076 20.8505,9.3944 22.5319,24.4866 0.6767,6.0741 0.6302,6.2525 -1.6519,6.3396 -1.2915,0.049 -9.2107,0.089 -17.5982,0.088 -8.3875,-9e-4 -15.24749,0.2963 -15.24442,0.6604 0.003,0.3641 0.48068,2.3729 1.06136,4.464 1.17844,4.2437 5.67648,7.688 10.04816,7.6943 3.068,0 7.8849,-3.4671 7.8849,-5.6824 0,-1.2679 0.8418,-1.4195 4.75,-0.8557 10.2578,1.48 10.6003,1.8152 7.3314,7.176 -4.9962,8.1935 -17.9063,12.5285 -28.08787,9.4315 z m 17.24837,-31.641 c 1.1408,-1.1408 -1.2622,-6.9733 -3.78,-9.1747 -5.2287,-4.5716 -13.39013,-1.6945 -15.38813,5.4247 -0.49004,1.7461 -0.63211,3.4336 -0.31571,3.75 0.3164,0.3164 4.70027,0.5753 9.74194,0.5753 5.0417,0 9.4255,-0.2589 9.7419,-0.5753 z m 30.0288,30.6115 c -5.5138,-2.503 -8.2632,-7.0069 -8.2632,-13.5362 0,-6.053 2.5541,-10.7041 7.1983,-13.1081 1.8118,-0.9379 8.0192,-2.8722 13.7942,-4.2986 9.0769,-2.2418 10.5422,-2.8899 10.8115,-4.7818 0.5097,-3.581 -3.1193,-6.3115 -8.3884,-6.3115 -3.7764,0 -5.1145,0.5375 -7.6501,3.0732 -2.8171,2.8171 -3.4605,3.0199 -7.7209,2.434 -7.5001,-1.0316 -7.8817,-1.6342 -4.4917,-7.0928 4.4247,-7.1246 8.6289,-8.9144 20.9396,-8.9144 11.0121,0 14.8316,1.3714 18.8556,6.7699 1.8944,2.5415 2.0771,4.2735 2.2155,21 0.091,10.9618 0.6049,19.3525 1.2898,21.0452 0.6265,1.5483 1.1391,3.2358 1.1391,3.75 0,0.5142 -2.9361,0.9349 -6.5248,0.9349 -6.0396,0 -6.5954,-0.1859 -7.4752,-2.5 -1.1124,-2.926 -1.7231,-3.0606 -4.1051,-0.9049 -4.8372,4.3777 -14.8646,5.5096 -21.6242,2.4411 z m 18.5042,-10.0404 c 1.8012,-1.0982 3.7137,-3.1508 4.25,-4.5614 1.0721,-2.8197 1.3311,-9.4344 0.3694,-9.4344 -2.0934,0 -13.2791,3.3951 -15.1443,4.5967 -3.1993,2.061 -3.0096,6.6606 0.3849,9.3307 3.3013,2.5968 5.9636,2.6148 10.14,0.068 z m -927.53748,-24.9601 0.2626,-36.2056 18.9077,0.125 c 21.7143,0.1435 25.7758,1.1849 32.1539,8.2448 6.6668,7.3793 7.8555,11.4876 7.8995,27.3001 0.044,15.8313 -1.0892,19.7619 -7.8568,27.2529 -6.5309,7.2289 -11.2952,8.5404 -32.8669,9.0473 l -18.7626,0.441 z m 37.8647,20.6912 c 5.1066,-3.4163 6.9921,-9.7389 6.6283,-22.2269 -0.3252,-11.1623 -2.1527,-16.3522 -7.0079,-19.9012 -2.2342,-1.6332 -4.7279,-2.1087 -12.75,-2.4309 l -9.9725,-0.4005 v 23.6163 23.6163 h 9.8521 c 8.5835,0 10.2896,-0.2927 13.25,-2.2731 z m 122.8979,-11.2269 v -26.5 h 6.5 6.5 v 3.6036 3.6036 l 3.4142,-2.9977 c 4.5974,-4.0366 9.7123,-5.5915 15.9593,-4.8517 5.429,0.643 8.733,2.5667 12.0647,7.0244 1.911,2.557 2.084,4.362 2.3659,24.6882 l 0.3041,21.9296 h -6.9947 -6.9947 l -0.3094,-19.5903 c -0.3034,-19.2065 -0.3557,-19.6277 -2.6702,-21.5 -4.579,-3.7041 -11.4552,-1.7426 -14.3877,4.1042 -1.456,2.9031 -1.7487,6.2874 -1.75,20.2361 v 16.75 h -7 -7 z m 183,-9.5 v -36 h 7 7 v 36 36 h -7 -7 z m 149.8889,15.0457 c -0.061,-11.5751 -0.1111,-21.9457 -0.1111,-23.0457 0,-1.1 0.05,-7.8027 0.1111,-14.895 l 0.1111,-12.8949 3.75,-0.3551 c 2.0625,-0.1952 5.2024,-0.2147 6.9777,-0.043 l 3.2276,0.3117 0.2724,18.1338 0.2723,18.1339 7.5,-8.693 7.5,-8.693 h 8.25 c 4.5375,0 8.25,0.369 8.25,0.8231 0,0.4541 -1.1706,1.9166 -2.6013,3.25 -1.4307,1.3334 -5.2993,5.4587 -8.5969,9.1674 l -5.9955,6.743 8.5381,14.757 c 4.696,8.1163 8.8457,15.5652 9.2216,16.5532 0.6251,1.6429 0.055,1.771 -6.67,1.5 l -7.3535,-0.2963 -6.4128,-11.3015 -6.4128,-11.3015 -2.8217,2.7034 c -2.6082,2.4988 -2.8435,3.3543 -3.1085,11.3015 l -0.2867,8.5953 -6.75,0.2957 -6.75,0.2957 z m 83.1111,-15.0457 v -36 h 6.99998 7 v 36 36 h -7 -6.99998 z m 27.92765,34.2957 c -0.078,-1.9361 -0.0638,-32.1492 0.0207,-44.0934 l 0.0516,-7.2977 6.25,0.2977 6.25,0.2977 0.5,3.3648 0.5,3.3649 2,-2.2561 c 2.82266,-3.1841 9.28963,-5.9258 14.03811,-5.9516 5.5263,-0.03 12.44661,3.6656 14.93901,7.978 1.82434,3.1565 2.0544,5.5856 2.34402,24.75 l 0.32114,21.25 h -7.07114 -7.07114 l -0.006,-16.75 c -0.006,-17.7951 -0.92035,-23.6048 -3.97243,-25.2382 -3.51624,-1.8819 -7.83382,-1.1516 -11.25621,1.9038 l -3.26578,2.9155 -0.5,18.3345 -0.5,18.3344 -6.75,0.2957 c -5.9157,0.2591 -6.75894,0.074 -6.82233,-1.5 z m 354.07233,-24.7957 v -26.5 h 6.50004 6.5 v 2.9587 2.9587 l 4.8886,-3.0389 c 2.6887,-1.6714 6.7423,-3.2876 9.0081,-3.5915 5.0567,-0.6782 12.2923,1.8665 14.9637,5.2627 1.8577,2.3617 1.9046,2.3674 3.6429,0.4466 2.7396,-3.0272 9.7216,-5.9963 14.1005,-5.9963 5.5528,0 12.339,3.7183 14.5722,7.9844 1.5993,3.0551 1.824,6.1101 1.824,24.7957 v 21.3113 l -6.75,-0.2957 -6.75,-0.2957 -0.5,-19.8327 c -0.4577,-18.1545 -0.6643,-19.9527 -2.4411,-21.25 -4.1155,-3.0049 -9.5029,-1.3062 -12.2495,3.8623 -1.3679,2.5742 -1.7942,6.6906 -2.1247,20.5135 l -0.4134,17.2931 -6.6357,-0.2931 -6.6356,-0.2931 -0.5,-19.8327 c -0.4577,-18.1545 -0.6643,-19.9527 -2.4411,-21.25 -3.116,-2.2751 -7.2022,-1.7076 -10.7931,1.4989 l -3.2658,2.9161 -0.3294,18.5839 -0.3294,18.5838 h -6.9206 -6.92064 z m -820.82688,-83.5746 c -9.0095,-1.1691 -12.8838,-2.6692 -17.3762,-6.7279 -5.0191,-4.53445 -7.7969,-9.98315 -7.7969,-15.29365 v -4.1757 l 4.75,0.6516 c 2.6125,0.3584 7.835,0.9386 11.6055,1.2893 6.3355,0.5893 6.9282,0.8465 7.8149,3.3899 1.2483,3.581 5.8262,5.4704 12.8978,5.3232 6.7792,-0.141 12.2231,-2.5579 13.9212,-6.1804 0.6966,-1.486 1.4564,-6.9262 1.6884,-12.0893 l 0.4219,-9.3875 -5.1638,4.6427 c -14.3196,12.8745 -35.0546,8.9368 -45.3377,-8.6099 -6.7458,-11.51084 -7.3333,-31.96664 -1.2948,-45.07864 8.7233,-18.9415 32.6487,-24.5186 47.5827,-11.0917 l 5.1139,4.5978 v -5.0926 -5.0927 h 9.5483 9.5483 l -0.2983,44.25 -0.2983,44.25004 -2.3896,4.8127 c -4.6546,9.37455 -11.9689,14.07355 -24.4251,15.69205 -8.2694,1.0744 -11.7243,1.061 -20.5122,-0.079 z m 15.0275,-48.96445 c 9.7678,-2.7128 14.8451,-16.27144 11.6691,-31.16184 -2.1885,-10.2604 -11.7836,-16.6396 -20.9137,-13.9042 -8.0495,2.4117 -12.4079,10.3519 -12.4079,22.605 0,11.3788 3.7308,18.97274 10.8416,22.06794 3.7904,1.6498 5.9972,1.7301 10.8109,0.3931 z m 421.2994,49.20265 c -3.8384,-0.6368 -4.0273,-0.8454 -4.6759,-5.1636 -0.3717,-2.475 -0.7092,-6.10945 -0.75,-8.07655 l -0.074,-3.5766 6.9195,0.077 c 8.35022,0.092 11.31916,-1.6825 14.93147,-8.9261 l 2.40853,-4.8296 -12.82206,-34.08394 c -7.05214,-18.7466 -13.46384,-35.6593 -14.24814,-37.5843 l -1.4261,-3.5 -2.7475,7.7825 c -1.5111,4.2804 -2.991,8.0261 -3.2886,8.3238 -0.2977,0.2976 -1.9107,-0.167 -3.5845,-1.0326 -6.3674,-3.2926 -13.6901,-1.1543 -16.5282,4.8264 -2.4813,5.229 -3.5492,16.0612 -3.5835,36.34994 l -0.031,18.25 h -10.5 -10.5 v -38.91794 -38.918 l 6.75,-0.332 c 3.7125,-0.1827 8.2125,-0.1911 10,-0.019 3.1308,0.3018 3.25,0.4759 3.25,4.7466 v 4.4334 l 4.75,-4.9123 c 5.5926,-5.7838 9.9163,-7.0487 17.7196,-5.184 5.9782,1.4286 6.4464,1.4689 13.5304,1.1669 3.025,-0.129 7.8281,-0.1961 10.67363,-0.1493 l 5.17367,0.085 8.81219,26.5 c 4.84671,14.575 9.07114,26.50004 9.38764,26.50004 0.31649,0 4.32971,-11.58754 8.91827,-25.75004 4.58855,-14.1625 8.63558,-26.0896 8.99339,-26.5047 0.75027,-0.8704 19.92573,-1.1941 20.76918,-0.3506 0.67529,0.6753 -31.00095,88.16644 -34.27493,94.66884 -2.90761,5.77475 -9.189,11.49205 -14.1323,12.86325 -5.17841,1.4364 -14.94497,2.0458 -19.82074,1.2369 z m -299.6623,-30.12045 c -12.4969,-2.2845 -23.4172,-10.5145 -28.4036,-21.4062 -2.6331,-5.75154 -4.1946,-14.05484 -2.802,-14.90014 0.4774,-0.2897 5.2338,-0.8509 10.5699,-1.2471 l 9.702,-0.7204 0.6899,2.8653 c 2.9745,12.35394 11.5711,18.10724 25.5752,17.11604 7.7057,-0.5455 12.2778,-2.8062 15.5775,-7.7026 5.196,-7.71044 1.4229,-14.78614 -9.5835,-17.97204 -3.6647,-1.0607 -11.5478,-3.3267 -17.5179,-5.0355 -12.7281,-3.643 -17.2477,-5.7862 -22.8472,-10.8339 -11.9886,-10.8073 -11.906,-30.6799 0.1727,-41.5694 7.9698,-7.1851 19.6695,-10.3176 34.9334,-9.3532 19.405,1.2262 32.0665,10.5372 35.3014,25.96 0.6565,3.1296 0.9453,5.9384 0.6418,6.2419 -0.3034,0.3034 -5.2974,0.814 -11.0977,1.1345 l -10.5461,0.5827 -0.6352,-2.892 c -1.8123,-8.2517 -7.4979,-12.3579 -17.4841,-12.6272 -11.4449,-0.3086 -19.0842,3.4824 -19.0842,9.4706 0,6.8323 3.4785,9.0189 22.581,14.1945 20.3765,5.5208 24.1214,7.1933 30.5894,13.6614 4.5318,4.5317 6.0287,6.8665 7.378,11.5079 5.2338,18.00384 -4.0789,36.09444 -21.3951,41.56164 -7.4477,2.3515 -24.5184,3.3885 -32.3156,1.9632 z m 96.4887,-0.021 c -17.3591,-3.7091 -27.3264,-18.2734 -27.3264,-39.92984 0,-15.6587 4.4296,-26.511 13.715,-33.6009 6.7067,-5.121 13.1988,-6.9895 24.285,-6.9895 12.7109,0 18.7335,2.1011 25.5439,8.9114 4.616,4.616 9.6035,13.7725 8.243,15.133 -0.276,0.2761 -4.8292,1.3212 -10.1181,2.3225 l -9.6162,1.8206 -1.0553,-3.1977 c -1.8296,-5.5437 -5.25,-7.8511 -12.2796,-8.2841 -5.2547,-0.3236 -6.7598,-0.019 -9.7177,1.9679 -1.925,1.2929 -4.3671,4.1213 -5.4268,6.2853 -2.4558,5.0146 -3.2144,17.1334 -1.5688,25.0601 2.3973,11.54824 12.158,17.15484 22.1615,12.72984 4.2595,-1.8842 5.8709,-4.1492 8.2599,-11.61014 0.4743,-1.4814 1.2538,-1.743 3.8347,-1.2873 1.7817,0.3146 6.3224,1.0929 10.0904,1.7296 l 6.851,1.1575 -0.6212,3.10574 c -1.8115,9.0579 -8.3686,17.4395 -16.9471,21.6626 -5.2648,2.5919 -7.7551,3.1651 -15.2144,3.5021 -4.9056,0.2216 -10.7973,0 -13.0928,-0.4888 z m 70.8954,-0.4918 c -6.3023,-1.968 -11.1245,-6.125 -13.8197,-11.9133 -4.0177,-8.6286 -2.9038,-17.33444 3.1181,-24.36954 4.1459,-4.8437 10.2754,-7.4339 24.4476,-10.3311 5.2427,-1.0718 11.7104,-2.6661 14.3728,-3.543 4.8265,-1.5897 4.8386,-1.6049 4.1814,-5.2338 -0.9946,-5.4928 -4.1901,-8.1466 -10.6064,-8.8089 -7.1194,-0.7347 -12.2034,1.3479 -15.0444,6.163 -2.0555,3.4839 -2.253,3.5716 -6.5783,2.923 -2.4526,-0.3678 -6.6661,-1.1745 -9.3634,-1.7927 l -4.9042,-1.124 2.5504,-5.5 c 2.9835,-6.4338 6.5393,-10.4704 11.4489,-12.9969 12.6343,-6.5016 38.2462,-4.6983 46.8079,3.2957 5.3703,5.0142 5.5914,6.2704 6.1973,35.2012 0.4583,21.87924 0.8856,27.85354 2.2533,31.50004 0.9283,2.475 1.6943,4.8375 1.7023,5.25 0.01,0.4125 -4.4966,0.75 -10.0102,0.75 h -10.0247 l -1.0049,-2.75 c -0.5527,-1.5125 -1.2048,-3.3185 -1.4491,-4.0134 -0.2994,-0.852 -1.9319,-0.1278 -5.0126,2.2238 -7.9522,6.0701 -19.5977,8.0877 -29.2621,5.0699 z m 23.2782,-15.4111 c 6.0816,-2.7927 7.5929,-5.1168 8.8068,-13.54324 0.5958,-4.1356 0.8717,-7.7309 0.613,-7.9896 -0.2586,-0.2586 -5.5957,0.7823 -11.8603,2.3131 -9.2089,2.2504 -11.8372,3.3031 -13.7248,5.4977 -2.9097,3.3827 -2.9831,7.50874 -0.1966,11.05124 3.8045,4.8366 9.5891,5.7808 16.3619,2.6708 z m 334.69603,15.0493 c -2.91718,-1.0438 -6.63082,-3.169 -8.25254,-4.7227 -9.08952,-8.7083 -9.24196,-24.27744 -0.31961,-32.64234 4.21581,-3.9524 10.39947,-6.32 23.8761,-9.1418 16.63693,-3.4836 17.5,-3.8739 17.5,-7.9145 0,-6.824 -5.98814,-10.501 -15.30438,-9.3977 -5.06899,0.6004 -10.69562,4.4293 -10.69562,7.2785 0,0.6896 -0.43567,1.5231 -0.96815,1.8522 -0.95099,0.5878 -17.89067,-2.0058 -18.75659,-2.8717 -0.92718,-0.9272 3.65504,-9.5257 7.12043,-13.3615 4.99909,-5.5334 11.8489,-8.2632 22.45893,-8.9506 17.51954,-1.1351 29.9457,3.251 34.57401,12.2035 1.89108,3.6579 2.1169,6.309 2.64052,31 0.46375,21.86794 0.89175,27.83174 2.25172,31.37574 0.92352,2.4067 1.67913,4.5442 1.67913,4.75 0,0.2059 -4.65377,0.3743 -10.34171,0.3743 h -10.34171 l -1.19282,-3.9813 -1.19281,-3.9812 -4.21548,3.0642 c -6.18709,4.4973 -10.3841,5.9968 -18.21547,6.5079 -5.24973,0.3426 -8.32619,-0.018 -12.30395,-1.441 z m 24.81918,-15.4186 c 6.16291,-3.1238 8.15577,-6.9616 7.7822,-14.98694 l -0.29743,-6.3898 -10.70384,2.5957 c -12.53405,3.0395 -15.80901,5.314 -15.77392,10.95534 0.0548,8.8128 9.42702,12.6744 18.99299,7.8257 z m 67.03007,16.2238 c -7.1082,-1.499 -14.6555,-5.7241 -18.96,-10.6142 -3.6605,-4.1586 -6.9244,-10.8539 -5.8263,-11.9519 0.4452,-0.4452 17.2358,-3.3812 19.241,-3.3644 0.55,0 1.7746,1.692 2.7212,3.7499 2.0941,4.5522 6.1662,7.1107 12.5089,7.8594 9.3404,1.1026 18.2587,-3.7395 16.6864,-9.0597 -0.9922,-3.35754 -2.7695,-4.18404 -16.1997,-7.53354 -23.3275,-5.8178 -30.7149,-10.9381 -32.6569,-22.6347 -1.4554,-8.7658 4.0408,-19.1397 12.4,-23.4042 8.5207,-4.347 27.7254,-5.1229 38.0961,-1.5391 6.2594,2.163 11.5334,6.7748 14.5457,12.7192 1.393,2.7491 2.3609,5.1701 2.1508,5.3802 -0.5022,0.5023 -15.7748,3.4188 -17.9037,3.419 -0.9082,10e-5 -2.5513,-1.5252 -3.6513,-3.3897 -2.5941,-4.3967 -7.4348,-6.0254 -15.8905,-5.3467 -7.0761,0.568 -10.307,2.5635 -10.307,6.3659 0,3.1491 3.1671,4.626 17.8923,8.3435 19.9239,5.03 26.7711,8.5174 30.3493,15.4575 2.8678,5.5622 2.8545,14.60294 -0.03,20.19794 -2.8034,5.438 -10.1671,11.8154 -16.0173,13.8718 -5.5659,1.9564 -22.7421,2.8249 -29.1492,1.4738 z m 84.95474,-0.5145 c -10.0416,-2.8062 -16.47984,-8.3355 -21.19924,-18.2067 -8.1578,-17.06304 -4.7061,-41.87794 7.33894,-52.75984 2.2661,-2.0474 6.6493,-4.9083 9.7403,-6.3576 4.8495,-2.2739 6.9225,-2.6327 15.12,-2.6171 8.137,0.015 10.3104,0.3954 15.148,2.6479 13.2651,6.1768 20.852,19.655 20.852,37.0441 v 6.7899 h -25.5 -25.5 l 0.022,2.75 c 0.034,4.276 3.4173,10.71454 6.9528,13.23214 4.2046,2.9939 10.5253,3.6715 15.3692,1.6475 2.851,-1.1912 4.1994,-2.5891 5.4699,-5.6707 1.6542,-4.0123 1.7618,-4.0784 5.6861,-3.4913 12.005,1.7963 16.499,2.8551 16.4906,3.8851 -0.019,2.2832 -5.9494,11.4352 -9.1818,14.1688 -8.7879,7.4318 -24.4665,10.387 -36.8088,6.9378 z m 26.0345,-50.20934 c -1.2249,-6.5904 -3.8034,-10.2602 -8.7445,-12.4459 -5.2102,-2.3047 -10.2238,-1.9609 -14.2666,0.9783 -2.9535,2.1474 -7.0234,9.6397 -7.0234,12.9295 0,2.2849 0.022,2.2881 15.3657,2.2881 h 15.3658 z m -1038.03452,-4.3455 v -54.0955 l 31.25,0.3531 c 31.1397,0.3518 31.2694,0.3622 36.7561,2.9285 10.9464,5.1201 16.3706,13.2052 16.3758,24.4094 0,9.0995 -3.3106,15.7829 -10.4346,21.0388 l -3.0209,2.2288 5.5367,3.1247 c 3.0451,1.7185 6.8438,4.9291 8.4414,7.1346 7.6937,10.6208 6.0473,27.20334 -3.7039,37.30784 -8.2095,8.5071 -14.6333,9.6464 -54.4506,9.6577 l -26.75,0.01 z m 59.3642,33.71674 c 9.6582,-4.0355 10.4982,-18.36684 1.3689,-23.35324 -2.6674,-1.4569 -6.3392,-1.824 -20.9831,-2.0979 l -17.75,-0.3321 v 13.581 13.58104 h 17.0321 c 12.2122,0 17.966,-0.3902 20.3321,-1.3788 z m -3.346,-46.24524 c 7.4252,-2.971 9.51,-12.5127 4.0661,-18.6102 l -2.9157,-3.2658 -17.5843,-0.3145 -17.5843,-0.3144 v 12.0644 12.0645 h 14.9797 c 11.4907,0 15.9252,-0.3783 19.0385,-1.624 z m 51.9481,64.87404 c -0.2101,-10.9111 -0.03,-75.51824 0.2116,-75.75384 0.4393,-0.4291 7.1123,-0.7104 14.0721,-0.5931 l 5.75,0.097 v 39 39.00004 h -10 c -8.8443,0 -10.0039,-0.2022 -10.0337,-1.75 z m 626.03368,-51.75004 v -53.5 h 11 11 v 44 44.00004 h 27 27 v 9.5 9.5 h -38 -38 z m 341.00004,14.5965 v -38.9035 l 4.75,-0.3465 c 2.6125,-0.1906 6.8875,-0.2093 9.5,-0.042 l 4.75,0.3048 v 4.4452 c 0,2.4449 0.3375,4.4421 0.75,4.4384 0.4125,0 1.8081,-1.5607 3.1014,-3.4599 4.2541,-6.2472 12.7765,-8.8757 21.1948,-6.537 7.1083,1.9747 7.2613,2.4483 3.8679,11.972 -1.6595,4.6575 -3.1229,8.5738 -3.2519,8.7029 -0.1291,0.1291 -2.3069,-0.5105 -4.8396,-1.4212 -6.2276,-2.2395 -11.4284,-0.9806 -14.4353,3.494 -3.2962,4.9051 -4.3873,13.8803 -4.3873,36.08794 v 20.1681 h -10.5 -10.5 v -38.90354 z m -964.25002,-49.9129 c -2.9504,-0.3395 -2.875,-0.086 -2.875,-9.6836 0,-10.5669 -1.1371,-9.5 10.125,-9.5 h 10 v 9.5 c 0,8.3524 -0.2114,9.5091 -1.75,9.575 -7.9258,0.3398 -13.171,0.3766 -15.5,0.1086 z m -126.75,-89.8441 c -10.1992,-4.466 -20.1819,-9.9649 -21.3888,-11.7816 -0.7518,-1.1319 -2.6665,-3.4079 -4.2548,-5.0579 -3.4542,-3.5883 -9.629,-16.1192 -11.2175,-22.7644 -2.8274,-11.8278 0.479,-29.5051 7.3388,-39.2356 1.1632,-1.65 3.853,-6.375 5.9772,-10.5 2.1243,-4.125 4.663,-8.5376 5.6415,-9.8058 0.9786,-1.2682 2.7751,-4.4182 3.9923,-7 1.2173,-2.5818 2.9837,-5.5942 3.9255,-6.6942 0.9417,-1.1 3.047,-4.475 4.6783,-7.5 1.6314,-3.025 4.1679,-7.40356 5.6368,-9.73013 1.4689,-2.32657 2.6707,-4.5071 2.6707,-4.84563 0,-0.33852 1.0125,-2.03042 2.25,-3.75977 1.2375,-1.72934 4.3181,-7.2561 6.8458,-12.28168 2.5276,-5.02557 5.7059,-10.33468 7.0628,-11.79802 1.3569,-1.46334 3.0623,-4.33105 3.79,-6.37269 0.7276,-2.04164 2.1618,-4.90655 3.1871,-6.36645 1.0254,-1.4599 1.8643,-3.09926 1.8643,-3.64301 0,-0.54375 0.6171,-1.22544 1.3713,-1.51487 0.7542,-0.28942 1.6843,-1.7733 2.0669,-3.29751 0.3825,-1.52421 1.9554,-4.37306 3.4951,-6.33077 1.5398,-1.95771 3.105,-4.54043 3.4783,-5.73938 0.3733,-1.19895 2.9084,-5.56169 5.6335,-9.69497 2.7252,-4.13327 4.9549,-7.88535 4.9549,-8.33795 0,-0.4526 1.042,-2.38986 2.3156,-4.30504 1.2736,-1.91517 2.9356,-5.05713 3.6932,-6.98213 0.7577,-1.925 1.6324,-3.725 1.9438,-4 1.1923,-1.05307 6.0474,-9.00258 6.0474,-9.90183 0,-0.5196 1.0401,-2.21675 2.3113,-3.77144 2.8719,-3.51243 11.6887,-18.63016 11.6887,-20.04217 0,-0.57182 0.601,-1.53846 1.3356,-2.1481 1.1804,-0.97971 4.4173,-6.92251 6.0656,-11.13646 0.3227,-0.825 2.4484,-4.425 4.7239,-8 3.7577,-5.90384 10.9626,-17.99711 16.086,-27 1.0955,-1.925 2.6212,-4.21043 3.3904,-5.07874 0.7692,-0.86831 1.3985,-2.12976 1.3985,-2.80322 0,-0.67346 1.9576,-4.23803 4.3502,-7.92126 5.6304,-8.66747 6.7205,-10.7927 5.9376,-11.57563 -0.353,-0.353 0.097,-1.19967 1.0006,-1.88148 0.9033,-0.68182 3.0591,-3.93967 4.7906,-7.23967 1.7315,-3.3 3.7327,-6.675 4.4472,-7.5 0.7144,-0.825 2.6012,-3.975 4.1929,-7 1.5916,-3.025 4.3309,-7.7256 6.0874,-10.44578 1.7564,-2.72018 3.1935,-5.61618 3.1935,-6.43555 0,-0.81937 0.8672,-2.41877 1.9271,-3.55422 1.0599,-1.13545 4.0421,-6.11445 6.627,-11.06445 2.5849,-4.95 5.3177,-9.71043 6.0728,-10.57874 0.7552,-0.86831 1.3731,-2.25237 1.3731,-3.07569 0,-0.82332 1.0613,-2.494 2.3585,-3.71263 1.2972,-1.21863 4.4652,-6.43192 7.04,-11.58509 2.5749,-5.15317 5.3385,-9.91465 6.1415,-10.58107 0.803,-0.66642 1.46,-1.83157 1.46,-2.58922 0,-0.75766 0.3401,-1.37756 0.7559,-1.37756 0.4157,0 1.3828,-1.4625 2.1491,-3.25 0.7663,-1.7875 1.8886,-3.87117 2.4941,-4.63037 1.309,-1.64138 6.8539,-11.18229 9.3682,-16.11963 0.9803,-1.925 3.0913,-5.525 4.6912,-8 1.5998,-2.475 4.3226,-7.2 6.0505,-10.5 1.7279,-3.3 4.2328,-7.79293 5.5663,-9.9843 1.3336,-2.19136 3.3247,-5.65252 4.4247,-7.69146 1.1,-2.03895 5.3743,-9.24601 9.4984,-16.01571 9.501,-15.5958 11.2858,-18.71629 15.6199,-27.30853 5.8378,-11.57365 6.5865,-12.93002 8.0976,-14.67059 1.8923,-2.17973 5.0271,-7.61064 6.3952,-11.07941 0.5965,-1.5125 1.4359,-2.75 1.8654,-2.75 0.4295,0 1.3813,-1.4625 2.1152,-3.25 0.7339,-1.7875 1.6986,-3.7 2.1438,-4.25 1.3305,-1.64362 10.7641,-17.77077 10.7688,-18.40961 0,-0.32472 1.3619,-2.61539 3.0213,-5.09039 1.6594,-2.475 4.2203,-6.975 5.6908,-10 1.4705,-3.025 4.55,-8.425 6.8432,-12 5.549,-8.65072 12.4404,-20.44872 12.4404,-21.29794 0,-0.37488 1.9341,-3.72371 4.298,-7.44183 2.3639,-3.71813 5.0846,-8.33523 6.0461,-10.26023 0.9615,-1.925 4.015,-7.325 6.7855,-12 7.3001,-12.31807 9.8704,-16.96782 9.8704,-17.85555 0,-0.43153 2.5235,-4.57806 5.6079,-9.21452 3.0843,-4.63646 6.8092,-10.91978 8.2774,-13.96294 1.4682,-3.04315 3.5571,-6.87008 4.6421,-8.50429 3.1259,-4.70852 4.4349,-6.85185 5.1681,-8.4627 0.3756,-0.825 2.0794,-3.75 3.7863,-6.5 1.7069,-2.75 3.6434,-6.125 4.3035,-7.5 1.2656,-2.636375 2.4447,-4.592685 5.7147,-9.481625 2.1925,-3.27803 2.8579,-4.47454 8.6297,-15.51837 4.9369,-9.44604 6.8313,-12.74341 9.4822,-16.504 1.1616,-1.6478 3.7609,-6.1236796 5.7764,-9.9463996 2.0154,-3.82272 4.2763,-7.64772 5.0241,-8.5 0.7478,-0.85228 2.5701,-3.7996 4.0497,-6.5496004 1.4795,-2.75 4.2301,-7.7 6.1124,-11 1.8823,-3.3 3.7275,-6.675 4.1003,-7.5 0.3729,-0.825 1.7097,-2.87422 2.9706,-4.55383 1.261,-1.6796 3.0304,-4.81946 3.9321,-6.97747 0.9017,-2.158 2.9406,-5.81486 4.5309,-8.12635 1.5904,-2.31148 2.8916,-4.48074 2.8916,-4.82056 0,-0.33983 1.575,-3.07998 3.5,-6.08924 1.925,-3.00926 3.5,-5.84985 3.5,-6.31242 0,-0.46257 1.192,-2.59133 2.649,-4.73058 3.2998,-4.84522 5.9942,-9.44731 9.3029,-15.88955 1.4123,-2.75 3.931,-7.025 5.5969,-9.5 1.666,-2.474995 4.1131,-6.749995 5.4379,-9.499995 1.3249,-2.75 2.9591,-5.675 3.6316,-6.5 0.6725,-0.825 2.9212,-4.65 4.997,-8.5 2.0759,-3.85 4.143,-7.45 4.5936,-8 1.2,-1.46476 5.7911,-8.5334 5.7911,-8.91621 0,-0.18007 2.475,-4.6977 5.5,-10.03919 3.025,-5.34148 5.5,-9.89043 5.5,-10.10878 0,-0.21835 1.5069,-2.76823 3.3488,-5.66641 3.3283,-5.2373 6.2064,-10.24498 11.9368,-20.76942 1.6471,-3.025 3.5084,-6.175 4.1363,-7 0.6278,-0.825 2.2215,-3.525 3.5415,-6 1.32,-2.475 3.1592,-5.625 4.0871,-7 2.3228,-3.44171 17.114,-29.37136 20.2505,-35.5 1.4074,-2.75 5.3364,-8.04875 8.7311,-11.775 4.7889,-5.25656 7.9983,-7.68677 14.32,-10.8431 7.6966,-3.8428 19.5921,-6.91867 24.231,-6.26552 1.0543,0.14844 4.8255,0.59169 8.3806,0.98502 7.6138,0.84238 18.9889,6.38423 26.0363,12.68459 4.7482,4.2449 13.145,15.89307 15.573,21.60306 0.7926,1.86398 3.1671,5.91764 5.2767,9.00814 2.10953,3.0905 4.36703,7.22953 5.01663,9.19785 0.64961,1.96833 2.0329,4.49307 3.07398,5.61054 1.04109,1.11747 3.00791,4.22836 4.37072,6.91309 1.3628,2.68473 4.10033,7.28905 6.08339,10.23182 1.98306,2.94277 3.60556,5.83233 3.60556,6.42126 0,0.58892 0.62773,1.7812 1.39495,2.64951 0.76722,0.86831 3.41865,5.40374 5.89205,10.07874 2.47341,4.675 6.12068,10.96474 8.10505,13.9772 1.98437,3.01245 3.60795,5.98927 3.60795,6.61514 0,0.62587 0.84393,2.21113 1.87541,3.5228 1.03147,1.31167 3.44643,5.34657 5.36657,8.96643 3.89925,7.35085 6.64097,11.79846 8.42955,13.67436 0.6586,0.69076 1.51699,2.26576 1.90755,3.5 0.39055,1.23424 3.68253,7.09282 7.31551,13.01906 3.63297,5.92624 8.40541,14.084375 10.60541,18.129195 7.68551,14.13023 8.81884,16.14457 12.9944,23.09582 2.31267,3.85 5.5457,9.475 7.18453,12.5 1.63882,3.025 4.18149,7.40356 5.65037,9.73013 1.46889,2.32657 2.6707,4.53409 2.6707,4.90561 0,0.37151 1.125,2.15043 2.5,3.95315 1.375,1.80272 2.5,3.55091 2.5,3.88488 0,0.33397 0.8296,1.82649 1.84356,3.31672 5.33861,7.84622 7.15868,10.95488 7.17996,12.26326 0.0129,0.79544 2.24232,4.73936 4.9542,8.76428 2.71188,4.0249104 5.24204,8.2999104 5.62257,9.5000004 0.38054,1.20008001 1.75115,3.86053 3.0458,5.9121 1.29465,2.05157 2.35391,3.95533 2.35391,4.23058 0,0.27525 1.49857,2.8716896 3.33016,5.7698696 1.83159,2.89818 3.61747,6.05692 3.96862,7.01942 0.35115,0.9625 1.32757,1.75 2.16984,1.75 0.84226,0 1.53138,0.80525 1.53138,1.78945 0,1.85664 5.29111,12.54324 9.55315,19.29474 1.34577,2.13184 2.44685,4.12089 2.44685,4.42011 0,0.29922 3.99587,7.206525 8.87971,15.349565 4.88384,8.14304 11.07134,18.98194 13.75,24.08644 2.67866,5.10451 5.88279,10.33569 7.12029,11.62485 1.2375,1.28916 2.25,3.00724 2.25,3.81796 0,0.81071 0.5625,2.08236 1.25,2.82589 1.73711,1.87866 4.56565,6.63298 6.42001,10.79099 0.85849,1.925 2.97678,5.75 4.70729,8.5 4.6335,7.3632 5.39838,8.66481 7.25257,12.34183 0.92684,1.83801 2.28928,3.57365 3.02765,3.85699 0.73836,0.28334 1.34248,1.13555 1.34248,1.89381 0,1.64838 5.17971,11.49743 10.59436,20.14483 9.0725,14.48913 20.61951,34.53558 25.80321,44.79627 1.39868,2.76855 3.83794,7.04355 5.42059,9.5 1.58264,2.45645 4.5046,7.43506 6.49324,11.06357 1.98863,3.62852 4.28408,7.15202 5.101,7.83 0.81691,0.67797 2.01401,2.88419 2.66021,4.90269 0.64621,2.01851 2.1587,5.02001 3.36109,6.67001 1.20239,1.65 5.07189,8.175 8.5989,14.5 3.527,6.325 8.1077,14.2 10.1794,17.5 2.0717,3.3 4.6806,7.6875 5.7977,9.75 1.117,2.0625 2.4718,3.75 3.0106,3.75 0.5388,0 0.9797,0.64809 0.9797,1.44021 0,1.94951 5.5469,12.39466 11.4493,21.55979 1.5939,2.475 4.4411,7.425 6.3272,11 1.886,3.575 4.0047,7.175 4.7082,8 0.7034,0.825 3.1282,5.1 5.3884,9.5 2.2602,4.4 5.0222,8.92409 6.1377,10.05354 1.1156,1.12945 2.1984,2.92945 2.4063,4 0.3833,1.97445 10.8207,20.69459 13.0725,23.44646 0.6751,0.825 2.9264,4.65 5.0029,8.5 2.0766,3.85 4.5626,8.125 5.5246,9.5 0.9619,1.375 2.7804,4.75 4.0409,7.5 1.2606,2.75 3.2257,6.34367 4.367,7.98593 1.1412,1.64225 2.6989,4.11725 3.4614,5.5 2.9178,5.29108 4.3323,7.6588 7.1772,12.01407 1.6166,2.475 3.85254,6.3 4.96854,8.5 1.116,2.2 2.4478,4.675 2.9594,5.5 3.6673,5.91344 8.9897,15.32965 10.9271,19.33179 1.2703,2.62414 4.0583,7.09839 6.1955,9.94277 2.1373,2.84439 3.8859,5.76445 3.8859,6.48902 0,0.72457 0.8055,2.53668 1.7901,4.02691 2.3347,3.53398 3.4512,5.47875 7.2965,12.70951 1.7549,3.3 4.2533,7.27203 5.552,8.82673 1.2988,1.55469 2.3614,3.20656 2.3614,3.67082 0,0.46425 2.475,5.13086 5.5,10.37025 3.025,5.2394 5.5,9.93532 5.5,10.43538 0,0.50007 1.575,2.97193 3.5,5.49303 1.925,2.52109 3.5,4.969 3.5,5.43978 0,0.47079 1.9125,3.99001 4.25,7.8205 2.3375,3.83048 4.9022,8.30979 5.6993,9.95401 0.7971,1.64423 2.3812,4.3395 3.5203,5.9895 1.1391,1.65 2.7267,4.35 3.528,6 0.8014,1.65 2.5137,4.7323 3.8051,6.84956 1.2914,2.11725 3.488,5.94225 4.8812,8.5 1.3933,2.55774 3.5373,6.22544 4.7645,8.15044 4.4402,6.96478 5.9038,9.4916 9.5208,16.43637 2.0234,3.885 5.5581,10.03726 7.8549,13.67169 2.2967,3.63444 4.1759,6.92696 4.1759,7.31672 0,0.38977 1.125,2.18361 2.5,3.98633 1.375,1.80272 2.5,3.63862 2.5,4.07978 0,0.44115 1.575,3.17494 3.5,6.07507 1.925,2.90014 3.5,5.84709 3.5,6.54879 0,0.7017 1.0532,2.42544 2.3405,3.83053 1.2873,1.4051 2.9342,4.12972 3.6598,6.05472 0.7257,1.925 2.3086,4.85 3.5176,6.5 1.2091,1.65 3.4385,5.475 4.9542,8.5 1.5158,3.025 3.41,6.244 4.2095,7.1534 0.7995,0.9094 3.1417,4.9594 5.2049,9 3.5559,6.964 7.2666,13.3405 13.0043,22.3466 4.1961,6.5864 6.9327,13.115 7.6293,18.2013 0.3616,2.6393 0.8355,5.9237 1.0532,7.2987 0.2178,1.375 -0.075,6.3974 -0.6517,11.161 -1.6067,13.2823 -7.1154,22.6017 -20.7412,35.089 -1.6504,1.5125 -3.507,2.75 -4.1258,2.75 -0.6187,0 -2.1358,0.6623 -3.3712,1.4718 -1.2354,0.8095 -5.1032,2.3845 -8.5951,3.5 -6.3485,2.0281 -6.3804,2.0282 -574.46862,1.9642 -508.0833,-0.0572 -568.4896,-0.2259 -571.6197,-1.5965 z m 1083.32022,-80.5278 c -0.099,-1.4786 -1.6782,-5.0786 -3.5095,-8 -1.8313,-2.9214 -3.9997,-6.6617 -4.8186,-8.3117 -0.8189,-1.65 -1.7888,-3.2279 -2.1553,-3.5064 -0.3665,-0.2785 -2.3253,-3.6535 -4.3529,-7.5 -2.0276,-3.8465 -4.6795,-8.3436 -5.8931,-9.9936 -1.2137,-1.65 -3.0164,-4.8 -4.0062,-7 -0.9897,-2.2 -2.9541,-5.8 -4.3653,-8 -1.4112,-2.2 -3.5678,-5.575 -4.7925,-7.5 -1.2247,-1.925 -2.5537,-4.625 -2.9533,-6 -0.3996,-1.375 -2.2447,-4.58529 -4.1001,-7.13398 -1.8554,-2.54868 -3.3734,-4.89822 -3.3734,-5.2212 0,-0.32297 -2.025,-4.01236 -4.5,-8.19865 -2.475,-4.18628 -4.5,-7.86927 -4.5,-8.18441 0,-0.31514 -1.125,-2.04793 -2.5,-3.85065 -1.375,-1.80272 -2.5,-3.66588 -2.5,-4.14037 0,-0.74035 -6.9855,-12.77638 -10.0237,-17.27074 -0.5577,-0.825 -1.5733,-2.625 -2.25684,-4 -0.6836,-1.375 -2.3995,-4.3 -3.8131,-6.5 -1.4135,-2.2 -4.0387,-6.7 -5.8337,-10 -1.7949,-3.3 -3.6613,-6.48491 -4.1475,-7.07758 -0.4861,-0.59267 -2.377,-3.96767 -4.202,-7.5 -1.8249,-3.53233 -4.5342,-8.32598 -6.0206,-10.65255 -1.4864,-2.32657 -2.7026,-4.53409 -2.7026,-4.90561 0,-0.37151 -1.125,-2.15043 -2.5,-3.95315 -1.375,-1.80272 -2.5,-3.51526 -2.5,-3.80566 0,-0.45062 -9.545,-17.23474 -16.2678,-28.60545 -1.1381,-1.925 -3.1195,-5.6375 -4.4031,-8.25 -1.2836,-2.6125 -2.7828,-4.75 -3.3315,-4.75 -0.5487,0 -0.9976,-0.61832 -0.9976,-1.37405 0,-1.17926 -2.7168,-6.41248 -6.0355,-11.62595 -5.0374,-7.91347 -9.9645,-16.6429 -9.9645,-17.65433 0,-0.68546 -0.5625,-1.60615 -1.25,-2.04598 -0.6875,-0.43983 -2.3461,-3.04969 -3.6859,-5.79969 -1.3397,-2.75 -4.4897,-8.14696 -7,-11.99324 -2.5102,-3.84628 -5.9141,-9.5299 -7.5641,-12.63028 -1.65,-3.10037 -4.46898,-8.39091 -6.2644,-11.75676 -1.79541,-3.36585 -3.59806,-6.11972 -4.00588,-6.11972 -0.40783,0 -1.36258,-1.40313 -2.12169,-3.11806 -2.20606,-4.98384 -11.23425,-21.22543 -12.80133,-23.02943 -0.78712,-0.90612 -2.68907,-4.05612 -4.22655,-7 -1.53748,-2.94388 -3.83453,-7.15251 -5.10456,-9.35251 -1.27003,-2.2 -3.44491,-6.025 -4.83306,-8.5 -1.38815,-2.475 -2.79274,-4.725 -3.12132,-5 -0.32857,-0.275 -2.23731,-3.77323 -4.24164,-7.77384 -2.00433,-4.00062 -5.21675,-9.41603 -7.1387,-12.03426 -1.92196,-2.61823 -3.80278,-5.98884 -4.17961,-7.49024 -0.37683,-1.5014 -1.9344,-4.06715 -3.46126,-5.70166 -1.52686,-1.63451 -3.04216,-3.99068 -3.36733,-5.23592 -0.32516,-1.24524 -1.49405,-3.61408 -2.59752,-5.26408 -2.82571,-4.22523 -3.65996,-5.65023 -4.9762,-8.5 -1.88675,-4.08496 -5.41404,-10.31866 -7.64622,-13.51302 -1.14801,-1.64284 -2.38122,-3.66198 -2.74048,-4.48698 -0.35926,-0.825 -2.43484,-4.425 -4.61241,-8 -2.17757,-3.575 -5.10631,-8.79226 -6.50831,-11.59391 -1.40199,-2.80164 -3.44963,-5.90889 -4.55031,-6.90498 -1.10067,-0.9961 -2.00122,-2.45124 -2.00122,-3.23366 0,-1.59004 -11.37037,-21.64803 -14.04004,-24.76745 -0.94141,-1.1 -2.51796,-3.8 -3.50346,-6 -0.98549,-2.2 -2.33193,-4.675 -2.9921,-5.5 -0.66016,-0.825 -3.53329,-5.98229 -6.38472,-11.46065 -2.85144,-5.47835 -5.65751,-10.53066 -6.23571,-11.22736 -0.57821,-0.69669 -2.37691,-3.82174 -3.99713,-6.94455 -1.62021,-3.12281 -3.82357,-6.79369 -4.89634,-8.1575 -1.07278,-1.36381 -1.9505,-2.94604 -1.9505,-3.51606 0,-0.57002 -0.64113,-1.74683 -1.42473,-2.61514 -0.7836,-0.86831 -2.7504,-4.05374 -4.37067,-7.07874 -1.62027,-3.025 -7.79923,-13.825 -13.73102,-24 -5.9318,-10.175 -12.71355,-21.875 -15.07056,-26 -2.35701,-4.125 -5.61986,-9.3 -7.25077,-11.5 -1.63091,-2.2 -3.46059,-5.86008 -4.06595,-8.13351 -0.60536,-2.27343 -1.76524,-4.68507 -2.57751,-5.35919 -0.81227,-0.67413 -2.76203,-3.53905 -4.3328,-6.36649 -2.75353,-4.95645 -8.17929,-14.35526 -12.49285,-21.64081 -1.13974,-1.925 -3.05149,-5.37378 -4.24834,-7.66396 -1.19684,-2.29018 -3.03659,-5.44018 -4.08832,-7 -1.05173,-1.55982 -2.7242,-4.636035 -3.7166,-6.836035 -1.65322,-3.66494 -8.22682,-14.31852 -9.56399,-15.5 -0.31124,-0.275 -1.352,-2.075 -2.31281,-4 -5.05255,-10.12295 -19.91183,-35.3776696 -21.32113,-36.2372296 -0.6648,-0.40547 -1.50583,-1.92098 -1.86895,-3.36779 -0.66104,-2.6337804 -7.12547,-13.4805304 -9.8338,-16.5002504 -0.79185,-0.88289 -1.72854,-2.75598 -2.08154,-4.16241 -0.35299,-1.40643 -2.66812,-5.98452 -5.14473,-10.17354 -2.47661,-4.18901 -4.50293,-7.89844 -4.50293,-8.24319 0,-0.34474 -1.1423,-2.12444 -2.53844,-3.95488 -1.39615,-1.83044 -3.53365,-5.47292 -4.75,-8.09439 -1.21636,-2.62148 -3.11156,-6.11825 -4.21156,-7.77061 -2.77148,-4.16316 -3.84018,-5.94626 -8.52398,-14.22184 -2.2493,-3.97437 -4.5142,-7.48843 -5.0329,-7.80902 -0.5187,-0.32058 -0.9431,-1.34758 -0.9431,-2.28221 0,-1.50047 -4.6376,-9.467295 -10.1242,-17.392145 -1.0317,-1.49023 -1.8758,-3.02746 -1.8758,-3.41606 0,-0.38861 -2.0571,-4.11933 -4.5713,-8.2905 -2.5142,-4.17116 -5.0412,-8.44847 -5.6154,-9.50513 -0.5743,-1.05666 -2.1603,-3.98166 -3.5245,-6.5 -1.3642,-2.51834 -3.3696,-5.35214 -4.4565,-6.29733 -1.0869,-0.94519 -2.4317,-3.36827 -2.9884,-5.38464 -0.5568,-2.01635 -2.8283,-6.32651 -5.0478,-9.57813 -3.8658,-5.6634 -4.1146,-5.84047 -5.9158,-4.21039 -1.0342,0.93591 -1.8803,2.30231 -1.8803,3.03644 0,0.73413 -2.025,4.49399 -4.5,8.35524 -2.475,3.86126 -4.5,7.21543 -4.5,7.45372 0,0.23829 -3.8382,6.87119 -8.5294,14.73977 -4.6911,7.86859 -8.8002,15.43152 -9.1312,16.80652 -0.331,1.375 -1.3861,3.4 -2.3446,4.5 -0.9585,1.1 -2.8579,4.025 -4.221,6.5 -1.363,2.474995 -3.8442,6.524995 -5.5137,8.999995 -1.6695,2.475 -4.5829,7.425 -6.4741,11 -1.8913,3.575 -4.6542,8.42309 -6.1398,10.77354 -1.4855,2.35044 -3.4584,5.95044 -4.3841,8 -0.9257,2.04955 -2.2297,4.40146 -2.8979,5.22646 -0.6681,0.825 -3.0214,5.03469 -5.2294,9.35486 -2.208,4.32017 -4.6642,8.59517 -5.4582,9.5 -0.794,0.90483 -2.4485,3.67014 -3.6766,6.14514 -1.2282,2.475 -2.8127,5.175 -3.5213,6 -0.7085,0.825 -2.71,4.3125 -4.4476,7.75 -1.7377,3.4375 -3.5206,6.25 -3.962,6.25 -0.4413,0 -1.7843,2.1375004 -2.9844,4.7500004 -2.395,5.21399 -5.1119,10.15859 -13.0498,23.7499996 -2.891,4.95 -6.3884,11.025 -7.7721,13.5 -1.3837,2.475 -3.4826,5.85 -4.6642,7.5 -1.1816,1.65 -3.444,5.475 -5.0275,8.5 -6.2109,11.864895 -9.0024,16.756375 -13.2023,23.134475 -2.4029,3.64897 -4.3688,7.13647 -4.3688,7.75 0,0.61354 -0.4289,1.11552 -0.9531,1.11552 -0.5242,0 -1.7536,1.6875 -2.7319,3.75 -0.9784,2.0625 -4.3745,8.00776 -7.5469,13.21169 -3.1725,5.20392 -5.7681,9.98074 -5.7681,10.61514 0,0.6344 -0.8287,2.22664 -1.8415,3.53831 -1.0128,1.31167 -3.9295,6.33414 -6.4817,11.16104 -2.5522,4.8269 -5.7735,10.44386 -7.1586,12.48213 -1.385,2.03828 -2.5182,4.11742 -2.5182,4.62032 0,0.5029 -1.5214,3.21094 -3.3808,6.01786 -4.1815,6.31224 -7.8398,12.57469 -11.1596,19.10351 -1.3983,2.75 -4.3852,7.925 -6.6376,11.5 -2.2523,3.575 -5.7499,9.65 -7.7723,13.5 -3.7392,7.11796 -4.6539,8.68911 -15.9517,27.39827 -3.5211,5.83095 -7.9365,13.52673 -9.812,17.10173 -4.8372,9.22059 -9.42,17.10576 -12.036,20.70937 -1.2375,1.70465 -2.25,3.37506 -2.25,3.71202 0,0.33696 -2.025,3.94851 -4.5,8.02566 -2.475,4.07716 -4.5,7.66076 -4.5,7.96356 0,0.30281 -1.476,2.92179 -3.2801,5.81997 -1.804,2.89818 -3.9361,6.61942 -4.7379,8.26942 -0.8018,1.65 -3.4658,6.15 -5.92,10 -2.4542,3.85 -6.1986,10.375 -8.3209,14.5 -2.1222,4.125 -4.8851,9.075 -6.1397,11 -5.6888,8.72864 -10.0835,16.45489 -15.354,26.99386 -1.5111,3.02162 -3.5349,6.36898 -4.4974,7.43856 -0.9625,1.06959 -1.75,2.47975 -1.75,3.1337 0,0.65394 -0.6781,1.75177 -1.5069,2.43962 -0.8288,0.68784 -3.2214,4.45544 -5.3169,8.37244 -6.6493,12.42933 -10.3869,18.97678 -13.8291,24.22533 -1.8409,2.80692 -3.3471,5.51293 -3.3471,6.01334 0,0.50042 -1.575,3.24859 -3.5,6.10705 -1.925,2.85846 -3.5,5.60427 -3.5,6.10179 0,0.49753 -0.8497,1.98481 -1.8882,3.30507 -1.0386,1.32026 -3.4011,5.18053 -5.25,8.57836 -1.849,3.39784 -5.7243,10.1988 -8.6118,15.11325 -2.8875,4.91445 -5.25,9.24629 -5.25,9.62632 0,0.38003 -1.2835,2.57204 -2.8521,4.87113 -1.5687,2.2991 -4.336,6.88018 -6.1496,10.18018 -1.8136,3.3 -3.5677,6.225 -3.8979,6.5 -0.986,0.82112 -3.1004,4.89672 -3.1004,5.9762 0,0.55184 -2.025,4.16255 -4.5,8.0238 -2.475,3.86125 -4.5,7.31088 -4.5,7.66584 0,0.35496 -1.0334,2.03785 -2.2963,3.73977 -1.263,1.70191 -4.0372,6.46939 -6.1649,10.59439 -2.1277,4.125 -4.2443,7.65 -4.7037,7.83333 -0.4593,0.18334 -0.8351,0.74023 -0.8351,1.23755 0,0.49732 -3.0349,5.97232 -6.7442,12.16667 -3.7093,6.19435 -7.2405,12.38806 -7.8472,13.7638 -0.6066,1.37575 -3.1142,5.65075 -5.5725,9.5 -2.4582,3.84926 -5.1543,8.34865 -5.9912,9.99865 -2.464,4.85741 -6.9983,12.80635 -8.8417,15.5 -0.941,1.375 -3.8671,6.55 -6.5024,11.5 -2.6354,4.95 -7.2011,12.80049 -10.1462,17.44554 -2.945,4.64504 -5.3546,8.99802 -5.3546,9.67327 0,0.67526 -1.0694,2.49977 -2.3765,4.05446 -1.3071,1.5547 -4.0437,5.97673 -6.0814,9.82673 -2.0377,3.85 -4.3433,7.71043 -5.1235,8.57874 -0.7803,0.86831 -1.4186,1.82604 -1.4186,2.1283 0,0.56479 -6.6805,12.79152 -11.361,20.79296 -1.4478,2.475 -4.2631,7.425 -6.2564,11 -1.9932,3.575 -4.4162,7.64699 -5.3845,9.0489 -0.9683,1.4018 -2.943,4.7768 -4.3883,7.5 -1.4452,2.7231 -3.0726,5.6261 -3.6163,6.4511 -0.5438,0.825 -2.6368,4.425 -4.6511,8 -9.6956,17.2075 -9.6799,17.173 -8.2262,18.0797 0.7727,0.4819 226.1657,0.7653 510.3838,0.6417 l 509.00002,-0.2214 z m -538.61952,-20.4443 c -0.3479,-0.3479 -3.6854,-0.8597 -7.4166,-1.1373 -6.9709,-0.5187 -10.4495,-0.5429 -27.9093,-0.1946 -11.3513,0.2264 -14.0393,-0.426 -26.2562,-6.3725 -8.7431,-4.2557 -13.1211,-7.8334 -15.7085,-12.8368 -2.3878,-4.61756 -1.4918,-7.026 3.5899,-9.64877 3.6502,-1.88398 5.5386,-2.22587 10,-1.81047 9.1115,0.84838 17.0758,-0.5655 20.3382,-3.6106 3.1194,-2.91169 6.4806,-11.92275 7.7422,-20.75636 0.4321,-3.025 1.5044,-8.425 2.383,-12 0.8786,-3.575 2.0907,-8.525 2.6936,-11 1.6868,-6.9243 4.7467,-24.55191 5.9019,-34 0.5717,-4.675 1.4586,-10.525 1.9709,-13 0.5124,-2.475 1.2209,-8.1 1.5745,-12.5 0.4269,-5.31185 1.3311,-9.17606 2.691,-11.5 3.0475,-5.20814 9.8559,-11.07924 17.4053,-15.0092 3.6882,-1.91994 8.143,-4.45825 9.8995,-5.64068 1.7565,-1.18244 4.0807,-2.43143 5.1649,-2.77553 1.0842,-0.34411 2.8121,-1.5548 3.8398,-2.69044 1.8271,-2.01887 1.8245,-2.09786 -0.1181,-3.55229 -4.2171,-3.15741 -28.5687,1.4826 -34.1419,6.50546 -1.0146,0.91447 -3.0363,2.27662 -4.4927,3.02699 -4.0468,2.08514 -12.8521,10.11016 -12.8521,11.71324 0,0.78235 -0.3795,1.42245 -0.8433,1.42245 -2.0406,0 -8.6282,6.4943 -36.9954,36.4718 -1.8363,1.94051 -3.9738,3.5282 -4.75,3.5282 -0.7762,0 -1.4113,0.36321 -1.4113,0.80713 0,0.72966 -9.5382,7.90143 -14.5,10.90256 -7.7535,4.68965 -10.6817,6.06608 -14.1061,6.63072 -7.811,1.28793 -11.6493,2.8758 -15.3298,6.34192 -3.6706,3.45679 -12.4118,7.31767 -16.5675,7.31767 -1.1441,0 -3.9812,-1.93697 -6.3046,-4.30437 -4.1046,-4.18222 -4.2425,-4.53828 -4.86,-12.54604 -0.4839,-6.27529 -1.0395,-8.45785 -2.3286,-9.14775 -2.616,-1.40006 -7.1911,-7.8727 -8.7718,-12.40983 -4.4125,-12.66626 -2.7453,-32.36739 3.2871,-38.84201 2.0986,-2.25236 3.4194,-2.75 7.2991,-2.75 4.049,0 5.1332,0.45172 7.4666,3.11087 1.5013,1.71097 4.2684,6.35339 6.1491,10.31648 4.0567,8.54879 5.6155,10.15195 8.4146,8.65392 2.2949,-1.2282 11.1519,-11.11568 11.1519,-12.44942 0,-1.14509 2.868,-3.78967 11.2103,-10.33682 7.1886,-5.64169 13.7692,-11.61382 25.6686,-23.29503 8.0822,-7.93407 20.2304,-18.74698 31.6988,-28.21464 7.0398,-5.81165 22.6412,-14.20125 32.1966,-17.31356 4.354,-1.41817 7.8437,-1.63279 20,-1.23001 8.0991,0.26834 18.5507,1.21076 23.2257,2.09425 23.2722,4.39803 49.1761,5.87068 55.6542,3.16396 1.97453,-0.825 4.71136,-1.5 6.08188,-1.5 4.68301,0 25.2639,-14.52244 25.2639,-17.82689 0,-1.31208 -3.9672,-4.17311 -5.78658,-4.17311 -0.73787,0 -3.75901,-1.10576 -6.71365,-2.45724 -2.95464,-1.35148 -6.4133,-2.62071 -7.68592,-2.8205 -1.27262,-0.1998 -4.05631,-1.11904 -6.18597,-2.04277 -2.12967,-0.92372 -4.31026,-1.67949 -4.84566,-1.67949 -0.5355,0 -2.1681,-0.6437 -3.6279,-1.43045 -1.4599,-0.78675 -5.2584,-2.64767 -8.4412,-4.13538 -3.1827,-1.4877 -7.5663,-3.994 -9.7413,-5.56955 -2.175,-1.57554 -4.1956,-2.86462 -4.4902,-2.86462 -0.2946,0 -1.986,-1.30745 -3.7586,-2.90544 -1.7727,-1.598 -5.4008,-4.84246 -8.0626,-7.20992 l -4.8395,-4.30447 -4.6605,1.78081 c -9.1239,3.48636 -12.1953,4.02818 -15.6837,2.76674 -2.5142,-0.90914 -3.8655,-0.90771 -5.8713,0.006 -1.433,0.65292 -2.6054,1.48512 -2.6054,1.84935 0,0.96617 -8.0362,4.81285 -11.2675,5.39342 -3.8819,0.69745 -8.0757,-3.01202 -7.9611,-7.04174 0.2412,-8.48423 10.4784,-19.63271 23.6669,-25.7737 6.0598,-2.82163 19.0414,-3.13998 30.5617,-0.74948 8.8016,1.82636 32.549,9.71355 51.49998,17.10463 10.29728,4.01604 21.9621,7.01525 30.31985,7.79571 4.36604,0.40771 7.28833,1.24242 8.58769,2.45295 2.96379,2.76119 17.52862,2.66796 20.05929,-0.1284 1.73369,-1.9157 0.93554,-2.81963 -32.89088,-37.25 -41.67673,-42.42066 -94.98333,-94.78646 -96.48953,-94.78646 -0.5975,0 -1.0864,-0.58672 -1.0864,-1.30383 0,-1.87188 -6.2795,-7.69617 -8.2976,-7.69617 -1.8005,0 -2.4115,3.44376 -0.7889,4.44653 1.1818,0.73043 4.776,8.25744 5.6362,11.80347 0.3669,1.5125 1.0326,2.75 1.4792,2.75 0.4467,0 1.1044,1.33071 1.4617,2.95714 0.5725,2.60691 2.7566,7.4706 5.4078,12.04286 3.015,5.19951 3.383,6.86143 1.8574,8.38709 -0.8328,0.83279 -2.6936,1.81017 -4.135,2.17195 -1.4415,0.36178 -2.6208,1.11148 -2.6208,1.666 0,0.55452 -0.9,0.77287 -2,0.48521 -1.1,-0.28766 -2,-0.11514 -2,0.38337 0,0.49851 -1.125,0.90638 -2.5,0.90638 -1.5556,0 -2.5,-0.56667 -2.5,-1.5 0,-0.825 -0.45,-1.5 -1,-1.5 -0.55,0 -1,-0.90163 -1,-2.00362 0,-1.102 -0.9,-3.68283 -2,-5.7352 -1.1,-2.05236 -2,-4.52573 -2,-5.49637 0,-0.97065 -0.4143,-1.76481 -0.9206,-1.76481 -0.5063,0 -1.217,-1.35 -1.5794,-3 -0.3624,-1.65 -1.0732,-3 -1.5795,-3 -0.5063,0 -0.9205,-1.02487 -0.9205,-2.27749 0,-1.25263 -0.6175,-3.16513 -1.3722,-4.25 -0.7548,-1.08488 -1.6837,-3.40392 -2.0643,-5.15341 -0.7471,-3.43391 -2.1905,-4.97751 -4.5635,-4.88045 -1.3001,0.0532 -1.535,4.96021 -1.7623,36.81135 -0.2537,35.53955 -0.3259,36.75 -2.191,36.75 -1.0608,0 -2.2068,0.45 -2.5467,1 -0.3399,0.55 -3.5165,1 -7.059,1 h -6.441 v -37 c 0,-36.33333 -0.036,-37 -2,-37 -1.1111,0 -2,0.66667 -2,1.5 0,0.825 -0.45,1.5 -1,1.5 -0.55,0 -1.0028,0.7875 -1.0062,1.75 0,0.9625 -0.6089,2.90499 -1.3456,4.31665 -0.7366,1.41166 -1.6553,3.88666 -2.0414,5.5 -0.3862,1.61334 -1.8512,5.40835 -3.2556,8.43335 -3.3522,7.22017 -5.0306,11.10597 -5.7232,13.25 -0.6002,1.8582 -2.628,2.4369 -2.628,0.75 0,-0.55 -1.125,-1 -2.5,-1 -1.375,0 -2.5,-0.40787 -2.5,-0.90638 0,-0.49851 -0.9,-0.67103 -2,-0.38337 -1.1,0.28766 -2,0.073 -2,-0.47699 0,-0.55 -1.0048,-1.26274 -2.2328,-1.58388 -1.7695,-0.46274 -1.977,-0.83962 -1,-1.81663 0.678,-0.67801 1.2328,-2.26775 1.2328,-3.53275 0,-1.265 0.4224,-2.3 0.9387,-2.3 0.5163,0 1.2424,-2.025 1.6136,-4.5 0.3711,-2.475 1.0379,-4.5 1.4818,-4.5 0.4438,0 1.1252,-1.4625 1.5142,-3.25 0.389,-1.7875 1.3247,-4.13763 2.0795,-5.22251 0.7547,-1.08487 1.3722,-2.99737 1.3722,-4.25 0,-1.25262 0.3999,-2.27749 0.8887,-2.27749 0.4888,0 1.1965,-1.64072 1.5727,-3.64604 1.504,-8.01687 -1.1201,-6.14475 -25.4691,18.17073 -12.9292,12.91142 -23.9683,23.47531 -24.5313,23.47531 -0.563,0 -3.5724,-2.5875 -6.6876,-5.75 l -5.6639,-5.75 11.4452,-11.49416 c 6.2949,-6.32179 11.4453,-12.08585 11.4453,-12.80902 0,-0.72317 0.3685,-1.08708 0.819,-0.80868 1.3623,0.84197 23.5339,-22.0262 22.9161,-23.63611 -0.6412,-1.67093 -3.0317,-1.57118 -7.2351,0.30191 -1.65,0.73526 -3.45,1.40491 -4,1.4881 -0.9707,0.14682 -2.635,0.71957 -6.25,2.15081 -0.9625,0.38107 -2.2313,0.72607 -2.8194,0.76668 -0.5882,0.0406 -2.3148,0.88978 -3.8368,1.88705 -1.522,0.99727 -2.9957,1.58486 -3.2748,1.30575 -0.2791,-0.27912 -2.5289,0.62108 -4.9996,2.00043 -2.4706,1.37935 -4.5801,2.35926 -4.6878,2.17757 -1.256,-2.12032 -5.1547,-10.56938 -5.2283,-11.33033 -0.053,-0.55 -0.4462,-1.80691 -0.8735,-2.79313 -0.4273,-0.98622 -0.6088,-1.88622 -0.4034,-2 0.2055,-0.11378 1.793,-0.99437 3.5279,-1.95687 1.7348,-0.9625 4.0973,-1.75 5.25,-1.75 1.1526,0 2.0957,-0.45 2.0957,-1 0,-0.55 0.3375,-0.95133 0.75,-0.89185 1.4416,0.20789 5.25,-1.34835 5.25,-2.14533 0,-0.44215 1.3504,-1.1005 3.0008,-1.46301 1.6505,-0.3625 5.0401,-1.74337 7.5326,-3.06861 2.4924,-1.32523 5.0795,-2.3019 5.7491,-2.17036 0.6696,0.13154 1.2175,-0.56605 1.2175,-1.55019 0,-1.67932 -2.0598,-1.80229 -33.5,-2 l -33.5,-0.21065 -0.2875,-9.25 -0.2876,-9.25 h 34.5376 c 33.12,0 34.5375,-0.0771 34.5375,-1.87756 0,-1.93077 -2.2851,-4.50401 -3.1932,-3.59588 -0.2801,0.28007 -1.8137,-0.17107 -3.408,-1.00251 -1.5944,-0.83145 -3.6863,-1.5145 -4.6488,-1.51789 -0.9625,-0.003 -1.75,-0.40368 -1.75,-0.88953 0,-0.85797 -3.7394,-2.44261 -5.25,-2.22478 -0.4125,0.0595 -0.75,-0.34185 -0.75,-0.89185 0,-0.55 -0.9085,-1 -2.0189,-1 -1.1104,0 -4.5487,-1.35 -7.6408,-3 -3.092,-1.65 -6.2069,-3 -6.9221,-3 -2.3979,0 -2.5621,-1.98919 -0.4134,-5.00682 1.1723,-1.64625 1.7857,-2.99318 1.3633,-2.99318 -0.4225,0 -0.2281,-0.54 0.4319,-1.2 0.66,-0.66 1.2,-1.82803 1.2,-2.59563 0,-1.99508 4.1471,-7.55416 4.8839,-6.54676 0.5517,0.75433 5.0825,3.11946 9.1161,4.75867 0.825,0.33527 3.4833,1.72877 5.9073,3.09665 2.424,1.36789 5.2665,2.48707 6.3167,2.48707 1.0502,0 3.4544,1.17841 5.3427,2.61869 1.8883,1.44028 3.4333,2.25028 3.4333,1.8 0,-0.45028 0.54,-0.27869 1.2,0.38131 2.0123,2.01232 5.8,1.48988 5.8,-0.8 0,-1.1 -0.5683,-2 -1.2629,-2 -0.6946,0 -1.7071,-1.0125 -2.25,-2.25 -0.5429,-1.2375 -1.9206,-2.66019 -3.0615,-3.16153 -1.141,-0.50135 -2.8076,-2.18885 -3.7035,-3.75 -0.896,-1.56116 -2.2183,-2.83847 -2.9385,-2.83847 -0.7201,0 -1.7536,-1.0125 -2.2965,-2.25 -0.5429,-1.2375 -1.9996,-2.69421 -3.2371,-3.23713 -1.2375,-0.54292 -2.25,-1.45984 -2.25,-2.03759 0,-1.45315 -9.2883,-10.47528 -10.7844,-10.47528 -0.6686,0 -1.2156,-0.50498 -1.2156,-1.12219 0,-0.6172 -3.6891,-4.90166 -8.1979,-9.52101 l -8.1979,-8.39884 5.7758,-5.83672 5.7758,-5.83673 5.0672,5.35775 c 2.7869,2.94675 5.6768,5.35774 6.422,5.35774 0.7453,0 1.355,0.57017 1.355,1.26705 0,1.6306 21.1333,22.73295 22.7663,22.73295 0.6785,0 1.2337,0.58672 1.2337,1.30383 0,1.61816 6.1581,7.69617 7.7976,7.69617 0.6613,0 1.2024,0.59656 1.2024,1.32569 0,1.66409 4.5253,5.98737 6.5833,6.28942 1.9204,0.28186 2.9804,-2.21842 1.644,-3.87784 -0.548,-0.6805 -1.3091,-2.69977 -1.6913,-4.48727 -0.3822,-1.7875 -1.1092,-3.25 -1.6155,-3.25 -0.5063,0 -0.9205,-1.02487 -0.9205,-2.27749 0,-1.25263 -0.6175,-3.16513 -1.3722,-4.25 -0.7548,-1.08488 -1.6905,-3.43501 -2.0795,-5.22251 -0.389,-1.7875 -1.1215,-3.25 -1.6278,-3.25 -0.5063,0 -0.9205,-1.02487 -0.9205,-2.27749 0,-1.25263 -0.6175,-3.16513 -1.3722,-4.25 -0.7548,-1.08488 -1.6905,-3.43501 -2.0795,-5.22251 -0.389,-1.7875 -1.1215,-3.25 -1.6278,-3.25 -0.5063,0 -0.9205,-0.45 -0.9205,-1 0,-0.55 1.0875,-1 2.4167,-1 1.3291,0 2.5763,-0.47903 2.7715,-1.06451 0.1951,-0.58548 2.2576,-1.31973 4.5833,-1.63167 2.3257,-0.31194 4.2285,-0.98446 4.2285,-1.49451 0,-1.92265 1.9639,0.40315 4.1911,4.96334 1.2699,2.60004 2.6464,4.87735 3.0589,5.06068 0.4125,0.18334 0.75,0.79033 0.75,1.34887 0,1.01988 1.5447,4.79011 5.0915,12.42733 1.0497,2.26024 1.9085,4.84774 1.9085,5.75 0,0.90226 0.4142,1.64047 0.9205,1.64047 0.5063,0 1.2171,1.35 1.5795,3 0.4531,2.06324 1.2586,3 2.5794,3 1.8585,0 1.9206,-1.16312 1.9206,-36 v -36 h 8.4881 8.4881 l 0.2619,38.25 c 0.2274,33.2128 0.4594,38.25104 1.7619,38.25789 1.7111,0.009 3.5012,-2.96064 4.4852,-7.44053 0.3705,-1.68705 1.0287,-3.06736 1.4626,-3.06736 0.4339,0 1.039,-1.86485 1.3447,-4.14412 0.3057,-2.27927 1.0741,-4.46441 1.7075,-4.85588 0.6334,-0.39147 1.4018,-2.57661 1.7075,-4.85588 0.3057,-2.27927 0.9466,-4.14412 1.4242,-4.14412 0.4775,0 0.8683,-0.79416 0.8683,-1.76481 0,-0.97064 0.9,-3.44401 2,-5.49637 1.1,-2.05237 2,-4.6332 2,-5.7352 0,-1.33695 0.6654,-2.00362 2,-2.00362 1.1,0 2,0.45 2,1 0,0.55 0.3375,0.92856 0.75,0.84124 0.4125,-0.0873 1.5375,0.13768 2.5,0.5 0.9625,0.36232 2.5375,0.95473 3.5,1.31648 0.9625,0.36174 2.2525,0.5808 2.8666,0.4868 2.1941,-0.33587 3.6269,2.74402 2.9514,6.34452 -0.3622,1.93103 -1.0525,3.51096 -1.5339,3.51096 -0.4814,0 -1.1879,1.4625 -1.5701,3.25 -0.3822,1.7875 -1.041,3.7 -1.464,4.25 -0.423,0.55 -1.0818,2.4625 -1.464,4.25 -0.3822,1.7875 -1.0734,3.25 -1.536,3.25 -0.4626,0 -1.1538,1.4625 -1.536,3.25 -0.3822,1.7875 -1.0924,3.7454 -1.5782,4.35089 -0.4858,0.60549 -1.1656,3.16151 -1.5108,5.68006 -0.4937,3.60178 -0.3339,4.50931 0.7486,4.25189 4.0215,-0.95626 5.8764,-1.88849 5.8764,-2.9533 0,-0.65297 1.575,-2.71376 3.5,-4.57954 1.925,-1.86578 3.5,-3.97906 3.5,-4.69617 0,-0.71711 0.5867,-1.30383 1.3038,-1.30383 1.6182,0 7.6962,-6.15812 7.6962,-7.79761 0,-0.66131 0.607,-1.20239 1.3489,-1.20239 0.742,0 5.6299,-4.3875 10.8622,-9.75 5.2322,-5.3625 10.6377,-10.78229 12.0123,-12.04398 l 2.4991,-2.29398 6.1063,6.29398 6.1063,6.29398 -20.4676,20.50872 c -11.2571,11.2798 -20.4675,20.89004 -20.4675,21.35608 0,0.46605 -1.125,1.73228 -2.5,2.81386 -3.2993,2.59523 -3.3442,5.82134 -0.081,5.82134 1.3304,0 3.6929,-0.652 5.25,-1.44889 2.9546,-1.51212 5.4784,-2.38024 6.331,-2.17768 0.275,0.0653 1.9884,-0.94105 3.8076,-2.23641 1.8192,-1.29536 3.5498,-2.11301 3.8458,-1.81699 0.296,0.29601 2.123,-0.35195 4.0601,-1.43992 1.937,-1.08796 3.7556,-1.74436 4.0413,-1.45866 0.2857,0.2857 1.8236,-0.40918 3.4176,-1.54419 2.3261,-1.65633 3.1872,-1.82371 4.3629,-0.84801 0.8056,0.6686 1.4647,1.83554 1.4647,2.59319 0,0.75766 0.45,1.37756 1,1.37756 0.55,0 1.003,1.0125 1.0066,2.25 0,1.2375 0.9007,3.6 1.9934,5.25 2.7051,4.08454 2.5145,5.22809 -1,6 -1.65,0.3624 -3,1.07316 -3,1.57946 0,0.50629 -0.6457,0.92054 -1.4349,0.92054 -0.7892,0 -2.7017,0.53793 -4.25,1.19539 -1.5483,0.65747 -3.2651,1.28499 -3.8151,1.3945 -3.0544,0.60816 -5.5,1.75961 -5.5,2.5896 0,0.52042 -0.7875,0.84878 -1.75,0.72968 -1.9666,-0.24335 -4.418,0.51137 -8.581,2.64194 -1.5571,0.79689 -3.5178,1.44889 -4.357,1.44889 -0.9807,0 -1.3091,0.56528 -0.919,1.58179 0.3338,0.86998 0.607,1.76998 0.607,2 0,0.23001 16.65,0.41821 37,0.41821 h 36.99998 v 9.5 9.5 h -37.49998 c -41.3107,0 -42.6186,0.22345 -31.75,5.42464 3.1625,1.51343 6.425,3.16488 7.25,3.66989 0.825,0.50501 2.0625,1.14034 2.75,1.41183 3.6892,1.45689 4.8194,1.79646 5.5,1.6524 0.4125,-0.0873 0.75,0.29124 0.75,0.84124 0,0.55 1.125,1 2.5,1 1.375,0 2.5,0.46114 2.5,1.02475 0,0.90974 3.7937,2.94521 6.5,3.48749 2.8617,0.57344 5.5,1.82271 5.5,2.60439 0,0.48585 -0.4612,0.88337 -1.0248,0.88337 -0.9367,0 -3.1538,4.09727 -3.5173,6.5 -0.6586,4.35455 -4.9901,9.1331 -6.8668,7.57559 -0.7013,-0.58203 -1.573,-0.76037 -1.9371,-0.3963 -0.364,0.36406 -1.706,-0.31896 -2.9821,-1.51783 -1.2762,-1.19886 -2.5985,-1.90155 -2.9385,-1.56151 -0.3401,0.34003 -2.1067,-0.44161 -3.9258,-1.73697 -1.8192,-1.29536 -3.5326,-2.30174 -3.8076,-2.23641 -0.9133,0.21698 -3.4385,-0.73745 -9.5,-3.59056 -10.6461,-5.01106 -12.4005,-5.45901 -13.2017,-3.37093 -0.6385,1.66375 13.217,16.33492 15.4267,16.33492 0.7012,0 1.275,0.49123 1.275,1.09161 0,0.60039 24.9293,25.91289 55.39857,56.25 l 55.39858,55.15839 -1.74216,-7.12886 c -0.95819,-3.92088 -2.75153,-8.76206 -3.9852,-10.75819 l -2.24304,-3.62931 2.83218,1.07679 c 1.5577,0.59224 4.29668,2.19382 6.08662,3.55907 2.88082,2.19731 3.25377,2.27554 3.24864,0.68139 -0.007,-2.23557 -1.68238,-11.94783 -2.63246,-15.26225 -0.67265,-2.34655 -0.46974,-2.28825 4.35032,1.25 2.78074,2.04125 5.39524,3.71136 5.81,3.71136 1.16406,0 -0.42275,-12.82653 -2.07645,-16.7844 -0.80953,-1.93747 -1.2896,-3.70495 -1.06683,-3.92772 0.77376,-0.77376 7.13222,2.44845 9.0262,4.5741 1.04774,1.17591 2.28524,2.13802 2.75,2.13802 0.46475,0 0.84941,-3.2625 0.85478,-7.25 0.008,-5.74481 0.55416,-8.39187 2.63191,-12.75 l 2.62214,-5.5 1.81908,6.5 c 1.00049,3.575 2.96613,10.26348 4.36808,14.8633 1.40196,4.59981 2.54902,9.46387 2.54902,10.80901 0,3.65607 1.84895,1.89534 4.77833,-4.55033 l 2.55504,-5.62198 1.21509,5.5 c 0.66831,3.025 1.6058,7.91989 2.08332,10.87754 l 0.86822,5.37754 4.34995,-5.87754 4.34995,-5.87754 -0.34995,9.80202 c -0.29855,8.36229 -0.12963,9.73109 1.15005,9.31912 0.825,-0.2656 3.56739,-1.14638 6.09419,-1.9573 l 4.5942,-1.4744 -2.77739,7.15528 c -1.52756,3.9354 -3.50995,9.26734 -4.40531,11.84875 -1.84174,5.30991 -8.33717,12.39884 -13.25569,14.46688 -4.40515,1.85219 -4.09275,2.73003 0.69887,1.96382 7.04728,-1.12691 27.11656,3.12938 35.23001,7.47156 5.14274,2.75232 10.7792,-2.48982 9.50272,-8.83789 -0.7016,-3.4891 1.04822,-9.59071 3.5074,-12.23034 3.1248,-3.35407 10.01232,-2.7845 15.1427,1.25224 4.76317,3.74781 12.80963,7.72026 15.63789,7.72026 1.05385,0 3.45666,-0.90896 5.33958,-2.01991 1.88292,-1.11095 4.04614,-1.77422 4.80716,-1.47393 0.76102,0.30029 2.76862,3.11903 4.46135,6.26388 2.85812,5.31001 3.57911,5.93111 10.10686,8.70662 7.10966,3.02294 9.17606,5.00384 15.05482,14.43195 4.49913,7.21553 6.15975,14.48518 4.87421,21.33772 -1.41492,7.54217 -11.26753,20.92402 -19.57009,26.58016 -3.43599,2.34078 -18.17889,2.26113 -22.94712,-0.12397 -1.872,-0.93638 -4.74746,-1.70252 -6.3899,-1.70252 h -2.98627 l 0.54891,5.31839 c 0.62106,6.01748 4.86102,18.99748 8.20038,25.10424 4.41533,8.07441 9.56668,16.81941 11.54077,19.59176 1.10695,1.55457 3.3816,5.4498 5.05478,8.65605 1.67317,3.20626 3.66675,6.95456 4.43016,8.32956 0.76342,1.375 2.09396,6.55 2.95676,11.5 1.6008,9.18395 0.99955,14.96746 -2.18792,21.04613 -0.5635,1.07463 -1.76778,5.25577 -2.67616,9.29142 -4.301,19.1078 -10.42106,34.42768 -16.81209,42.08445 -2.10168,2.5179 -4.261,5.12151 -4.7985,5.78579 -0.53751,0.66429 -0.97979,2.23929 -0.98286,3.5 -0.0218,8.97201 -7.98538,18.78966 -18.49442,22.80034 -6.71108,2.56121 -10.95762,2.83449 -17.32759,1.11506 -6.45908,-1.74348 -13.8494,-5.78001 -14.3938,-7.86177 -0.90286,-3.45254 0.95264,-6.11197 5.03047,-7.21001 2.21949,-0.59765 4.72982,-2.18517 5.80163,-3.66892 3.30277,-4.57218 8.72558,-10.59956 14.13929,-15.71562 l 5.25,-4.96135 v -8.89725 c 0,-8.87162 1.02935,-14.70865 5.433,-30.80827 3.32474,-12.15516 2.53324,-18.87591 -3.45225,-29.31383 -7.21496,-12.58194 -9.9525,-17.83111 -12.42271,-23.82031 -1.27808,-3.09878 -4.23362,-8.21942 -6.56789,-11.37919 l -4.24411,-5.74504 -6.07981,0.63547 c -6.34483,0.66316 -11.92028,3.13565 -23.66623,10.49503 -8.43215,5.28313 -11.14485,6.51322 -19,8.61572 -9.06377,2.426 -15.6468,4.46908 -21.5746,6.69582 -6.60246,2.48017 -19.64635,2.71475 -23.9254,0.43027 -4.15896,-2.22036 -9.5,-1.89991 -9.5,0.56997 0,2.60367 -10.93509,10.59127 -20,14.60912 -7.39153,3.27616 -24.38039,8.92942 -29.09834,9.68285 -2.42091,0.3866 -6.40624,1.3636 -8.85624,2.17112 -2.4501,0.80751 -7.1751,1.72455 -10.5,2.03786 -3.325,0.31331 -9.3799,1.41239 -13.4554,2.4424 -4.0755,1.03001 -9.4755,1.88869 -12,1.90818 -5.8003,0.0448 -8.0724,1.33243 -12.4279,7.04325 -5.4631,7.1629 -9.8596,19.12626 -11.1671,30.38625 -0.8383,7.21979 -0.956,7.85003 -2.527,13.53896 -0.8348,3.02283 -1.2788,13.50719 -1.3548,31.9961 -0.1122,27.2469 -0.1339,27.51677 -2.3632,29.32258 -1.6147,1.30798 -2.25,2.88932 -2.25,5.60082 0,4.4476 -1.669,9.8663 -3.7966,12.3266 -1.4756,1.7063 -8.1311,2.489 -9.5027,1.1174 z m 193.29928,-293.3674 c 0,-0.55 0.58367,-1 1.29705,-1 2.88544,0 12.94015,-13.09613 11.30789,-14.72839 -0.29839,-0.29839 -1.68157,0.2038 -3.07373,1.11598 -3.05452,2.0014 -3.14863,1.26598 -0.53121,-4.15145 1.8663,-3.8628 2.7428,-10.23614 1.40773,-10.23614 -0.32575,0 -1.78825,0.94339 -3.25,2.09643 l -2.65773,2.09642 -0.29772,-6.09642 c -0.30916,-6.33083 -1.3005,-7.51328 -3.43435,-4.09643 -1.74502,2.79422 -2.44147,2.5192 -3.76333,-1.48607 -1.65468,-5.01371 -2.73807,-5.13557 -4.1373,-0.46536 l -1.23027,4.10629 -1.35045,-2.57743 c -2.77647,-5.29907 -4.72937,-1.63627 -4.13211,7.75004 l 0.34553,5.43013 -2.38486,-1.8788 c -4.20444,-3.31227 -5.43203,-2.52859 -4.88916,3.1212 0.42243,4.39637 0.2536,5 -1.39845,5 -1.75697,0 -1.78029,0.19067 -0.35943,2.93831 1.84066,3.55944 7.52002,8.45575 13.54765,11.67975 4.59929,2.46002 8.98425,3.1345 8.98425,1.38194 z"
       id="path125" /></g></svg>
