<?xml version="1.0" encoding="UTF-8" standalone="no"?>
<!-- Created with Inkscape (http://www.inkscape.org/) -->

<svg
   width="23.817142mm"
   height="25.265026mm"
   viewBox="0 0 23.817142 25.265026"
   version="1.1"
   id="svg1"
   xml:space="preserve"
   xmlns="http://www.w3.org/2000/svg"
   xmlns:svg="http://www.w3.org/2000/svg"><defs
     id="defs1" /><g
     id="layer1"
     transform="translate(-112.40905,-217.73531)"><g
       label="Layer 1"
       id="imagebot_2"
       transform="matrix(0.26458333,0,0,0.26458333,78.973481,193.49001)"><title
         id="title1">Layer 1</title><g
         transform="matrix(0.13333334,0,0,-0.13333334,118.0734,187.21476)"
         fill="#000000"
         stroke="none"
         id="g2"
         style="fill:#ffffff;fill-opacity:1"><path
           d="M 275,710 C 208,699 163,678 117,638 82,608 78,598 68,531 60,474 60,449 70,421 87,371 147,272 186,228 208,204 217,185 213,171 210,160 177,118 140,78 82,15 75,5 93,2 c 13,-3 27,5 39,20 l 18,23 V 23 c 0,-34 23,-28 38,10 8,17 22,48 32,67 18,33 22,35 67,34 26,-1 66,-6 88,-12 197,-55 380,71 361,249 -7,75 -52,181 -93,224 -18,19 -33,43 -33,55 0,12 -7,20 -16,20 -9,0 -31,9 -49,20 -38,24 -186,35 -270,20 z m 162,-26 c -3,-3 -12,-4 -19,-1 -8,3 -5,6 6,6 11,1 17,-2 13,-5 z m 70,-10 c -3,-3 -12,-4 -19,-1 -8,3 -5,6 6,6 11,1 17,-2 13,-5 z M 177,615 c -45,-43 -55,-57 -42,-61 9,-4 19,-4 22,-1 3,4 18,-2 33,-13 55,-39 190,-9 190,43 0,12 -5,28 -12,35 -15,15 -92,16 -120,1 -34,-18 -31,-2 4,19 41,26 113,39 122,23 4,-6 28,-11 54,-11 l 47,-1 -32,-29 c -41,-37 -41,-55 -3,-75 36,-19 160,-21 179,-2 10,10 15,8 27,-7 8,-11 14,-26 14,-35 0,-8 6,-22 14,-30 17,-19 30,-79 30,-137 0,-32 -8,-55 -34,-93 -63,-92 -165,-122 -297,-87 -116,31 -180,91 -249,234 -36,72 -36,74 -24,139 12,69 25,87 94,125 48,26 45,22 -17,-37 z m 168,-24 c 8,-14 -28,-31 -77,-35 -24,-2 -33,-2 -22,1 12,2 30,13 40,24 18,20 49,25 59,10 z m 184,-21 c 11,0 24,7 29,15 10,19 42,10 42,-11 0,-11 -17,-14 -69,-14 -68,0 -89,9 -76,31 5,7 15,5 31,-5 13,-9 32,-16 43,-16 z"
           id="path1-6"
           style="fill:#ffffff;fill-opacity:1" /><path
           d="m 190,477 c 0,-8 12,-24 26,-38 22,-21 36,-24 128,-27 71,-3 130,1 189,13 47,9 92,15 99,12 8,-4 7,-6 -4,-6 -23,-1 -38,-31 -38,-73 0,-19 -9,-53 -20,-76 -28,-57 -70,-66 -129,-26 -31,20 -45,24 -53,16 -14,-14 -15,-12 39,-46 24,-14 57,-26 74,-26 62,0 119,68 119,142 0,24 8,42 25,58 63,59 3,85 -125,56 -77,-18 -235,-21 -245,-6 -3,6 -15,10 -26,10 -11,0 -22,7 -25,15 -7,19 -34,20 -34,2 z"
           id="path2-9"
           style="fill:#ffffff;fill-opacity:1" /></g></g></g><style
     id="style1">
text {
	font-family : Verdana, Tahoma, sans-serif;
	font-size : 11px;
	fill : black;
	stroke : none;
}
/* As at 20060630, Wikipedia's SVG rasteriser couldn't make use of these styles. Leave them in in case it improves. */
#percentage_numbers text {
	text-anchor : end;
}
#x_axis_numbers text {
	text-anchor : middle;
}
</style></svg>
