<?xml version="1.0" encoding="UTF-8" standalone="no"?>
<!-- Created with Inkscape (http://www.inkscape.org/) -->

<svg
   width="1500"
   height="1500"
   viewBox="0 0 396.875 396.875"
   version="1.1"
   id="svg5"
   xml:space="preserve"
   inkscape:version="1.2.2 (732a01da63, 2022-12-09)"
   sodipodi:docname="cursed_technology.svg"
   xmlns:inkscape="http://www.inkscape.org/namespaces/inkscape"
   xmlns:sodipodi="http://sodipodi.sourceforge.net/DTD/sodipodi-0.dtd"
   xmlns="http://www.w3.org/2000/svg"
   xmlns:svg="http://www.w3.org/2000/svg"><sodipodi:namedview
     id="namedview7"
     pagecolor="#ffffff"
     bordercolor="#000000"
     borderopacity="0.25"
     inkscape:showpageshadow="2"
     inkscape:pageopacity="0.0"
     inkscape:pagecheckerboard="0"
     inkscape:deskcolor="#d1d1d1"
     inkscape:document-units="mm"
     showgrid="false"
     inkscape:zoom="0.37104026"
     inkscape:cx="300.50647"
     inkscape:cy="804.49491"
     inkscape:window-width="1920"
     inkscape:window-height="991"
     inkscape:window-x="-9"
     inkscape:window-y="1341"
     inkscape:window-maximized="1"
     inkscape:current-layer="layer1" /><defs
     id="defs2" /><g
     inkscape:label="Layer 1"
     inkscape:groupmode="layer"
     id="layer1"><g
       id="g178"
       transform="translate(-2.7515637,2.6004801)"><path
         style="fill:#000000;stroke-width:0.170329"
         d="m 142.58574,123.52079 c 0.0682,0.2225 5.36802,16.56861 11.77736,36.32468 6.40935,19.75606 11.63131,35.98245 11.60436,36.05864 -0.027,0.0762 -13.99808,10.27904 -31.04694,22.67301 l -30.99793,22.53448 38.41736,0.043 38.41737,0.0429 11.72255,36.15193 c 6.4474,19.88356 11.78044,36.21614 11.8512,36.29462 0.15739,0.1746 -0.5256,2.2466 12.09013,-36.67823 5.72331,-17.65884 10.67698,-32.93095 11.00815,-33.93802 l 0.60213,-1.83103 h 38.32411 c 23.00396,0 38.30141,-0.0621 38.26731,-0.1553 -0.0312,-0.0855 -13.93005,-10.23963 -30.88628,-22.56491 -16.95624,-12.32529 -30.85054,-22.50706 -30.87622,-22.62619 -0.0256,-0.11911 5.23847,-16.50329 11.69808,-36.40929 6.45963,-19.90599 11.72098,-36.21651 11.69188,-36.2456 -0.029,-0.029 -13.91612,10.03041 -30.86007,22.35443 -16.94396,12.32403 -30.92216,22.38055 -31.06269,22.34783 -0.14052,-0.0328 -14.0138,-10.05992 -30.82951,-22.28267 -16.81572,-12.22274 -30.67806,-22.28519 -30.80519,-22.361 -0.17981,-0.10725 -0.20362,-0.048 -0.10716,0.26672 z m 32.78597,28.39348 c 13.72424,9.96888 25.08535,18.25051 25.24691,18.40361 0.27465,0.26029 -0.60489,0.93198 -13.5233,10.32739 -18.26561,13.28436 -17.51548,12.74518 -17.60595,12.65471 -0.0435,-0.0436 -4.06696,-12.37477 -8.94093,-27.40274 -4.87398,-15.028 -9.23753,-28.45536 -9.69677,-29.8386 -0.45925,-1.38326 -0.74457,-2.45979 -0.63407,-2.39231 0.11051,0.0675 11.42986,8.27906 25.15411,18.24794 z m 83.24737,-17.9821 c -0.044,0.1171 -4.39915,13.5305 -9.67827,29.80756 -5.2791,16.27704 -9.6442,29.59463 -9.70022,29.59463 -0.15981,0 -31.24699,-22.63875 -31.28345,-22.78167 -0.0353,-0.13834 50.35552,-36.81589 50.59585,-36.8268 0.0803,-0.004 0.11002,0.0892 0.066,0.20628 z m -37.40983,51.31829 c 9.21706,6.70188 16.73865,12.27802 16.71463,12.39142 -0.024,0.11342 -2.9049,9.02071 -6.40194,19.79401 l -6.35824,19.58782 -20.76553,0.0409 -20.76551,0.0409 -6.38734,-19.70887 c -3.51303,-10.83988 -6.38733,-19.77216 -6.38733,-19.84951 0,-0.13381 33.27067,-24.44425 33.4887,-24.46975 0.0573,-0.007 7.6455,5.47115 16.86256,12.17304 z m -47.78784,33.34525 5.97817,18.428 -15.72541,0.0435 c -8.64898,0.0239 -22.83339,0.0239 -31.52094,0 l -15.79551,-0.0435 25.46043,-18.51032 c 14.00324,-10.18068 25.49748,-18.47327 25.54276,-18.42799 0.0453,0.0452 2.77251,8.37493 6.0605,18.51031 z m 93.83387,0.11765 25.17856,18.31035 -31.47673,0.043 c -17.31218,0.0236 -31.49834,0.0214 -31.52479,-0.005 -0.0414,-0.0414 11.57725,-35.95505 11.90444,-36.79699 0.10269,-0.26413 0.16466,-0.27641 0.42995,-0.0852 0.17052,0.12293 11.64037,8.46314 25.48857,18.53384 z m -43.54029,22.72499 c -0.10448,0.45837 -19.29811,59.51957 -19.33167,59.48601 -0.0723,-0.0723 -19.30287,-59.41641 -19.30287,-59.56719 0,-0.0993 7.35993,-0.1604 19.3448,-0.1604 16.61267,0 19.33705,0.0341 19.28974,0.24158 z"
         id="path193" /><path
         style="fill:#000000;stroke-width:0.118278"
         d="m 210.08493,230.43039 v -4.21269 l -0.32527,0.0699 c -0.17889,0.0384 -0.99832,0.13314 -1.82093,0.21043 -3.28836,0.30899 -6.58019,-0.33684 -9.74083,-1.91106 -1.84863,-0.92076 -3.37769,-2.02208 -4.84594,-3.49033 -1.47783,-1.47783 -2.57388,-3.00231 -3.50533,-4.87551 l -0.72048,-1.44892 h -4.6603 -4.6603 v -0.76881 -0.76881 h 4.38914 4.38914 l -0.083,-0.32527 c -0.91499,-3.586 -0.81314,-7.14244 0.30352,-10.59779 1.97054,-6.09757 7.1952,-10.81794 13.6516,-12.3339 1.33188,-0.31273 1.57967,-0.33318 4.02147,-0.33189 1.51264,8e-4 2.8126,0.0561 3.10482,0.13207 l 0.50268,0.13071 v -4.24547 -4.24546 h 0.76882 0.76881 v 4.40627 4.40628 l 0.79838,0.27557 c 5.9976,2.07011 10.52929,7.08283 12.04172,13.31991 1.40456,5.79219 -0.22021,12.05892 -4.31118,16.62818 -1.92012,2.14461 -4.76517,4.03612 -7.56949,5.03253 l -0.95943,0.34089 v 4.40792 4.40791 h -0.76881 -0.76882 z m -0.73925,-5.72461 0.73925,-0.14168 v -3.47659 -3.47659 h -3.66665 -3.66665 v 1.12366 1.12364 h -0.76881 -0.76881 v -2.95697 -2.95697 h 0.76881 0.76881 v 1.06451 1.06451 h 3.66665 3.66665 v -3.66664 -3.66665 h -1.41936 -1.41934 v 1.83332 c 0,1.00833 -0.0406,1.83333 -0.0901,1.83333 -0.0495,0 -0.91384,-0.825 -1.92059,-1.83333 -1.47897,-1.48127 -1.8932,-1.83332 -2.15716,-1.83332 h -0.32671 v 1.12365 1.12365 h -0.76881 -0.76881 v -2.95697 -2.95698 h 0.76881 0.76881 v 1.12366 1.12365 h 0.32397 c 0.26083,0 0.69874,-0.37427 2.24729,-1.92069 l 1.92334,-1.92068 v 1.86154 1.86155 h 2.18817 2.18815 v 8.45694 c 0,6.89455 0.0286,8.45693 0.15499,8.45693 0.27213,0 1.59893,-0.56127 2.65558,-1.12337 4.48979,-2.38844 7.6514,-6.68875 8.68686,-11.81558 0.33918,-1.67943 0.33918,-4.61451 0,-6.29394 -1.03546,-5.12683 -4.19707,-9.42714 -8.68686,-11.81558 -1.05665,-0.5621 -2.38345,-1.12337 -2.65558,-1.12337 -0.12472,0 -0.15499,0.77394 -0.15499,3.96234 v 3.96234 h -4.43546 -4.43546 v 1.12365 1.12365 h -0.76881 -0.76881 v -2.95698 -2.95696 h 0.76881 0.76881 v 1.12364 1.12365 h 3.66665 3.66665 v -3.4764 -3.4764 l -0.26613,-0.064 c -1.6646,-0.39984 -4.98651,-0.39125 -6.88974,0.0178 -3.36435,0.7231 -6.00424,2.16586 -8.46431,4.62595 -2.06413,2.06413 -3.25347,3.9673 -4.13488,6.61665 -0.65966,1.98279 -0.86426,3.27861 -0.86133,5.45517 0.002,1.77505 0.16966,3.00456 0.63158,4.64243 l 0.12508,0.44356 h 3.66109 3.66107 v -5.91394 -5.91394 h 0.76882 0.76882 v 6.62361 6.62361 h -4.13976 c -2.27687,0 -4.13977,0.0279 -4.13977,0.0621 0,0.18882 0.90797,1.81619 1.54303,2.76561 2.58903,3.87066 6.74942,6.52525 11.41304,7.28227 1.23158,0.19991 4.41042,0.16681 5.58414,-0.0581 z"
         id="path191" /><circle
         id="path551"
         style="fill:#000000;stroke:#000000;stroke-width:0.264583"
         cx="415.14706"
         cy="135.18723"
         r="0.016790772" /><path
         style="fill:#000000;stroke-width:0.698719"
         d="m 29.571666,326.13197 c -3.95181,-1.67635 -6.937159,-4.34647 -9.069864,-8.11211 -1.724346,-3.0447 -2.051954,-4.40298 -2.040298,-8.45921 0.01604,-5.57859 -0.713646,-4.01929 11.629184,-24.85085 4.949011,-8.35263 16.89423,-28.54396 26.544917,-44.86958 9.650713,-16.32563 19.679687,-33.25529 22.286642,-37.62142 2.606928,-4.36617 9.682763,-16.32564 15.724029,-26.5766 6.041294,-10.25102 15.030084,-25.47215 19.975084,-33.8248 4.945,-8.35264 12.6691,-21.39933 17.16469,-28.99265 7.57198,-12.78952 24.17308,-40.866854 40.81497,-69.030134 19.28804,-32.641364 17.81231,-30.535526 23.3542,-33.32584 6.66654,-3.3566258 16.15846,-1.9335658 21.03086,3.153019 0.98542,1.028759 8.86567,13.829936 17.51162,28.447061 8.64594,14.617127 20.5079,34.653124 26.35988,44.524456 5.85199,9.871309 12.92809,21.830768 15.72468,26.576588 2.79657,4.74581 6.93047,11.73513 9.18647,15.53179 2.25595,3.79666 7.12776,12.02849 10.82622,18.29297 3.69845,6.2645 13.62201,23.03883 22.05235,37.2763 8.43033,14.23746 22.49856,38.00107 31.26268,52.80804 43.157,72.91357 40.09451,67.41094 40.14752,72.13649 0.0716,6.38015 -4.0447,13.09397 -9.83948,16.04871 l -3.72461,1.89915 -172.30889,-0.0271 C 57.175477,327.11275 31.537333,326.96587 29.571666,326.1319 Z M 375.25464,315.76624 c 2.56422,-1.29428 3.52203,-2.9774 3.52203,-6.18924 0,-1.98932 -3.18153,-7.86731 -15.81045,-29.21061 -8.69574,-14.69608 -24.81382,-41.9413 -35.81787,-60.54491 -11.0041,-18.60363 -23.0432,-38.95026 -26.75352,-45.21475 C 270.93025,124.85924 230.37529,56.281665 220.58656,39.652807 214.99923,30.161165 209.62022,21.696326 208.63318,20.842081 c -2.64054,-2.28526 -6.89889,-2.129004 -9.40635,0.345147 -1.05812,1.044102 -5.36743,7.800427 -9.57622,15.014063 -4.2088,7.213661 -9.33094,15.911459 -11.38254,19.328456 -2.05164,3.416972 -6.6612,11.182883 -10.24352,17.257526 -3.58229,6.074645 -7.72447,13.063956 -9.20488,15.53177 -1.4804,2.46784 -9.66776,16.291117 -18.19412,30.718417 -8.52638,14.4273 -18.50163,31.29437 -22.16719,37.48244 -3.66558,6.18802 -7.24894,12.24544 -7.96304,13.46087 -4.63402,7.8873 -8.98705,15.24718 -21.517021,36.37984 -12.90529,21.76558 -29.769982,50.27436 -51.33544,86.7795 -8.458194,14.31768 -9.39159,16.83188 -7.517581,20.24963 1.955831,3.56694 -8.56509,3.36167 173.821502,3.39146 149.60684,0.0235 169.48187,-0.0934 171.30786,-1.01496 z"
         id="path565"
         sodipodi:nodetypes="sssssssssssssssssssssccsssssssssssssssssssscs" /><text
         xml:space="preserve"
         style="font-size:16.9333px;font-family:'Franklin Gothic Heavy';-inkscape-font-specification:'Franklin Gothic Heavy, ';text-align:center;text-anchor:middle;fill:#000000;stroke-width:0.264583"
         x="204.22731"
         y="363.09802"
         id="text621"><tspan
           sodipodi:role="line"
           id="tspan619"
           style="font-size:25.4px;stroke-width:0.264583"
           x="204.22731"
           y="363.09802">CAUTION</tspan><tspan
           sodipodi:role="line"
           style="stroke-width:0.264583"
           x="204.22731"
           y="387.12964"
           id="tspan623">CURSED TECHNOLOGY INSIDE</tspan></text></g></g></svg>
