<?xml version="1.0" encoding="UTF-8" standalone="no"?>
<!-- Created with Inkscape (http://www.inkscape.org/) -->

<svg
   width="193.41039mm"
   height="155.26474mm"
   viewBox="0 0 193.41039 155.26474"
   version="1.1"
   id="svg1"
   xml:space="preserve"
   xmlns="http://www.w3.org/2000/svg"
   xmlns:svg="http://www.w3.org/2000/svg"><defs
     id="defs1" /><g
     id="layer1"
     transform="translate(-399.79585,-206.01559)"><g
       label="Layer 1"
       id="imagebot_2"
       transform="matrix(0.26458333,0,0,0.26458333,78.973481,193.49001)"><title
         id="title1">Layer 1</title><path
         style="fill:#ffffff;fill-opacity:1"
         d="m 1227.4559,632.30568 c -5.0619,-2.2988 -10.3987,-7.52366 -12.9622,-12.69018 -1.9015,-3.83237 -1.9367,-8.90804 -1.9367,-278.9034 0,-264.503099 0.07,-275.140449 1.8304,-278.679449 2.2484,-4.51948 7.6813,-10.22602 11.9662,-12.56897 3.032,-1.65786 21.7837,-1.76526 350.4523,-2.00724 346.4575,-0.25507 347.2586,-0.25105 351.5417,1.76225 5.3318,2.50624 10.9005,7.82512 13.3484,12.74967 1.8011,3.62317 1.861,12.59978 1.861,278.743739 0,269.99536 -0.035,275.07103 -1.9368,278.9034 -2.5634,5.16652 -7.9002,10.39138 -12.9621,12.69018 -3.9749,1.80518 -14.7633,1.86249 -350.6011,1.86249 -335.8378,0 -346.6262,-0.0573 -350.6011,-1.86249 z m 696.0785,-6.20897 c 5.0975,-1.41518 10.992,-7.30967 12.4072,-12.40716 1.5695,-5.65334 1.5695,-540.301559 0,-545.954909 -1.4152,-5.09749 -7.3097,-10.99198 -12.4072,-12.40716 -5.6605,-1.57149 -685.2943,-1.57149 -690.9549,0 -5.0975,1.41518 -10.992,7.30967 -12.4071,12.40716 -1.5056,5.42295 -1.5755,540.280609 -0.071,545.696399 1.3815,4.97448 5.4827,9.66115 10.4146,11.90139 3.8954,1.76945 16.4105,1.83633 346.5414,1.85213 246.8641,0.0118 343.6106,-0.29195 346.4774,-1.08785 z m -523.2745,-71.86833 c 0,0 -10.7122,-6.34399 -12.1604,-11.55889 -0.5958,-2.14554 -1.0491,-14.22772 -1.0522,-28.051 -0.01,-25.95187 0.4477,-28.87001 5.2921,-34.04155 5.1817,-5.5316 15.9735,-6.86512 23.6819,-2.92633 5.1867,2.65028 7.8113,5.93062 9.0629,11.32739 1.3097,5.64706 1.1831,48.06981 -0.1579,52.90006 -1.4152,5.09749 -7.3097,10.99198 -12.4072,12.40716 -4.5839,1.2726 -12.2592,-0.0568 -12.2592,-0.0568 z m 9.2104,-14.3992 c 1.3354,-1.33543 1.5714,-4.9497 1.5714,-24.06574 0,-13.59356 -0.4096,-23.25968 -1.0352,-24.42857 -1.1571,-2.16212 -4.9277,-2.57138 -6.7648,-0.73426 -0.866,0.86596 -1.2,7.81118 -1.2,24.95031 0,21.56437 0.1611,23.84412 1.75,24.76959 2.4686,1.43784 3.8707,1.31653 5.6786,-0.49133 z m 96.6942,14.56935 c 0,0 -8.3064,-3.99583 -10.8728,-9.01836 -2.196,-4.29758 -2.25,-5.17885 -2.25,-36.69145 v -32.28811 h 7.5 7.5 v 31.46481 c 0,30.08489 0.085,31.51022 1.9342,32.5 2.6279,1.4064 3.6516,1.30649 5.4944,-0.53624 1.3608,-1.36083 1.5714,-5.71645 1.5714,-32.5 v -30.92857 h 7 7 l -0.022,32.25 c -0.02,29.14793 -0.1987,32.63475 -1.8588,36.25 -3.8996,8.49226 -22.9964,9.49792 -22.9964,9.49792 z m -165.1228,-38.99792 v -39 h 8.9326 c 7.648,0 9.0053,0.25166 9.438,1.75 0.9712,3.3624 7.4831,27.76718 7.9383,29.75 0.2525,1.1 0.5113,-5.5375 0.5751,-14.75 l 0.116,-16.75 h 7 7 v 39.04206 39.04207 l -7.7268,-0.29207 -7.7268,-0.29206 -2.7811,-10.5 c -1.5296,-5.775 -4.1064,-15.45 -5.7263,-21.5 l -2.9453,-11 -0.047,21.75 -0.047,21.75 h -7 -7 z m 108,0 v -39 l 13.25,0.0165 c 15.8865,0.0198 19.732,1.4842 23.5,8.94955 2.1568,4.27309 2.2491,5.49511 2.228,29.49589 -0.019,22.1487 -0.2339,25.49971 -1.8587,29.03811 -3.8187,8.31592 -8.8618,10.39443 -25.3693,10.4561 l -11.75,0.0439 z m 22.8963,23.62496 c 0.8008,-0.9649 1.061,-8.34723 0.8724,-24.75 l -0.2687,-23.37496 -4.25,-0.3075 -4.25,-0.3075 v 25.0575 25.0575 h 3.3775 c 1.8577,0 3.8911,-0.61877 4.5188,-1.37504 z m 65.1037,-23.66118 v -39.03621 l 9.671,0.28621 9.671,0.28622 3.579,21.89298 3.579,21.89298 2.8245,-19.89298 c 1.5535,-10.94114 3.0648,-20.90548 3.3584,-22.14298 0.508,-2.14085 1.0017,-2.25 10.1755,-2.25001 l 9.6416,-10e-6 -0.2231,38.75001 -0.2231,38.75001 -7.0269,0.29381 -7.0269,0.29381 -0.1136,-15.79381 -0.1136,-15.79381 -1.3701,9 c -0.7535,4.95001 -1.8682,12.03749 -2.4768,15.75 l -1.1066,6.75 h -6.8028 -6.8028 l -1.0567,-5.99872 c -0.5812,-3.29928 -1.8667,-11.0618 -2.8568,-17.25 l -1.8002,-11.25128 -0.2736,17.25 -0.2736,17.25 h -6.4764 -6.4764 z m 59,0.0765 v -39.19141 l 13.9307,0.32558 c 12.2072,0.2853 14.2718,0.58066 16.6882,2.38738 5.9824,4.47304 6.8811,6.74968 6.8811,17.43231 0,8.75385 -0.2589,10.19103 -2.3435,13.00945 -2.3121,3.12595 -2.318,3.19748 -0.4409,5.33245 3.3211,3.77724 4.2844,7.51977 4.2844,16.64595 0,9.61136 -0.9234,13.21866 -4.3166,16.86306 -4.3426,4.66401 -7.4294,5.52335 -21.4334,5.96694 l -13.25,0.41971 z m 22.8,23.75976 c 0.7273,-0.72728 1.2,-4.25885 1.2,-8.96482 0,-8.45339 -0.904,-9.83518 -6.4343,-9.83518 h -2.5657 v 10 10 h 3.3 c 1.815,0 3.84,-0.54 4.5,-1.2 z m -0.8725,-34.21273 c 0.7052,-0.84963 1.0529,-3.9386 0.8725,-7.75 l -0.3,-6.33731 -3.75,-0.31037 -3.75,-0.31036 v 8.06036 8.06037 h 2.8775 c 1.5827,0 3.4052,-0.63571 4.05,-1.41269 z m 36.8081,48.81492 c -0.3288,-0.32877 -0.4168,-1.11627 -0.1956,-1.75 0.2212,-0.63373 2.8966,-16.90223 5.9452,-36.15223 3.0486,-19.25 5.7702,-36.0125 6.0479,-37.25 0.4824,-2.14932 0.9516,-2.25 10.4859,-2.25 5.4896,0 9.981,0.17771 9.981,0.39491 0,0.21721 2.5173,16.07971 5.5939,35.25 3.0767,19.1703 5.836,36.54258 6.1317,38.60509 l 0.5377,3.75 h -7.5704 -7.5704 l -0.6158,-4.75 c -1.2596,-9.71582 -0.8859,-9.25 -7.4243,-9.25 h -5.8794 l -0.703,7 -0.703,7 h -6.7318 c -3.7026,0 -7.0009,-0.269 -7.3296,-0.59777 z m 25.214,-27.15223 c -0.028,-0.4125 -0.8641,-6.15 -1.8589,-12.75 -1.7632,-11.69918 -1.8267,-11.87466 -2.5326,-7 -0.3982,2.75 -1.2954,8.48751 -1.9939,12.75 l -1.2699,7.75 h 3.8529 c 2.119,0 3.8301,-0.3375 3.8024,-0.75 z m 22.0504,-11.25 v -39 l 13.25,0.002 c 15.0017,0.002 18.6047,1.09464 22.4144,6.79891 4.3919,6.57591 4.061,23.56324 -0.586,30.08936 -1.3106,1.84063 -1.7248,3.21067 -1.0894,3.60338 3.0367,1.87681 4.3817,7.39243 5.0004,20.5068 0.3503,7.425 0.9942,14.2875 1.4308,15.25 0.7203,1.58803 0.043,1.75 -7.3132,1.75 -4.4589,0 -8.1629,-0.1125 -8.2312,-0.25 -0.068,-0.1375 -0.4058,-6.47389 -0.75,-14.08087 -0.5481,-12.11274 -0.8669,-14.00716 -2.5669,-15.25 -1.0677,-0.78052 -2.9802,-1.41913 -4.25,-1.41913 h -2.3089 v 15.5 15.5 h -7.5 -7.5 z m 23.0247,-8.5651 c 0.5364,-1.41081 0.9753,-4.53151 0.9753,-6.9349 0,-7.15413 -1.352,-9.5 -5.4753,-9.5 h -3.5247 v 9.5 9.5 h 3.5247 c 2.8635,0 3.7078,-0.48125 4.5,-2.5651 z m 20.9753,8.58817 v -39.02307 h 17.7884 17.7885 l -0.05,6.75 -0.05,6.75 -10.2388,0.28498 -10.2389,0.28498 v 8.46502 8.46502 h 7.9179 7.918 l 0.332,7.00225 0.3321,7.00225 -8.25,-0.002 -8.25,-0.002 v 9.5 9.5 h 10.3395 10.3395 l -0.089,6.75 -0.09,6.75 -17.75,0.27307 -17.75,0.27308 z m 37.4232,36.27254 c 0.6905,-3.20556 6.4252,-38.72751 9.7745,-60.54561 l 2.2643,-14.75 h 10.269 c 5.6479,0 10.269,0.38848 10.269,0.86328 0,0.47481 2.7,17.86133 6,38.63672 3.3,20.77538 6,37.9369 6,38.13671 0,0.19981 -3.3393,0.36329 -7.4206,0.36329 -8.32,0 -7.5118,0.86466 -9.1138,-9.75 l -0.6414,-4.25 h -5.7952 -5.7951 l -0.867,6.75 -0.8669,6.75 -7.3395,0.29561 -7.3395,0.29562 z m 25.3083,-25.55282 c -0.2653,-0.69147 -1.075,-6.10589 -1.7993,-12.03205 -0.7243,-5.92616 -1.6179,-10.19792 -1.9859,-9.49279 -0.368,0.70513 -1.2351,5.54746 -1.9268,10.76074 -0.6918,5.21328 -1.4773,10.05078 -1.7457,10.75 -0.347,0.90446 0.7282,1.27131 3.7262,1.27131 2.9732,0 4.0719,-0.37017 3.7315,-1.25721 z m -484.2729,-81.55939 c -10.182,-4.78394 -11.7545,-10.562 -11.2911,-41.4893 0.3085,-20.593 0.4937,-22.51874 2.5677,-26.6941 2.782,-5.601 7.5113,-8.88711 13.8705,-9.63785 9.7242,-1.14801 19.2251,3.93782 21.4469,11.48059 0.6889,2.33883 0.9637,13.2393 0.7623,30.23737 l -0.3149,26.58011 -2.8017,3.67094 c -3.6247,4.74924 -7.6879,6.78481 -14.6105,7.31947 -4.1045,0.31702 -6.6606,-0.0725 -9.6292,-1.46723 z m 11.3414,-13.3834 c 0.8657,-0.86576 1.2,-7.79502 1.2,-24.87756 0,-25.70377 -0.2398,-26.83202 -5.4263,-25.53029 -3.3679,0.84527 -3.8028,4.60526 -3.4016,29.40815 0.2698,16.68374 0.5936,20.44316 1.8279,21.22226 2.0589,1.29962 4.3663,1.21107 5.8,-0.22256 z m 96.7,13.75891 c -5.0626,-1.86702 -9.0864,-6.3093 -10.5127,-11.60588 -0.719,-2.67029 -1.0008,-13.00068 -0.7991,-29.28917 0.2883,-23.26502 0.4668,-25.42771 2.3659,-28.66047 3.9393,-6.70587 11.8215,-9.92396 20.953,-8.55459 5.6945,0.85394 10.3224,4.09959 12.9059,9.0512 1.9629,3.76207 2.087,5.57624 2.087,30.5 0,29.98669 -0.4001,31.9202 -7.5897,36.67802 -4.7635,3.15234 -13.6323,4.01175 -19.4103,1.88089 z m 11.3,-13.75891 c 0.8655,-0.86554 1.2,-7.77778 1.2,-24.8 0,-24.77922 -0.2113,-26 -4.5,-26 -4.2887,0 -4.5,1.22078 -4.5,26 0,24.77921 0.2113,26 4.5,26 1.155,0 2.64,-0.54 3.3,-1.2 z m 135.1136,14.30379 c -4.5924,-1.4974 -7.9787,-4.3156 -10.2212,-8.50655 -2.1069,-3.93746 -2.2051,-5.37444 -2.5151,-36.84724 l -0.3226,-32.75 7.8226,-7.6e-4 7.8227,-7.5e-4 -0.3046,28.75075 c -0.1675,15.81292 -0.035,30.20963 0.2938,31.9927 0.4358,2.36085 1.2695,3.41037 3.0676,3.86167 5.3623,1.34584 5.4432,0.85182 5.4432,-33.22606 v -31.37755 h 7.5507 7.5506 l -0.3006,32.75 c -0.3387,36.90573 -0.5533,38.07261 -7.8904,42.92802 -4.1087,2.71901 -13.2985,3.95769 -17.9967,2.42577 z m -308.9136,-39.10379 v -39 h 12.6843 c 14.8509,0 19.6585,1.59808 23.528,7.82095 2.1987,3.53588 2.3,4.65117 2.6029,28.66024 0.3511,27.82004 -0.179,31.5495 -5.1682,36.36112 -4.631,4.46619 -7.4749,5.15769 -21.2121,5.15769 h -12.4349 z m 22.8,23.8 c 1.7023,-1.70231 1.7023,-45.8977 0,-47.6 -0.66,-0.66 -2.685,-1.2 -4.5,-1.2 h -3.3 v 25 25 h 3.3 c 1.815,0 3.84,-0.54 4.5,-1.2 z m 82.2,-23.8 v -39 h 8.8753 8.8752 l 3.0884,11.25 c 1.6986,6.18752 3.7502,13.725 4.559,16.75 1.4591,5.45747 1.4708,5.3705 1.5363,-11.25 l 0.066,-16.75 h 7 7 v 39.04206 39.04207 l -7.7012,-0.29207 -7.7011,-0.29206 -2.82,-10.5 c -1.551,-5.775 -4.1394,-15.45 -5.752,-21.5 l -2.932,-11 -0.047,21.75 -0.047,21.75 h -7 -7 z m 99,7 v -32 h -6 -6 v -7 -7 h 20 20 v 7 7 h -6.5272 -6.5271 l 0.2771,32.0005 0.2772,32.00051 -7.75,-5.1e-4 -7.75,-5e-4 z m 48,-7 v -39 l 12.75,0.022 c 18.3072,0.0316 23.7985,2.98274 26.1758,14.06783 1.3931,6.49556 1.3931,43.32485 0,49.82041 -2.3773,11.08509 -7.8686,14.03624 -26.1758,14.06783 l -12.75,0.022 z m 23.9648,23.06574 c 0.6199,-1.15829 1.0352,-10.41162 1.0352,-23.06574 0,-12.65412 -0.4153,-21.90746 -1.0352,-23.06574 -0.7562,-1.41305 -2.1036,-1.93426 -5,-1.93426 h -3.9648 v 25 25 h 3.9648 c 2.8964,0 4.2438,-0.52122 5,-1.93426 z m 64.0352,-23.06574 v -39 h 10 c 5.5,0 10,0.3658 10,0.81289 0,0.4471 1.35,9.0073 3,19.02269 1.65,10.01538 3.0137,19.43708 3.0304,20.9371 0.073,6.56416 1.8445,-1.46501 4.5273,-20.52268 l 2.8507,-20.25 h 9.7958 9.7958 v 39 39 h -7 -7 l -0.1096,-16.75 c -0.117,-17.8821 -0.3619,-17.59537 -3.4173,4 l -1.8039,12.75 h -7.0988 -7.0988 l -2.6312,-16.25 -2.6311,-16.25 -0.1047,16.25 -0.1046,16.25 h -7 -7 z m 59,0 v -39 h 12.4798 c 14.073,0 19.2267,1.37473 22.5265,6.00883 4.7647,6.69141 5.0298,20.71154 0.5175,27.36093 l -2.3425,3.45192 2.3113,2.1714 c 4.1389,3.88833 5.887,17.4976 3.3987,26.45999 -1.4034,5.05502 -6.3832,10.03484 -11.4382,11.43827 -2.1742,0.60363 -9.2406,1.09978 -15.7031,1.10308 l -11.75,0.006 z m 23.9648,23.06574 c 0.5694,-1.06384 1.0352,-4.66384 1.0352,-8 0,-7.06191 -2.089,-10.06574 -7,-10.06574 h -3 v 10 10 h 3.9648 c 2.8964,0 4.2438,-0.52122 5,-1.93426 z m -0.5384,-36.31574 c 0.5684,-2.30128 0.5684,-5.19872 0,-7.5 -0.8435,-3.41439 -1.262,-3.77778 -4.6764,-4.06037 l -3.75,-0.31036 v 8.12073 8.12073 l 3.75,-0.31037 c 3.4144,-0.28259 3.8329,-0.64598 4.6764,-4.06036 z m 38.5736,13.25 v -39 h 7.5 7.5 v 16 16 h 5 5 v -16 -16 h 8 8 v 39 39 h -8 -8 v -16 -16 h -5 -5 v 16 16 h -7.5 -7.5 z m 47,0 v -39 h 17.5 17.5 v 7 7 h -10 -10 v 8.75 8.75 l 8.0023,-0.32615 8.0024,-0.32615 v 7.32615 7.32615 l -8.0024,-0.32615 -8.0023,-0.32615 v 9.57615 9.57615 h 10 10 v 7 7 h -17.5 -17.5 z m 40,0 v -39 h 12.4797 c 19.0247,0 23.6336,2.73456 25.7702,15.28997 1.3641,8.0162 0.2611,16.67785 -2.6746,21.00396 -2.2091,3.25522 -2.2285,3.46256 -0.5421,5.79108 2.8669,3.95849 3.9553,9.79206 3.9612,21.23073 0,5.94866 0.4714,11.68616 1.0408,12.75 0.9835,1.83775 0.6342,1.93426 -7,1.93426 -4.4194,0 -8.0864,-0.1125 -8.1489,-0.25 -0.062,-0.1375 -0.421,-6.436 -0.7967,-13.99667 -0.3756,-7.56067 -1.112,-14.13866 -1.6363,-14.61776 -0.5243,-0.47911 -2.4158,-1.14436 -4.2033,-1.47834 l -3.25,-0.60723 v 15.475 15.475 h -7.5 -7.5 z m 22.4038,-7.00387 c 1.4361,-1.4361 1.9306,-12.08211 0.7082,-15.24613 -0.8805,-2.27892 -1.6663,-2.75 -4.5873,-2.75 h -3.5247 v 10.125 10.125 l 3.2187,-0.64375 c 1.7703,-0.35406 3.6536,-1.07862 4.1851,-1.61012 z m 21.5962,7.00387 v -39 h 17.8322 17.8321 l 0.051,7 0.051,7 h -10.3832 -10.3831 v 8.75 8.75 l 8.0023,-0.32615 8.0024,-0.32615 v 6.57615 7.22398 c 0,0.3563 -3.6022,0.55271 -8,0.43646 l -7.9961,-0.21137 v 9.56354 9.56354 h 10.3333 10.3333 v 7 7 h -17.8333 -17.8333 z M 1227.057,242.2121 c 0,-25.84536 0.173,-29 1.5906,-29 0.8748,0 20.5623,2.9454 43.75,6.54533 23.1877,3.59993 53.6344,8.30018 67.6594,10.44501 43.5498,6.66 206.6918,31.87907 222.6852,34.42344 l 15.1852,2.41581 15.3148,-2.37216 c 22.6877,-3.51417 214.9501,-33.24269 278.0691,-42.99635 30.1148,-4.6536 55.4273,-8.46108 56.25,-8.46108 1.2932,0 1.4957,3.92594 1.4957,29 v 29 h -351 -351 z m 516.7734,-34.37174 c -10.8291,-4.80284 -15.4468,-18.65097 -14.506,-43.50217 0.7789,-20.57384 4.7346,-30.08801 14.784,-35.55757 4.6119,-2.51009 5.8555,-2.73551 13.3417,-2.41832 7.0483,0.29863 8.8796,0.76269 12.52,3.17268 4.6467,3.07603 8.6827,10.34091 9.2652,16.67712 l 0.3217,3.5 -7.1572,0.15145 -7.1572,0.15146 -0.6247,-3.3301 c -1.0075,-5.36998 -3.709,-7.92736 -8.3743,-7.92736 -8.6857,0 -11.6475,7.47475 -11.6711,29.45455 -0.024,21.9528 2.6718,28.46242 11.5163,27.81327 5.965,-0.43781 7.7882,-3.203 8.6132,-13.06327 l 0.6485,-7.75 h -5.6468 -5.6467 v -6.5 -6.5 h 13 13 v 23 23 h -6 -6 v -3.18709 -3.1871 l -2.75,2.62348 c -1.5125,1.44291 -4.0168,3.1021 -5.5651,3.68709 -3.6843,1.39201 -12.4614,1.22205 -15.9115,-0.30812 z m -352.2307,-0.83416 c -0.2356,-0.71176 -1.78,-8.4941 -3.4321,-17.2941 -6.6632,-35.49401 -11.2144,-59.09279 -11.7158,-60.75 -0.4734,-1.56446 0.3144,-1.75 7.4308,-1.75 5.516,0 8.1102,0.39029 8.4481,1.271 0.2683,0.69905 1.9145,11.83655 3.6583,24.75 1.7438,12.91345 3.4554,25.054 3.8035,26.979 0.5546,3.06628 0.6815,3.1902 1.024,1 0.5296,-3.38632 9.1241,-48.92492 9.7667,-51.75 0.4697,-2.06452 1.0765,-2.25 7.3612,-2.25 h 6.8492 l 0.5412,3.75 c 0.2976,2.0625 2.3818,13.41279 4.6316,25.22288 2.2498,11.81009 4.0906,22.72259 4.0906,24.25 0,1.52741 0.45,2.77712 1,2.77712 0.55,0 0.9797,-1.0125 0.9549,-2.25 -0.025,-1.2375 1.6597,-13.8375 3.7433,-28 l 3.7883,-25.75 h 7.2568 c 5.5283,0 7.2567,0.33105 7.2567,1.38992 0,0.76445 -0.9241,5.82695 -2.0536,11.25 -1.1295,5.42304 -4.0547,19.76008 -6.5005,31.86008 -2.4458,12.1 -5.1524,25.2625 -6.0146,29.25 l -1.5677,7.25 h -7.4318 c -4.0875,0 -7.4318,-0.38667 -7.4318,-0.85925 0,-0.47259 -2.025,-11.53617 -4.5,-24.58573 -2.475,-13.04956 -4.5,-24.8129 -4.5,-26.14075 0,-3.6826 -1.9903,-2.87824 -2.0679,0.83573 -0.037,1.7875 -2.1859,13.825 -4.7744,26.75 l -4.7065,23.5 -7.2401,0.2941 c -5.247,0.21314 -7.358,-0.0621 -7.6684,-1 z m 63.9231,-0.68653 c 0.6371,-2.00721 11.8949,-50.10575 15.59,-66.60757 1.1084,-4.95 2.2596,-9.80337 2.5583,-10.78527 0.4803,-1.57892 1.6515,-1.75229 10.1335,-1.5 l 9.5905,0.28527 8.7751,37.5 c 4.8263,20.625 9.061,38.7375 9.4104,40.25 l 0.6353,2.75 h -7.8886 -7.8886 l -1.9409,-10.06246 -1.9408,-10.06246 -9.1078,-0.18754 -9.1078,-0.18754 -1.9016,10 -1.9017,10 -7.8217,0.29352 c -7.4025,0.27779 -7.7881,0.18742 -7.1936,-1.68595 z m 32.7718,-38.93466 c -0.7645,-3.6701 -2.1637,-10.93824 -3.1093,-16.15141 l -1.7193,-9.4785 -2.7607,14.4785 c -1.5184,7.96317 -2.982,15.3785 -3.2523,16.4785 -0.4587,1.86608 -0.066,1.9781 5.87,1.67291 l 6.3617,-0.32709 z m 29.7624,0.32709 v -40.5 h 14.5572 c 17.4719,0 22.365,1.05139 27.4446,5.89703 4.2276,4.03285 5.9841,8.93701 5.9926,16.73084 0.01,6.48335 -2.0007,11.31882 -6.2007,14.93354 l -3.2937,2.83468 3.1604,3.11236 c 4.1204,4.05779 5.0761,8.20873 5.5905,24.28209 l 0.4254,13.29054 -7.0814,-0.29054 c -6.9736,-0.28612 -7.0911,-0.33623 -7.7198,-3.29054 -0.3512,-1.65 -0.6917,-7.58321 -0.7568,-13.1849 -0.1766,-15.20252 -1.0906,-16.63043 -11.4178,-17.8367 l -5.7005,-0.66585 v 17.59372 17.59373 h -7.5 -7.5 z m 30.0769,-9.42308 c 2.5206,-2.5206 2.9231,-3.67872 2.9231,-8.41111 0,-4.90059 -0.3293,-5.76514 -3.0767,-8.07692 -2.5522,-2.14752 -4.0866,-2.58889 -9,-2.58889 h -5.9233 v 11 11 h 6.0769 c 5.3833,0 6.4106,-0.33366 9,-2.92308 z m 28.8763,49.17308 c -0.026,-0.4125 -0.1383,-18.63747 -0.25,-40.49993 l -0.2032,-39.74992 8.5,0.0114 8.5,0.0114 9.2934,25.23853 c 5.1114,13.88119 9.6114,26.0388 10,27.01691 0.3886,0.9781 0.5672,-10.3844 0.3969,-25.25 l -0.3096,-27.02838 6.8096,-10e-6 6.8097,-1e-5 -0.2244,40.25001 -0.2244,40.25001 -7.8989,0.28839 c -6.8719,0.2509 -7.9672,0.0559 -8.4234,-1.5 -0.5246,-1.78855 -18.2143,-51.20977 -19.5313,-54.56611 -0.3837,-0.97774 -0.5656,11.28476 -0.4043,27.25 l 0.2932,29.02772 h -6.5432 c -3.5988,0 -6.5644,-0.3375 -6.5901,-0.75 z m 63.0468,-39.75 v -40.5 h 7.5 7.5 v 40.5 40.5 h -7.5 -7.5 z m 28,-0.0389 v -40.53893 l 8.7122,0.28893 8.7123,0.28894 9.2877,24.94852 c 5.1083,13.72168 9.2878,25.50762 9.2878,26.19098 0,0.68335 0.3375,1.45146 0.75,1.7069 0.4125,0.25545 0.6234,-11.64299 0.4686,-26.44098 l -0.2814,-26.90542 h 6.5314 6.5314 v 40.5 40.5 h -7.9022 c -7.715,0 -7.9255,-0.0652 -8.8876,-2.75 -0.542,-1.5125 -4.7997,-13.325 -9.4615,-26.25 -4.6618,-12.925 -8.8748,-24.74091 -9.3623,-26.25758 -0.5437,-1.69145 -0.7632,8.45735 -0.5678,26.25 l 0.3187,29.00758 h -7.0687 -7.0686 z m -441,-75.942009 v -29.51905 h 351 351 v 29.51905 29.519049 l -2.25,-0.49892 c -1.7608,-0.39044 -93.0693,-14.5262 -119.75,-18.53889 -3.025,-0.45494 -40.825,-6.297079 -84,-12.982509 -43.175,-6.68544 -83.9,-12.97631 -90.5,-13.97973 -6.6,-1.00341 -21.5165,-3.31117 -33.1478,-5.12836 l -21.1477,-3.30398 -62.8523,9.68495 c -34.5687,5.32672 -95.0272,14.66084 -134.3522,20.74249 -76.7675,11.872179 -98.2297,15.176249 -129.5,19.936299 -11,1.67445 -21.0125,3.2749 -22.25,3.55655 l -2.25,0.5121 z"
         id="path13-4" /></g></g><style
     id="style1">
text {
	font-family : Verdana, Tahoma, sans-serif;
	font-size : 11px;
	fill : black;
	stroke : none;
}
/* As at 20060630, Wikipedia's SVG rasteriser couldn't make use of these styles. Leave them in in case it improves. */
#percentage_numbers text {
	text-anchor : end;
}
#x_axis_numbers text {
	text-anchor : middle;
}
</style></svg>
