<?xml version="1.0" encoding="UTF-8" standalone="no"?>
<!-- Created with Inkscape (http://www.inkscape.org/) -->

<svg
   width="63.637371mm"
   height="113.9018mm"
   viewBox="0 0 63.637371 113.9018"
   version="1.1"
   id="svg1"
   xml:space="preserve"
   xmlns="http://www.w3.org/2000/svg"
   xmlns:svg="http://www.w3.org/2000/svg"><defs
     id="defs1" /><g
     id="layer1"
     transform="translate(-8.5858424,-172.65221)"><g
       id="g11"
       transform="translate(-65.690959,-19.172387)"><text
         xml:space="preserve"
         style="font-size:10.5833px;line-height:1.25;font-family:'Gkreator Inside Beta1';-inkscape-font-specification:'Gkreator Inside Beta1';fill:#ffffff;fill-opacity:1;stroke-width:0.264583"
         x="106.06903"
         y="199.6245"
         id="text1"><tspan
           id="tspan1"
           style="font-style:normal;font-variant:normal;font-weight:normal;font-stretch:normal;font-family:C059;-inkscape-font-specification:C059;text-align:center;text-anchor:middle;fill:#ffffff;fill-opacity:1;stroke-width:0.264583"
           x="106.06903"
           y="199.6245">DANGER</tspan><tspan
           style="font-style:normal;font-variant:normal;font-weight:normal;font-stretch:normal;font-family:C059;-inkscape-font-specification:C059;text-align:center;text-anchor:middle;fill:#ffffff;fill-opacity:1;stroke-width:0.264583"
           x="106.06903"
           y="214.75923"
           id="tspan2">RADIATION</tspan><tspan
           style="font-style:normal;font-variant:normal;font-weight:normal;font-stretch:normal;font-family:C059;-inkscape-font-specification:C059;text-align:center;text-anchor:middle;fill:#ffffff;fill-opacity:1;stroke-width:0.264583"
           x="106.06903"
           y="229.89397"
           id="tspan11" /><tspan
           style="font-style:normal;font-variant:normal;font-weight:normal;font-stretch:normal;font-family:C059;-inkscape-font-specification:C059;text-align:center;text-anchor:middle;fill:#ffffff;fill-opacity:1;stroke-width:0.264583"
           x="106.06903"
           y="245.02872"
           id="tspan3" /><tspan
           style="font-style:normal;font-variant:normal;font-weight:normal;font-stretch:normal;font-family:C059;-inkscape-font-specification:C059;text-align:center;text-anchor:middle;fill:#ffffff;fill-opacity:1;stroke-width:0.264583"
           x="106.06903"
           y="260.16345"
           id="tspan10" /><tspan
           style="font-style:normal;font-variant:normal;font-weight:normal;font-stretch:normal;font-family:C059;-inkscape-font-specification:C059;text-align:center;text-anchor:middle;fill:#ffffff;fill-opacity:1;stroke-width:0.264583"
           x="106.06903"
           y="275.29819"
           id="tspan4">DROP</tspan><tspan
           style="font-style:normal;font-variant:normal;font-weight:normal;font-stretch:normal;font-family:C059;-inkscape-font-specification:C059;text-align:center;text-anchor:middle;fill:#ffffff;fill-opacity:1;stroke-width:0.264583"
           x="106.06903"
           y="290.43292"
           id="tspan5">&amp;</tspan><tspan
           style="font-style:normal;font-variant:normal;font-weight:normal;font-stretch:normal;font-family:C059;-inkscape-font-specification:C059;text-align:center;text-anchor:middle;fill:#ffffff;fill-opacity:1;stroke-width:0.264583"
           x="106.06903"
           y="305.56766"
           id="tspan6">RUN</tspan></text><g
         id="g12"><path
           id="path34-0"
           d="m 110.38174,239.77181 h -0.95249 z m 0,0 -0.127,0.78317 -0.23283,0.67733 -0.35983,0.5715 -0.59267,0.55034 -0.59267,-0.67734 0.35984,-0.4445 0.23284,-0.44449 0.23282,-0.46568 0.12701,-0.55033 z m -1.31233,2.58233 -0.59267,0.46567 -0.71966,0.33866 -0.8255,0.21167 -0.84667,0.127 v -0.91017 l 0.71967,-0.10583 0.59266,-0.127 0.59267,-0.33867 0.48683,-0.33866 z m -2.9845,1.143 v -0.91017 z m 0,0 v -0.91017 z m 0,0 -0.8255,-0.127 -0.8255,-0.21167 -0.71967,-0.33866 -0.59265,-0.46567 0.59265,-0.67733 0.48684,0.33866 0.59266,0.33867 0.59267,0.127 0.6985,0.10583 z m -2.96332,-1.143 -0.59267,-0.55033 -0.35984,-0.5715 -0.23283,-0.67734 -0.12701,-0.78316 h 1.0795 v 0.55033 l 0.23285,0.46567 0.23282,0.4445 0.35983,0.4445 z m -1.31235,-2.58233 h 1.0795 z m 0,0 h 1.0795 z m 0,0 0.127,-0.80434 0.23284,-0.67733 0.35983,-0.67732 0.59267,-0.55035 0.59266,0.67734 -0.35983,0.4445 -0.23283,0.4445 -0.23284,0.5715 v 0.5715 z m 1.31235,-2.70934 0.59265,-0.46566 0.71967,-0.4445 0.8255,-0.23284 h 0.8255 v 0.91017 l -0.6985,0.10583 -0.59267,0.127 -0.59266,0.33867 -0.48684,0.33867 z m 2.96332,-1.143 v 0.91017 z m 0,0 v 0.91017 z m 0,0 h 0.84668 l 0.82549,0.23284 0.71967,0.4445 0.69849,0.46566 -0.69849,0.67734 -0.48683,-0.33867 -0.59267,-0.33867 -0.59267,-0.127 -0.71966,-0.10583 z m 3.09033,1.143 0.48684,0.55035 0.35983,0.67732 0.23283,0.67733 0.127,0.80434 h -0.95249 l -0.12701,-0.5715 -0.23283,-0.5715 -0.23283,-0.4445 -0.35984,-0.4445 z m 1.2065,2.70934 h -0.95249 0.95249"
           style="fill:#ffffff icc-color(sRGB-IEC61966-2, 0.1, 1, 1, 1);fill-opacity:1;fill-rule:nonzero;stroke:none;stroke-width:0.352778" /><path
           id="path28-8"
           d="m 114.76325,253.31847 -6.05367,-9.37683 0.82551,-0.4445 6.18065,9.37683 z m -5.82083,-10.05416 0.35982,-0.10584 0.23285,0.33867 -0.35985,0.21167 z m 0.35982,0.91016 -1.41816,0.4445 -0.35984,-0.91016 1.41818,-0.4445 z m -1.41816,0.4445 h -0.127 v -0.4445 z m -0.127,0 -1.67217,0.23284 v -0.91017 l 1.54517,-0.23283 z m -1.67217,0.23284 v -0.46567 z m 0,0 -1.65099,-0.23284 0.10583,-0.91016 1.54516,0.23283 z m -1.65099,-0.23284 h -0.127 l 0.127,-0.4445 z m -0.127,0 -1.41818,-0.4445 0.35985,-0.91016 1.41816,0.4445 z m -1.651,-1.12183 0.23283,-0.33867 0.35984,0.10584 -0.254,0.4445 z m 0.8255,0.4445 -6.074848,9.37683 -0.8255,-0.4445 6.074848,-9.37683 z m -6.773348,9.60967 -0.48683,-0.33867 0.35983,-0.33867 0.35984,0.21167 z m 0.46567,-0.91017 2.13783,1.016 -0.46566,0.91017 -2.13784,-1.016 z m 1.778,1.92617 h -0.10584 l 0.23284,-0.46567 z m 0.254,-0.91017 2.243678,0.67733 -0.33867,0.91017 -2.159008,-0.67733 z m 1.905008,1.5875 0.10584,-0.46567 z m 0.23284,-0.91017 2.49766,0.4445 -0.127,0.91017 -2.6035,-0.4445 z m 2.37066,1.4605 v -0.55033 z m 0.127,-1.016 2.24367,0.23284 v 0.91016 l -2.37067,-0.127 z m 2.24367,1.143 v -0.46566 z m 0,-0.91016 2.26483,-0.23284 0.127,1.016 -2.39183,0.127 z m 2.49767,0.67733 -0.10584,0.10583 v -0.55033 z m -0.23284,-0.91017 2.49767,-0.4445 0.23283,0.91017 -2.49766,0.4445 z m 2.7305,0.46567 -0.10583,-0.46567 z m -0.35983,-0.91017 2.26483,-0.67733 0.23284,0.91017 -2.13784,0.67733 z m 2.62467,0.23284 h -0.127 l -0.10584,-0.46567 z m -0.46567,-0.91017 2.13783,-1.016 0.46567,0.91017 -2.13783,1.016 z m 2.83633,-0.78317 0.254,0.33867 -0.48683,0.33867 -0.23283,-0.46567 0.46566,-0.21167"
           style="fill:#ffffff icc-color(sRGB-IEC61966-2, 0.1, 1, 1, 1);fill-opacity:1;fill-rule:nonzero;stroke:none;stroke-width:0.352778" /><path
           id="path30-4"
           d="m 114.89024,226.09815 -6.05366,9.37682 -0.84667,-0.4445 6.07483,-9.37682 z m -6.77333,9.48266 -0.35983,-0.21167 0.23283,-0.33867 0.35984,0.21167 z m 0.59267,-0.78317 1.18533,0.91017 -0.59267,0.78316 -1.18533,-0.91016 z m 1.18533,0.91017 h 0.127 v 0.10583 l -0.35983,0.23283 z m 0.127,0.10583 0.9525,1.016 -0.84667,0.5715 -0.8255,-1.016 z m 0.9525,1.016 v 0.10583 l -0.48683,0.127 z m 0,0.10583 0.6985,1.35467 -0.8255,0.33867 -0.71967,-1.35467 z m 0.6985,1.35467 0.127,0.127 h -0.59267 z m 0.127,0.127 0.127,1.35467 -0.9525,0.10583 -0.254,-1.35467 z m -0.35983,1.4605 v 0.4445 h -0.46567 v -0.4445 z m 0,0.4445 z m 0,0 v -1.01599 h 12.1285 v 1.01599 z m 0,-1.01599 z m 12.72116,0.46566 v 0.55033 h -0.59267 v -0.4445 z m -1.0795,0.10583 -0.10583,-2.032 0.9525,-0.10582 0.23283,2.03199 z m 0.84667,-2.13783 h -0.48684 z m -0.9525,0.10583 -0.35983,-2.26483 0.9525,-0.10584 0.35983,2.26484 z m 0.59266,-2.4765 v 0.10583 l -0.48683,0.10584 z m -0.95249,0.33867 -0.71967,-1.82034 0.9525,-0.33866 0.71966,1.82033 z m 0.23283,-2.26484 v 0.10584 l -0.46567,0.127 z m -0.9525,0.4445 -1.05833,-2.03199 0.9525,-0.44451 1.05833,2.032 z m -0.23283,-2.58233 v 0.10583 h 0.127 l -0.48684,0.23284 z m -0.71967,0.67733 -1.41817,-1.69333 0.71967,-0.67733 1.41817,1.69333 z m -0.6985,-2.37066 -0.35983,0.33866 z m -0.71967,0.67733 -1.67216,-1.58749 0.71966,-0.67733 1.67217,1.58749 z m -0.9525,-2.26482 -0.35983,0.33866 z m -0.59266,0.78316 -1.778,-1.35466 0.59266,-0.78317 1.778,1.35467 z m -1.31234,-2.13783 h 0.127 l -0.35983,0.33867 z m -0.46566,0.78317 -2.032,-1.24884 0.59266,-0.78316 1.905,1.24883 z m -2.13784,-1.79917 0.23284,-0.46567 0.46566,0.23284 -0.23283,0.4445 -0.46567,-0.21167"
           style="fill:#ffffff icc-color(sRGB-IEC61966-2, 0.1, 1, 1, 1);fill-opacity:1;fill-rule:nonzero;stroke:none;stroke-width:0.352778" /><path
           id="path32-5"
           d="m 88.855242,240.32214 v -1.01599 h 12.128508 v 1.01599 z m 0,-1.01599 z m 12.594178,0.57149 v 0.4445 h -0.46567 v -0.4445 z m -0.95251,-0.10583 0.127,-1.35467 1.0795,0.10583 -0.254,1.35467 z m 0.127,-1.35467 0.127,-0.127 0.46567,0.127 z m 0.127,-0.127 0.6985,-1.35467 0.84667,0.33867 -0.71967,1.35467 z m 0.6985,-1.35467 v -0.10583 l 0.48683,0.23283 z m 0,-0.10583 0.9525,-1.016 0.71967,0.57151 -0.8255,1.016 z m 0.9525,-1.016 v -0.10583 h 0.127 l 0.23283,0.33867 z m 0.127,-0.10583 1.18533,-0.91016 0.59267,0.78316 -1.18533,0.91016 z m 1.905,-0.67733 0.23283,0.33866 -0.35983,0.21167 -0.23283,-0.33867 z m -0.84667,0.44449 -6.053668,-9.60965 0.8255,-0.4445 6.074838,9.60966 z m -5.926668,-10.15999 0.46567,-0.33866 0.23283,0.4445 -0.46567,0.23283 z m 0.59267,0.78317 -2.032,1.12183 -0.46567,-0.78316 1.905,-1.12184 z m -2.62467,0.4445 v -0.10583 h 0.127 l 0.23283,0.4445 z m 0.59267,0.67733 -1.778,1.37584 -0.59267,-0.67734 1.778,-1.37583 z m -2.37067,0.6985 0.35983,0.33867 z m 0.71967,0.67734 -1.67217,1.4605 -0.71967,-0.57151 1.67217,-1.56633 z m -2.39184,0.88899 0.35984,0.33866 z m 0.84667,0.57151 -1.31233,1.79916 -0.8255,-0.44451 1.29116,-1.92616 z m -2.13783,1.35465 0.46566,0.23285 z m 0.8255,0.44451 -1.0795,1.92616 -0.8255,-0.44449 1.0795,-1.92618 z m -1.905,1.48167 0.48683,0.21166 z m 0.8255,0.33866 -0.8255,2.032 -0.9525,-0.33867 0.9525,-2.03199 z m -1.778,1.79916 v -0.10583 l 0.48683,0.21167 z m 0.9525,0.10584 -0.35983,2.26483 -0.9525,-0.10582 0.35983,-2.26485 z m -1.31233,2.15901 h 0.48683 z m 0.9525,0.10582 -0.10584,2.032 -1.0795,-0.10583 0.23284,-2.03199 z m -0.59267,2.4765 h -0.59267 v -0.55033 l 0.59267,0.10583 v 0.4445"
           style="fill:#ffffff icc-color(sRGB-IEC61966-2, 0.1, 1, 1, 1);fill-opacity:1;fill-rule:nonzero;stroke:none;stroke-width:0.352778" /></g></g></g><style
     id="style1">
text {
	font-family : Verdana, Tahoma, sans-serif;
	font-size : 11px;
	fill : black;
	stroke : none;
}
/* As at 20060630, Wikipedia's SVG rasteriser couldn't make use of these styles. Leave them in in case it improves. */
#percentage_numbers text {
	text-anchor : end;
}
#x_axis_numbers text {
	text-anchor : middle;
}
</style></svg>
