<?xml version="1.0" encoding="UTF-8" standalone="no"?>
<!-- Created with Inkscape (http://www.inkscape.org/) -->

<svg
   width="25.353006mm"
   height="25.355026mm"
   viewBox="0 0 25.353006 25.355026"
   version="1.1"
   id="svg1"
   xml:space="preserve"
   xmlns="http://www.w3.org/2000/svg"
   xmlns:svg="http://www.w3.org/2000/svg"><defs
     id="defs1" /><g
     id="layer1"
     transform="translate(-92.288294,-194.85415)"><path
       style="fill:#000000"
       d="m 104.20259,220.18718 c -3.98531,-0.24847 -7.610637,-2.33928 -9.806925,-5.65585 -2.809823,-4.24306 -2.809823,-9.75749 0,-14.00055 1.852067,-2.79677 4.754683,-4.75441 8.039515,-5.42215 4.56923,-0.92885 9.28231,0.72512 12.26739,4.30501 2.88863,3.46422 3.71842,8.2183 2.1741,12.45593 -1.50795,4.13783 -5.07062,7.20735 -9.38266,8.08391 -1.06425,0.21635 -2.23574,0.29952 -3.29142,0.2337 z m 1.75684,-1.26806 c 1.51296,-0.15085 2.78729,-0.51153 4.08476,-1.15613 1.16608,-0.57933 2.07338,-1.23186 2.99693,-2.15541 0.92355,-0.92355 1.57608,-1.83085 2.15541,-2.99693 0.64979,-1.30792 1.00152,-2.55628 1.15983,-4.11651 0.0337,-0.33159 0.0337,-1.59458 0,-1.92617 -0.15831,-1.56023 -0.51004,-2.80859 -1.15983,-4.11651 -0.57933,-1.16609 -1.23186,-2.07338 -2.15541,-2.99693 -0.92355,-0.92355 -1.83085,-1.57609 -2.99693,-2.15541 -1.30792,-0.64979 -2.55628,-1.00152 -4.11651,-1.15983 -0.14473,-0.0147 -0.55905,-0.0258 -0.96309,-0.0258 -0.40403,0 -0.81835,0.0111 -0.96308,0.0258 -1.56023,0.15831 -2.80859,0.51004 -4.116513,1.15983 -1.166082,0.57932 -2.073378,1.23186 -2.996929,2.15541 -0.923551,0.92355 -1.576083,1.83084 -2.155406,2.99693 -0.649793,1.30792 -1.001521,2.55628 -1.159836,4.11651 -0.03365,0.33159 -0.03365,1.59458 0,1.92617 0.158315,1.56023 0.510043,2.80859 1.159836,4.11651 0.579323,1.16608 1.231855,2.07338 2.155406,2.99693 0.923551,0.92355 1.830847,1.57608 2.996929,2.15541 0.970503,0.48215 1.965033,0.81519 3.005263,1.00634 0.49363,0.0907 0.77937,0.12501 1.49225,0.17911 0.19369,0.0147 1.35132,-0.007 1.57692,-0.0293 z m -2.65642,-4.24584 c -0.0233,-0.005 -0.0947,-0.0198 -0.15875,-0.0324 -0.18318,-0.036 -0.41023,-0.15495 -0.5351,-0.28022 -0.20279,-0.20344 -0.29769,-0.471 -0.29772,-0.83946 -2e-5,-0.18503 0.009,-0.248 0.0545,-0.376 0.17015,-0.47937 0.53672,-0.73172 1.06403,-0.73247 0.53112,-7.6e-4 0.9364,0.29158 1.08188,0.78039 0.0512,0.17196 0.0512,0.50549 -4e-5,0.67733 -0.10698,0.35903 -0.36888,0.63868 -0.70084,0.74831 -0.12442,0.0411 -0.42423,0.0733 -0.508,0.0545 z m 0.33867,-0.49377 c 0.11028,-0.0512 0.20816,-0.15605 0.26864,-0.28787 0.0417,-0.0909 0.0486,-0.14029 0.0486,-0.34925 0,-0.20896 -0.007,-0.2584 -0.0486,-0.34925 -0.0605,-0.13182 -0.15836,-0.2367 -0.26864,-0.28787 -0.10209,-0.0474 -0.29989,-0.0526 -0.40051,-0.0105 -0.1112,0.0465 -0.2353,0.17189 -0.29017,0.29327 -0.0434,0.0961 -0.0502,0.14362 -0.0502,0.35437 0,0.20926 0.007,0.25826 0.0487,0.34925 0.0999,0.21704 0.2616,0.32715 0.48046,0.32715 0.0792,0 0.15888,-0.0148 0.21167,-0.0393 z m 5.26813,0.48497 c -0.43146,-0.0608 -0.69645,-0.23387 -0.85427,-0.55805 -0.0752,-0.1544 -0.15093,-0.42112 -0.12643,-0.44506 0.005,-0.005 0.13545,-0.0226 0.28951,-0.0389 l 0.28012,-0.0298 0.0319,0.10978 c 0.0484,0.16647 0.15118,0.30215 0.28628,0.37791 0.11132,0.0624 0.1271,0.0653 0.3604,0.0653 0.21883,0 0.2546,-0.005 0.34699,-0.053 0.0567,-0.0292 0.1326,-0.0896 0.16877,-0.13426 0.0568,-0.0702 0.0658,-0.0981 0.0658,-0.20489 0,-0.10728 -0.008,-0.13203 -0.0607,-0.187 -0.0817,-0.0853 -0.20472,-0.1347 -0.53197,-0.21378 -0.6785,-0.16395 -0.90584,-0.29142 -1.05304,-0.59044 -0.0631,-0.12805 -0.0688,-0.15661 -0.0688,-0.34171 0,-0.18509 0.006,-0.21365 0.0688,-0.3417 0.0837,-0.17005 0.21703,-0.29803 0.39348,-0.37774 0.18632,-0.0842 0.3498,-0.1138 0.62781,-0.1138 0.13388,0 0.30056,0.0123 0.37041,0.0274 0.41711,0.0902 0.69043,0.36062 0.75697,0.74908 0.0132,0.077 0.0197,0.14398 0.0145,0.14876 -0.005,0.005 -0.14052,0.013 -0.30068,0.0182 l -0.29121,0.009 -0.0226,-0.0863 c -0.0337,-0.12888 -0.11435,-0.23838 -0.21524,-0.29227 -0.0785,-0.0419 -0.12082,-0.048 -0.33335,-0.048 -0.21103,0 -0.25512,0.006 -0.33137,0.047 -0.25007,0.13372 -0.23322,0.38224 0.0337,0.49669 0.0531,0.0228 0.25853,0.083 0.45644,0.13375 0.4189,0.10747 0.49895,0.13438 0.66847,0.22474 0.15359,0.0819 0.2801,0.21548 0.35472,0.37466 0.0507,0.10825 0.0563,0.1442 0.0563,0.36354 0,0.23422 -0.003,0.2488 -0.0714,0.38569 -0.0792,0.1579 -0.23866,0.3235 -0.38166,0.39645 -0.21311,0.10872 -0.68905,0.17048 -0.98864,0.12829 z m -9.512048,-1.53729 v -1.51587 l 0.851958,0.0109 c 0.92066,0.0118 1.05442,0.0259 1.23184,0.12983 0.1204,0.0706 0.23762,0.20442 0.30517,0.34848 0.0501,0.10692 0.0558,0.14361 0.0558,0.36238 0,0.21956 -0.006,0.25523 -0.0565,0.36399 -0.10531,0.22466 -0.29204,0.36511 -0.58312,0.43857 l -0.1384,0.0349 0.14957,0.10913 c 0.20765,0.15151 0.27477,0.24211 0.78439,1.05893 l 0.10896,0.17462 h -0.35941 -0.35941 l -0.34368,-0.51329 c -0.18902,-0.28231 -0.38692,-0.55642 -0.43978,-0.60912 -0.1163,-0.11599 -0.21104,-0.14759 -0.44251,-0.14759 h -0.172172 v 0.635 0.635 h -0.296333 -0.296333 z m 1.664378,-0.30167 c 0.12898,-0.0739 0.18395,-0.18466 0.17346,-0.34943 -0.0102,-0.15985 -0.0694,-0.25436 -0.19533,-0.31154 -0.0764,-0.0347 -0.14451,-0.0394 -0.5683,-0.0399 l -0.481542,-4.7e-4 v 0.38271 0.3827 l 0.492122,-0.007 c 0.47235,-0.007 0.49564,-0.009 0.57959,-0.0571 z m 3.96595,0.30412 v -1.51342 h 0.29634 0.29633 v 0.59267 0.59266 h 0.61383 0.61384 v -0.59266 -0.59267 h 0.29633 0.29633 v 1.51342 1.51341 h -0.29633 -0.29633 v -0.66675 -0.66675 h -0.61384 -0.61383 v 0.66675 0.66675 h -0.29633 -0.29634 z m -4.59316,-3.23499 c -0.33098,-0.077 -0.512705,-0.297 -0.512705,-0.62069 0,-0.27446 0.145295,-0.48265 0.405195,-0.58056 0.0649,-0.0245 0.25009,-0.0729 0.41142,-0.10756 0.16133,-0.0347 0.34707,-0.0796 0.41275,-0.0998 l 0.11942,-0.0367 -0.001,-0.0968 c -0.002,-0.20006 -0.12149,-0.27987 -0.39982,-0.26796 -0.19807,0.008 -0.27811,0.0511 -0.34262,0.18233 l -0.0396,0.0805 -0.2581,-0.04 -0.258098,-0.04 0.04179,-0.10601 c 0.12967,-0.329 0.35253,-0.47724 0.77075,-0.51271 0.20946,-0.0178 0.52208,0.0166 0.67637,0.0743 0.14112,0.0528 0.28696,0.18901 0.32706,0.30546 0.0213,0.062 0.0328,0.28036 0.0429,0.81492 0.0135,0.71679 0.0147,0.73308 0.069,0.88371 l 0.0552,0.15345 h -0.28152 -0.28152 l -0.0254,-0.10589 c -0.014,-0.0583 -0.0335,-0.11088 -0.0433,-0.11696 -0.01,-0.006 -0.0664,0.0256 -0.12568,0.0705 -0.20121,0.15228 -0.52205,0.22233 -0.76234,0.16643 z m 0.5563,-0.40247 c 0.094,-0.0394 0.20056,-0.13295 0.24143,-0.21199 0.034,-0.0657 0.0692,-0.45797 0.0411,-0.45797 -0.0572,0 -0.62175,0.15363 -0.66237,0.18024 -0.0283,0.0185 -0.0705,0.0642 -0.0938,0.10137 -0.0739,0.1182 -0.0192,0.29411 0.11751,0.37746 0.0772,0.0471 0.25664,0.0526 0.35612,0.0109 z m 1.86072,0.40922 c -0.0502,-0.0105 -0.13029,-0.0409 -0.17804,-0.0676 -0.2061,-0.11517 -0.22739,-0.21416 -0.22782,-1.05922 l -3.3e-4,-0.65088 h -0.13758 -0.13759 v -0.22225 -0.22225 h 0.13759 0.13758 v -0.20951 -0.2095 l 0.27421,-0.16091 c 0.15082,-0.0885 0.27941,-0.16091 0.28575,-0.16091 0.006,0 0.0115,0.16669 0.0115,0.37041 v 0.37042 h 0.20108 0.20109 v 0.22225 0.22225 h -0.20109 -0.20108 v 0.6004 c 0,0.58313 0.001,0.60206 0.0457,0.6585 0.0419,0.0532 0.0548,0.0572 0.15346,0.047 0.0593,-0.006 0.12788,-0.0175 0.15249,-0.0252 0.0424,-0.0133 0.0455,-0.005 0.0596,0.16228 0.008,0.097 0.0199,0.19724 0.026,0.22279 0.01,0.0409 -0.002,0.0503 -0.10197,0.0784 -0.14734,0.0416 -0.38559,0.0576 -0.50069,0.0335 z m 3.00986,5.8e-4 c -0.43146,-0.0608 -0.69645,-0.23387 -0.85427,-0.55805 -0.0752,-0.1544 -0.15093,-0.42112 -0.12643,-0.44506 0.005,-0.005 0.13545,-0.0226 0.28951,-0.0389 l 0.28012,-0.0298 0.0319,0.10978 c 0.0484,0.16647 0.15118,0.30215 0.28628,0.37791 0.11132,0.0624 0.1271,0.0653 0.3604,0.0653 0.21883,0 0.2546,-0.005 0.34699,-0.053 0.0567,-0.0292 0.1326,-0.0896 0.16877,-0.13426 0.0568,-0.0702 0.0658,-0.0981 0.0658,-0.20489 0,-0.10728 -0.008,-0.13203 -0.0607,-0.187 -0.0817,-0.0853 -0.20472,-0.1347 -0.53197,-0.21378 -0.6785,-0.16395 -0.90584,-0.29142 -1.05304,-0.59044 -0.0631,-0.12805 -0.0688,-0.15661 -0.0688,-0.34171 0,-0.18509 0.006,-0.21365 0.0688,-0.3417 0.0837,-0.17005 0.21703,-0.29803 0.39348,-0.37774 0.18632,-0.0842 0.3498,-0.1138 0.62781,-0.1138 0.13388,0 0.30056,0.0123 0.37041,0.0274 0.41711,0.0901 0.69043,0.36062 0.75697,0.74908 0.0132,0.077 0.0197,0.14398 0.0145,0.14876 -0.005,0.005 -0.14052,0.013 -0.30068,0.0182 l -0.29121,0.009 -0.0226,-0.0863 c -0.0337,-0.12888 -0.11435,-0.23838 -0.21524,-0.29227 -0.0785,-0.042 -0.12082,-0.048 -0.33335,-0.048 -0.21103,0 -0.25512,0.006 -0.33137,0.047 -0.25007,0.13372 -0.23322,0.38224 0.0337,0.49669 0.0531,0.0228 0.25853,0.083 0.45644,0.13375 0.4189,0.10747 0.49895,0.13438 0.66847,0.22474 0.15359,0.0819 0.2801,0.21548 0.35472,0.37466 0.0507,0.10825 0.0563,0.1442 0.0563,0.36354 0,0.23422 -0.003,0.2488 -0.0714,0.38569 -0.0792,0.1579 -0.23866,0.3235 -0.38166,0.39645 -0.21311,0.10872 -0.68905,0.17048 -0.98864,0.12829 z m 6.17648,-5.8e-4 c -0.0502,-0.0105 -0.13029,-0.0409 -0.17804,-0.0676 -0.2061,-0.11517 -0.2274,-0.21416 -0.22782,-1.05922 l -3.4e-4,-0.65088 h -0.13758 -0.13758 v -0.22225 -0.22225 h 0.13758 0.13758 v -0.20951 -0.2095 l 0.27422,-0.16091 c 0.15081,-0.0885 0.2794,-0.16091 0.28575,-0.16091 0.006,0 0.0115,0.16669 0.0115,0.37041 v 0.37042 h 0.20109 0.20108 v 0.22225 0.22225 h -0.20108 -0.20109 v 0.6004 c 0,0.58313 0.001,0.60206 0.0457,0.6585 0.0419,0.0532 0.0548,0.0572 0.15345,0.047 0.0593,-0.006 0.12789,-0.0175 0.15249,-0.0252 0.0424,-0.0133 0.0455,-0.005 0.0597,0.16228 0.008,0.097 0.0199,0.19724 0.026,0.22279 0.01,0.0409 -0.002,0.0503 -0.10198,0.0784 -0.14733,0.0416 -0.38559,0.0576 -0.50068,0.0335 z m -14.778362,-1.53426 v -1.51342 h 1.11125 1.11125 v 0.254 0.254 h -0.814916 -0.814917 v 0.33867 0.33866 h 0.762 0.762 v 0.254 0.254 h -0.762 -0.762 v 0.41275 0.41275 h 0.846667 0.846666 v 0.254 0.254 h -1.143 -1.143 z m 10.583332,0 v -1.51342 h 0.27517 0.27516 v 0.55033 c 0,0.30269 0.006,0.55034 0.0135,0.55034 0.007,0 0.0542,-0.0375 0.10393,-0.0833 0.39991,-0.36864 1.0776,-0.26771 1.25128,0.18635 0.0332,0.0868 0.0383,0.19695 0.0446,0.96061 l 0.007,0.86254 h -0.27626 -0.27626 l -5.8e-4,-0.60854 c -6.9e-4,-0.73899 -0.0195,-0.97287 -0.0856,-1.06568 -0.11545,-0.16214 -0.44139,-0.169 -0.60884,-0.0128 -0.14422,0.13453 -0.17247,0.31784 -0.17269,1.12083 l -1.7e-4,0.5662 h -0.27516 -0.27517 z m 2.58233,0.41275 v -1.10067 h 0.27517 0.27517 v 1.10067 1.10066 h -0.27517 -0.27517 z m 0,-1.67217 v -0.254 h 0.27517 0.27517 v 0.254 0.254 h -0.27517 -0.27517 z m -6.11853,-0.71594 c -0.12149,-0.1472 -0.37328,-0.42381 -0.55955,-0.6147 -0.84919,-0.87024 -1.7076,-1.52285 -2.66333,-2.0248 l -0.25034,-0.13148 0.67367,-0.40824 c 0.37052,-0.22453 0.72129,-0.43846 0.7795,-0.4754 0.42166,-0.26762 0.90341,-0.54448 0.91851,-0.52789 0.01,0.0107 0.18224,0.33386 0.38325,0.71803 0.20102,0.38418 0.41068,0.78423 0.46592,0.889 0.0552,0.10478 0.15077,0.28814 0.21231,0.40746 0.0615,0.11933 0.12037,0.21696 0.13074,0.21696 0.0104,0 0.0394,-0.05 0.0644,-0.11112 0.0838,-0.20442 0.54125,-1.10894 0.73662,-1.45642 1.07466,-1.91139 2.31242,-3.38602 3.55467,-4.23493 0.24888,-0.17007 0.5715,-0.36058 0.5715,-0.33746 0,0.009 -0.0135,0.097 -0.0301,0.19462 -0.0787,0.46371 -0.10652,0.85292 -0.10667,1.48973 -1.2e-4,0.53017 0.006,0.66645 0.0383,0.8255 0.0478,0.23695 0.10411,0.41269 0.16968,0.53 l 0.0505,0.0904 -0.0873,0.0384 c -0.13471,0.0592 -0.42604,0.23243 -0.64825,0.38541 -0.4252,0.29274 -0.84267,0.65224 -1.34543,1.15864 -0.84773,0.85387 -1.65192,1.86494 -2.51791,3.16563 l -0.31982,0.48035 z"
       id="path1" /></g></svg>
