<?xml version="1.0" encoding="UTF-8" standalone="no"?>
<!-- Created with Inkscape (http://www.inkscape.org/) -->

<svg
   version="1.1"
   id="svg1"
   width="1103.7451"
   height="1694.5822"
   viewBox="0 0 1103.7451 1694.5822"
   sodipodi:docname="h0us3s-Signs-Hazard-Warning-15.png"
   xmlns:inkscape="http://www.inkscape.org/namespaces/inkscape"
   xmlns:sodipodi="http://sodipodi.sourceforge.net/DTD/sodipodi-0.dtd"
   xmlns="http://www.w3.org/2000/svg"
   xmlns:svg="http://www.w3.org/2000/svg">
  <defs
     id="defs1" />
  <sodipodi:namedview
     id="namedview1"
     pagecolor="#505050"
     bordercolor="#eeeeee"
     borderopacity="1"
     inkscape:showpageshadow="0"
     inkscape:pageopacity="0"
     inkscape:pagecheckerboard="0"
     inkscape:deskcolor="#d1d1d1" />
  <g
     inkscape:groupmode="layer"
     inkscape:label="Image"
     id="g1"
     transform="translate(-1045.7441,-683.58783)">
    <path
       id="path1"
       style="opacity:1;fill:#000000;stroke:#000000;stroke-opacity:1"
       inkscape:transform-center-x="-50.430109"
       inkscape:transform-center-y="9.6124318"
       d="m 1351.1445,684.08789 c -0.2286,0.009 -0.457,0.0232 -0.6855,0.0332 -0.088,0.32332 -0.1716,0.63784 -0.2832,1.03907 -0.2176,0.78266 -0.4546,1.55988 -0.6817,2.33984 -0.1972,0.69652 -0.4089,1.38945 -0.5918,2.08984 -0.04,0.15198 -0.075,0.30461 -0.1132,0.45704 0.022,0.17524 0.044,0.35057 0.082,0.52343 0.1333,0.51236 0.037,0.18378 0.3203,0.94727 0.1124,0.30295 0.2229,0.60624 0.3379,0.9082 0.7123,1.87045 0.2855,0.64903 0.9355,2.5625 0.1298,0.38234 0.2562,0.76569 0.3848,1.14844 8e-4,0.002 0.6572,1.60244 0.7422,1.78516 0.2007,0.43071 0.3679,0.66627 0.625,1.07421 0.4189,0.66436 0.2165,0.34993 0.7051,1.0918 0.035,0.0588 0.4565,0.77415 0.5215,0.875 0.7298,1.12826 -0.2322,-0.42609 0.6679,0.95508 0.3637,0.55811 0.3647,0.5988 0.6387,1.1582 0.1761,0.40532 0.3475,0.81517 0.5605,1.20313 0.1127,0.20533 0.2375,0.40373 0.3497,0.60937 0.5231,0.95901 0.4471,0.85618 0.9316,1.96289 0.1451,0.42385 0.302,0.84384 0.4355,1.27149 0.5499,1.76188 1.0147,3.56536 1.1778,5.41015 0.047,0.52458 -0.02,1.07709 -0.068,1.60157 l 0.01,0.002 c -0.038,0.41499 -0.1111,0.78851 -0.209,1.125 l 0.023,0.0723 3.5625,23.33399 3.5625,23.33398 9.2852,57.33203 9.2871,57.33399 10.6543,62.66601 10.6543,62.66803 6.877,38.9824 6.8769,38.9824 0.5664,-0.5664 0.5664,-0.5645 1.1563,-10.4179 1.1582,-10.416 5.3281,-58 5.3301,-58.00006 4.6426,-56 4.6445,-56 0.3984,-7.54297 0.3985,-7.54296 -0.9082,0.56445 -0.9082,0.56445 -9.5157,15.64453 -9.5156,15.64453 -2.6289,3.21485 -2.6309,3.21289 -1.2187,-1.21875 -1.2188,-1.21875 -4.8535,-13.32813 -4.8515,-13.32812 -21.0723,-62.13086 -21.0078,-61.94531 c -0.058,-0.11514 -0.1127,-0.23197 -0.1739,-0.34571 -0.3851,-0.71719 -0.7829,-1.42788 -1.1835,-2.13671 -1.5945,-2.82176 -2.2175,-3.91267 -4.0411,-6.74219 -0.7973,-1.23697 -1.6329,-2.44937 -2.4492,-3.67383 -1.4534,-2.05358 -2.0956,-3.02682 -3.1523,-4.37109 -0.025,-0.0174 -0.053,-0.0316 -0.078,-0.0488 -0.1095,-0.0622 -0.2199,-0.12387 -0.3301,-0.18555 z m 111.0899,147.13477 v 1.77929 1.77735 l 0.8906,-0.88868 0.8887,-0.88867 -0.8887,-0.89062 z m 2.0293,3.86914 -0.4004,2.07812 -0.3985,2.07617 4.1153,24.54493 4.1152,24.54296 9.3399,53.33399 9.3378,53.33398 14.6524,81.33205 14.6504,81.334 5.3125,28 5.3144,28 1.4082,6.666 1.4082,6.668 0.6348,1.9609 0.6348,1.9629 1.2636,-1.9629 1.2637,-1.9609 2.7852,-9.2149 2.7851,-9.2148 10.4961,-45.2911 10.4961,-45.291 0.7168,-0.7168 0.7168,-0.7168 0.5606,0.5606 0.5585,0.5605 15.5215,49.3282 15.5215,49.3281 9.3477,29.1719 9.3457,29.1718 -1.0938,1.0664 -1.0957,1.0645 -15.334,-5.9258 -15.332,-5.9258 -20.668,-5.916 -20.666,-5.916 -20.666,-4.6641 -20.668,-4.664 -21.3613,-3.9844 -21.3633,-3.9844 -27.9707,-4.0058 -27.9707,-4.0039 -22.666,-2.2989 -22.668,-2.2968 -28,-0.074 -28,-0.076 -15.2519,2.414 -15.2539,2.416 -11.1426,3.2286 -11.1406,3.2285 -8.2246,4.1523 -8.2227,4.1504 -8.0488,7.5508 -8.0469,7.5527 -2.1758,1.6504 -2.1738,1.6485 -7.4609,1.9433 -7.461,1.9434 -17.2011,8.6211 -17.2012,8.6191 -11.8301,6.959 -11.8301,6.959 -12,7.998 -8.834,5.8867 c -2.8859,5.3586 -6.3247,8.2819 -10.2402,9.1602 l -3.7461,3.7324 -10.8183,10.7813 -3.5411,7.0097 -3.539,7.0078 -0.7852,5.7266 -0.7851,5.7266 2.0976,8.1933 2.0996,8.1914 3.9571,8.7266 3.957,8.7285 3.3633,1.5313 3.3613,1.5312 3.9004,-1.6152 3.9004,-1.6153 2.0937,-4.9043 2.0938,-4.9042 2.748,-10.4024 2.7481,-10.4043 4.5859,-9.6641 4.5859,-9.666 3.4688,-3.7422 3.4668,-3.7421 2.498,2.2597 2.4961,2.2598 4.8438,15.1191 4.8457,15.1172 1.9141,1.5899 1.916,1.5898 2.6074,-3.1582 2.6074,-3.1562 6.4004,-11.1485 6.3984,-11.1484 6.3809,-9.7754 6.3789,-9.7754 5.207,-4.127 5.209,-4.125 11.2754,-5.2832 11.2754,-5.2832 h 1.4375 1.4356 l 2.1113,4.0821 2.1113,4.084 2.6289,12.25 2.6289,12.25 2.961,2.4824 2.9589,2.4844 8.668,-0.8829 8.666,-0.8808 36,-6.5059 36,-6.5058 10.666,-1.4258 10.668,-1.4258 13.332,-1.3945 13.334,-1.3946 24.666,-0.031 24.668,-0.033 14.4141,2.1562 14.414,2.1563 11.4532,3.3203 11.4531,3.3184 9.5508,4.4121 9.5507,4.4121 12.2481,8.2363 12.248,8.2363 v 0.711 0.7109 l -14.1738,16.2559 -14.1738,16.2539 -13.6699,18.2519 -13.6719,18.252 -9.8223,16.2383 -9.8203,16.2382 -8.8496,8.2207 -8.8496,8.2188 -27.8164,16.5605 -27.8184,16.5586 -29.6992,17.7559 -29.6992,17.7559 -18.9668,12.1601 -18.9688,12.1602 -15.0195,10.6875 -15.0215,10.6875 -5.3125,5.7636 -5.3125,5.7637 v 2.0957 2.0957 l 2.1973,4.2676 2.1953,4.2676 6.3691,9.455 6.3672,9.4551 4.7207,8.8965 4.7188,8.8965 -0.7285,1.9023 -0.7305,1.9004 -10.4473,8.0821 -10.4453,8.082 -33.625,21.4297 -33.623,21.4316 -18.1504,12.125 -18.1524,12.125 -15.332,11.4356 -15.332,11.4355 -14.3731,13.8848 -14.3711,13.8847 -6.1601,9.2676 -6.1621,9.2676 -3.8418,9.8945 -3.8418,9.8946 -2.0938,13.6269 -2.0937,13.627 0.7187,23.334 0.7188,23.332 2.8437,27.334 2.8438,27.334 5.2558,40 5.2559,40 6.0137,46 6.0136,46 4.6622,36 4.6621,36 0.7695,2.457 0.7695,2.457 4.2051,-0.6758 4.2031,-0.6777 19.6309,-3.0371 19.6328,-3.0391 0.8633,0.8633 0.8633,0.8652 -3.375,5.7266 -3.377,5.7266 -4.0918,5.6191 -4.0937,5.6172 -3.5957,2.3574 -3.5957,2.3555 -26.0957,0.8965 -26.0997,0.8965 -6.3339,2.2558 -6.336,2.2539 -2.664,3.3867 -2.6661,3.3868 v 6.5488 6.5469 l 3.3692,3.3691 3.3691,3.3672 14.9649,7.1797 14.9648,7.1777 14.666,4.9414 14.666,4.9395 10.6954,0.1191 10.6953,0.1192 8.9414,-4.4024 8.9414,-4.4023 11.6015,-12.5664 11.6016,-12.5664 7.082,6.6972 7.0801,6.6973 5.0156,2.0996 5.0137,2.0996 12,-0.8965 12,-0.8984 5.7207,-1.4375 5.7227,-1.4356 1.9394,-3.7519 1.9395,-3.75 1.3125,-9.0762 1.3125,-9.0781 0.025,-24.0684 0.025,-24.0703 13.8867,-4.3672 13.875,-4.3652 2.334,-1.7012 2.3203,-1.6992 -7.7285,-16.5313 -7.7383,-16.5292 -18.5957,-37.2325 -18.5957,-37.2324 -14.0293,-30.1016 -14.0293,-30.1015 -10.0078,-23.332 -10.0254,-23.334 -6.5,-17.1524 -6.5039,-17.1504 -2.0586,-7.8847 -2.0293,-7.8828 2.1875,-4.6407 2.2168,-4.6406 7.5,-6.8769 7.5215,-6.877 7.3086,-4.6855 7.2949,-4.6856 13.3711,-6.291 13.3496,-6.291 24,-8.6621 24,-8.6621 13.2793,-4.1426 13.2832,-4.1406 h 1.7168 1.7207 v 2.625 2.625 l -8.1406,18.375 -8.1504,18.375 -6.4297,19.332 -6.4199,19.334 -3.4258,15.4961 -3.4336,15.4961 -2.7832,19.2363 -2.7793,19.2344 28.5586,43.2695 28.5332,43.2676 14.8086,24 14.7871,24 13.5801,24 13.5742,24 29.3125,59.0586 29.334,59.0605 1.541,-1.1836 1.5332,-1.1816 13.6094,-10.209 13.5996,-10.209 3.4961,-1.5918 3.4824,-1.5918 1.2168,1.9238 1.2207,1.9239 v 4 4 l -1.7656,6.6738 -1.7793,6.6738 -2.7383,6.1563 -2.7168,6.1562 -4.9375,5.4746 -4.9453,5.4746 -15.5371,10.5723 -15.5508,10.5723 -4.9375,5.123 -4.9375,5.1231 -2.0625,4.957 -2.0625,4.957 v 3.4434 3.4414 l 1.9375,3.7461 1.9375,3.7461 3.7422,1.4726 3.7285,1.4746 4.6543,0.3809 4.6797,0.3809 19.3203,-0.9668 19.3457,-0.9649 12,-1.4218 12,-1.42 4.8301,-1.2851 4.8242,-1.2832 3.4258,-2.6934 3.4199,-2.6933 2.8418,-7.6348 2.8711,-7.6367 4.2246,-7.9805 4.2168,-7.9785 8,-8.1543 8,-8.1524 6.4551,-0.7148 6.4199,-0.7148 9.5801,-4.7383 9.5449,-4.7403 5.6836,-5.4629 5.6621,-5.4628 -0.025,-5.6172 -0.033,-5.6172 -3.166,-7.7031 -3.168,-7.7032 -5.6406,-7.3086 -5.6387,-7.3105 -6.8281,-4.8809 -6.8282,-4.8808 -4.332,-4.0352 -4.334,-4.0332 v -2.4062 -2.4043 h 2.3516 2.3496 l 6.6504,-4.5742 6.6484,-4.5762 3.8301,-3.1621 3.8301,-3.1641 -19.002,-31.2617 -19.0039,-31.2617 -24.3222,-36.668 -24.3203,-36.666 -13.8829,-19.334 -13.8828,-19.332 -9.8652,-13.1797 -9.8633,-13.1778 -19.0703,-24.0097 -19.0703,-24.0098 14.3105,-9.9824 14.3125,-9.9844 17.334,-13.0449 17.332,-13.0449 17.334,-15.2637 17.334,-15.2637 15.332,-15.8613 15.334,-15.8594 8,-10.1777 8,-10.1777 6.4356,-8.2305 6.4375,-8.2305 4.2305,-2.5801 4.2304,-2.5781 h 6.3047 l 6.3047,-0.012 18.3613,5.8281 18.3613,5.8262 3.668,0.8652 3.666,0.8653 v -3.6231 -3.6211 l -4.6289,-28.7363 -4.6308,-28.7363 -2.1114,-16 -2.1113,-16 -0.7519,-19.334 -0.752,-19.334 1.4922,-8 1.4941,-8 5.8164,-12 5.8164,-12 13.6231,-23.332 13.623,-23.334 1.5606,-1.5235 1.5605,-1.5234 28,-9.3633 28,-9.3633 30.666,-8.6601 30.668,-8.6621 18.6641,-4.916 18.664,-4.9161 10.9532,-2.3925 10.9531,-2.3946 5.7539,6.1914 5.7539,6.1895 21.2422,27.334 21.2402,27.334 64.7774,82 64.7793,82 21.6054,28.1914 21.6075,28.1933 4.8046,4.2207 4.8067,4.2188 7.0078,-0.875 7.0059,-0.877 0.8203,3.1309 0.8203,3.1289 -3.2969,23.043 -3.2969,23.0429 v 7.8614 7.8632 l 1.9766,1.9766 1.9766,1.9766 2.7421,-0.7168 2.7422,-0.7188 8.6407,-7.8301 8.6406,-7.83 h 2.166 2.1641 l -0.8633,9 -0.8613,9 -3.8575,16.666 -3.8574,16.666 -1.5879,10.502 -1.5879,10.5019 0.8965,4.7852 0.8985,4.7871 1.9082,3.6894 1.9082,3.6895 3.9121,2.0234 3.9101,2.0215 h 2.6817 2.6797 l 7.0527,-5.7148 7.0527,-5.7168 3.2949,-2.2832 3.2969,-2.2852 h 4.8047 4.8047 l 2.748,-3 2.7481,-3 2.7949,-5.5684 2.7949,-5.5683 2.6582,-9.7656 2.6582,-9.7637 1.4043,-12.5742 1.4043,-12.5743 -1.4258,-12.9609 -1.4257,-12.9609 -3.1817,-13.1309 -3.1816,-13.1328 -4.5977,-12.666 -4.5976,-12.666 -6.7891,-15.1426 -6.7891,-15.1406 -9.5644,-17.5254 -9.5625,-17.5254 -10.0352,-16.666 -10.0371,-16.668 -17.5937,-26.666 -17.5918,-26.666 -18.6133,-26 -18.6113,-26 -16.6875,-22.668 -16.6875,-22.666 -12.1348,-18 -12.1367,-18 -8.8457,-14.666 -8.8457,-14.668 -7.1621,-14.666 -7.1621,-14.666 -1.3243,-5.916 -1.3242,-5.9141 1.3535,-2.5293 1.3536,-2.5293 2.5136,2.2734 2.5117,2.2754 2.2325,6.1699 2.2343,6.17 3.1211,7.1015 3.1211,7.1035 2.3614,-0.4453 2.3593,-0.4472 1.4004,-7.295 1.3985,-7.2949 0.748,1.3047 0.7481,1.3047 2.8261,9.4531 2.8262,9.4531 2.7891,3.5469 2.791,3.5469 h 1.8398 1.8399 l 1.3886,-5 1.3887,-5 0.01,-5.666 0.01,-5.666 h 0.8965 0.8946 l 2.332,2.1093 2.332,2.1114 1.2637,-2.4434 1.2637,-2.4453 1.6425,-7 1.6426,-7 h 0.8887 0.8906 l 3.1778,8 3.1777,8 h 0.9863 0.9863 l 2.7696,-10.332 2.7695,-10.334 2.2637,-13.334 2.2656,-13.332 0.8359,-0.9903 0.836,-0.9902 5.0801,11.9961 5.08,11.9961 1.1328,0.6992 1.1329,0.7012 2.0976,-7.0391 2.0977,-7.041 1.4199,-12.9707 1.418,-12.9727 -1.4688,-16.0976 -1.4687,-16.0977 -3.1836,-15.0234 -3.1817,-15.0215 -4.6562,-13.9082 -4.6582,-13.9082 -8.9532,-19.332 -8.9531,-19.334 -2.3945,-6.666 -2.3926,-6.668 -0.8066,-5.623 -0.8067,-5.6231 -1.5898,-3.4883 -1.5899,-3.4902 -4.0683,0.7266 -4.0684,0.7265 -18,1.5391 -18,1.539 -3.6699,-1.455 -3.668,-1.4532 -3.1699,-7.1679 -3.1699,-7.168 -3.1621,-0.8457 -3.1602,-0.8457 -4.0957,-0.02 -4.0957,-0.018 -6.1367,2.0918 -6.1367,2.0918 -22.2813,23.5742 -22.2812,23.5762 -8.5,8.3359 -8.5,8.334 -5.5196,3.998 -5.5195,3.9981 h -3.291 -3.2891 l -34.8437,-10.082 -34.8438,-10.0821 -1.2988,-1.2851 -1.3008,-1.2832 -0.8984,-28.9668 -0.9004,-28.9668 -1.6484,-6.666 -1.6485,-6.668 -0.8183,-0.8613 -0.8184,-0.8633 -12.668,9.2207 -12.666,9.2207 -20.3125,10.1914 -20.3125,10.1933 -5.6211,0.1153 -5.6211,0.1172 -2.455,-6.5469 -2.4551,-6.5469 -4.5762,-22.7871 -4.5742,-22.7851 -13.4336,-79.334 -13.4336,-79.334 -5.2363,-28.666 -5.2364,-28.666 -3.3769,-16.56645 -3.375,-16.56446 -0.5996,-0.60156 -0.6016,-0.59961 -3.4922,7.83203 -3.4922,7.83203 -18.7265,44.00002 -18.7266,44 -0.5039,0.5566 -0.5039,0.5547 -0.8301,-0.8301 -0.83,-0.83 -6.4844,-20.711 -6.4824,-20.7129 -23.4043,-77.67966 -23.4043,-77.67969 -7.6075,-23.95507 z" />
    <path
       style="fill:#000000;fill-opacity:1;stroke:#000000;stroke-width:1px;stroke-linecap:butt;stroke-linejoin:miter;stroke-opacity:0"
       d="m 1462.9441,839.34698 -1.1739,-3.38542 2.9542,-2.91741 0.015,1.99263 z"
       id="path41" />
    <path
       style="fill:#000000;fill-opacity:1;stroke:#000000;stroke-width:1px;stroke-linecap:butt;stroke-linejoin:miter;stroke-opacity:0"
       d="m 1462.7683,833.58086 1.9503,-0.58403 0.01,0.53876 -2.9371,2.55544 -0.054,-0.12803 z"
       id="path42" />
    <path
       style="opacity:1;fill:#000000;fill-opacity:1;stroke:#000000;stroke-width:1.1;stroke-linecap:square;stroke-linejoin:miter;stroke-dasharray:none;stroke-opacity:1"
       d="m 1106.2516,1318.7708 10.2108,-9.1753 2.4344,7.9534 -10.0411,6.7296 z"
       id="path43" />
    <path
       style="fill:#000000;fill-opacity:1;stroke:#000000;stroke-width:1px;stroke-linecap:butt;stroke-linejoin:miter;stroke-opacity:0"
       d="m 1357.4618,716.13891 -6.1278,-17.84059 5.8502,-0.52946 4.1515,17.68813 z"
       id="path51" />
  </g>
</svg>
