<?xml version="1.0" encoding="UTF-8" standalone="no"?>
<!-- Created with Inkscape (http://www.inkscape.org/) -->

<svg
   width="23.155701mm"
   height="27.68565mm"
   viewBox="0 0 23.155701 27.68565"
   version="1.1"
   id="svg1"
   xmlns="http://www.w3.org/2000/svg"
   xmlns:svg="http://www.w3.org/2000/svg">
  <defs
     id="defs1" />
  <g
     id="layer1"
     transform="translate(-122.2375,-104.775)">
    <path
       id="rect1-2-6-5-1"
       style="fill:#ffffff;fill-opacity:1;stroke:none;stroke-width:0.264583"
       d="m 122.2375,114.41627 v 16.30857 c 0,0.96153 0.77377,1.73581 1.73529,1.73581 h 19.68459 c 0.96152,0 1.73581,-0.77428 1.73581,-1.73581 v -14.30042 c -3.37971,2.1685 -8.09297,4.32651 -13.50408,4.14083 -7.09108,-0.24331 -8.81608,-2.19927 -9.65161,-6.14898 z m 2.2009,7.42074 h 0.66301 v 0.60254 h -0.66301 z m 16.86409,0 h 0.66249 v 1.74769 l 0.76274,-0.84801 h 0.76998 l -1.01234,1.0604 1.09192,1.25109 h -0.80305 l -0.80925,-0.96376 v 0.96376 h -0.66249 z m -13.70976,0.12971 h 0.43873 v 1.14566 h -0.43873 z m -1.79369,0.11368 h 0.66301 v 0.65629 h 0.68264 v 0.52814 h -0.68264 v 0.9803 c 0,0.10731 0.0191,0.18007 0.0574,0.21859 0.0383,0.0372 0.11385,0.0558 0.22738,0.0558 h 0.34054 v 0.52865 h -0.56792 c -0.26162,0 -0.44775,-0.0608 -0.55759,-0.1819 -0.1086,-0.12245 -0.16278,-0.32948 -0.16278,-0.62115 v -0.9803 h -0.32918 v -0.52814 h 0.32918 z m 8.80566,0 h 0.66301 v 0.65629 h 0.68316 v 0.52814 h -0.68316 v 0.9803 c 0,0.10731 0.0191,0.18007 0.0574,0.21859 0.0383,0.0372 0.11437,0.0558 0.2279,0.0558 h 0.34054 v 0.52865 h -0.56844 c -0.26162,0 -0.44723,-0.0608 -0.55707,-0.1819 -0.1086,-0.12245 -0.1633,-0.32948 -0.1633,-0.62115 v -0.9803 h -0.32918 v -0.52814 h 0.32918 z m -5.09788,0.60048 c 0.12218,0 0.25048,0.0104 0.38499,0.031 0.13452,0.0206 0.28077,0.0531 0.43874,0.0971 v 0.56121 c -0.14192,-0.066 -0.27878,-0.1158 -0.41083,-0.14883 -0.13205,-0.033 -0.2569,-0.0496 -0.37414,-0.0496 -0.12587,0 -0.21941,0.018 -0.28112,0.0537 -0.0605,0.0344 -0.091,0.0883 -0.091,0.16123 0,0.0591 0.0231,0.10424 0.0687,0.13591 0.0469,0.0317 0.1299,0.0551 0.2496,0.0703 l 0.11679,0.0186 c 0.33938,0.0481 0.56799,0.12712 0.68523,0.23719 0.11723,0.11007 0.1757,0.28305 0.1757,0.51832 0,0.24627 -0.0815,0.43118 -0.24443,0.555 -0.1629,0.12383 -0.40583,0.18552 -0.72916,0.18552 -0.13698,0 -0.27896,-0.0119 -0.42581,-0.0367 -0.14563,-0.0234 -0.29584,-0.0593 -0.4501,-0.10749 v -0.5612 c 0.13205,0.0715 0.26744,0.12494 0.40566,0.16071 0.13945,0.0358 0.28059,0.0537 0.42374,0.0537 0.12958,0 0.22709,-0.02 0.29249,-0.0599 0.0654,-0.0399 0.0982,-0.0988 0.0982,-0.17725 0,-0.066 -0.0231,-0.11511 -0.0687,-0.14676 -0.0445,-0.033 -0.13371,-0.0586 -0.2682,-0.0765 l -0.11679,-0.0165 c -0.29495,-0.0412 -0.50165,-0.11746 -0.62012,-0.22893 -0.11847,-0.11144 -0.17777,-0.28045 -0.17777,-0.50746 0,-0.2449 0.0753,-0.42687 0.22583,-0.54519 0.15056,-0.11832 0.38148,-0.17725 0.69246,-0.17725 z m 3.57653,0 c 0.12217,0 0.25048,0.0104 0.38499,0.031 0.13452,0.0206 0.28077,0.0531 0.43873,0.0971 v 0.56121 c -0.14192,-0.066 -0.27878,-0.1158 -0.41083,-0.14883 -0.13204,-0.033 -0.2569,-0.0496 -0.37413,-0.0496 -0.12588,0 -0.21942,0.018 -0.28112,0.0537 -0.0605,0.0344 -0.0909,0.0883 -0.0909,0.16123 0,0.0591 0.0231,0.10424 0.0687,0.13591 0.0469,0.0317 0.1299,0.0551 0.24959,0.0703 l 0.11679,0.0186 c 0.33937,0.0481 0.56748,0.12712 0.68471,0.23719 0.11725,0.11007 0.17622,0.28305 0.17622,0.51832 0,0.24627 -0.0815,0.43118 -0.24443,0.555 -0.1629,0.12383 -0.40634,0.18552 -0.72967,0.18552 -0.13699,0 -0.27896,-0.0119 -0.42581,-0.0367 -0.14563,-0.0234 -0.29533,-0.0593 -0.44959,-0.10749 v -0.5612 c 0.13205,0.0715 0.26693,0.12494 0.40515,0.16071 0.13945,0.0358 0.28111,0.0537 0.42426,0.0537 0.12958,0 0.22708,-0.02 0.29249,-0.0599 0.0654,-0.0399 0.0982,-0.0988 0.0982,-0.17725 0,-0.066 -0.0231,-0.11511 -0.0687,-0.14676 -0.0444,-0.033 -0.13371,-0.0586 -0.2682,-0.0765 l -0.11679,-0.0165 c -0.29494,-0.0412 -0.50164,-0.11746 -0.62011,-0.22893 -0.11847,-0.11144 -0.17777,-0.28045 -0.17777,-0.50746 0,-0.2449 0.0753,-0.42687 0.22583,-0.54519 0.15056,-0.11832 0.38147,-0.17725 0.69246,-0.17725 z m 7.01042,0 c 0.1086,0 0.21498,0.011 0.31988,0.0331 0.10613,0.0206 0.21188,0.0524 0.31678,0.0951 v 0.60255 c -0.0901,-0.0688 -0.18102,-0.11992 -0.27234,-0.15296 -0.0901,-0.033 -0.18362,-0.0496 -0.28112,-0.0496 -0.18511,0 -0.32938,0.0608 -0.43305,0.1819 -0.10243,0.1197 -0.15399,0.28732 -0.15399,0.50333 0,0.21601 0.0516,0.38484 0.15399,0.50591 0.10367,0.1197 0.24794,0.17932 0.43305,0.17932 0.10367,0 0.20149,-0.0173 0.29404,-0.0517 0.0938,-0.0344 0.18043,-0.085 0.25942,-0.15245 V 124.98 c -0.10367,0.0427 -0.20942,0.0739 -0.31678,0.0946 -0.10613,0.022 -0.21251,0.0331 -0.31988,0.0331 -0.37392,0 -0.66643,-0.10663 -0.87746,-0.31988 -0.21103,-0.21464 -0.31678,-0.51238 -0.31678,-0.89348 0,-0.38111 0.10575,-0.67816 0.31678,-0.89142 0.21103,-0.21463 0.50354,-0.32195 0.87746,-0.32195 z m -15.65537,0.0558 h 0.66301 v 2.31149 h -0.66301 z m 11.8954,0 h 0.66662 v 0.231 c 0,0.1252 -8e-4,0.28297 -0.002,0.47284 -0.001,0.18848 -0.002,0.31395 -0.002,0.37724 0,0.18574 0.005,0.32001 0.0134,0.40255 0.009,0.0812 0.0235,0.14063 0.0445,0.17777 0.0272,0.0482 0.0622,0.085 0.10542,0.11111 0.0444,0.0261 0.0947,0.0393 0.15141,0.0393 0.13822,0 0.2471,-0.0589 0.32608,-0.17725 0.079,-0.11833 0.11834,-0.28301 0.11834,-0.49351 v -1.14102 h 0.663 v 2.31097 h -0.663 v -0.33383 c -0.1,0.13484 -0.20603,0.23455 -0.31833,0.29921 -0.11107,0.0633 -0.23394,0.0946 -0.36845,0.0946 -0.23941,0 -0.4219,-0.0817 -0.54777,-0.24546 -0.12465,-0.16373 -0.18707,-0.40185 -0.18707,-0.71417 z m -9.12968,4.3832 h 0.66663 l -0.10594,0.60255 h -0.66818 z m 6.25492,0 h 0.66662 l -0.10542,0.60255 h -0.66869 z m 2.70061,0 h 0.66869 l -0.56121,3.21117 h -0.66817 l 0.061,-0.33434 c -0.1012,0.13483 -0.20726,0.23454 -0.31833,0.2992 -0.11107,0.0633 -0.23279,0.0951 -0.36484,0.0951 -0.23324,0 -0.4177,-0.0824 -0.55345,-0.24753 -0.13575,-0.16511 -0.20361,-0.3901 -0.20361,-0.6749 0,-0.17748 0.0239,-0.35046 0.0708,-0.51831 0.0481,-0.16785 0.11629,-0.32027 0.20516,-0.45785 0.1123,-0.17336 0.23913,-0.30486 0.37982,-0.3943 0.14192,-0.0894 0.2936,-0.13384 0.45527,-0.13384 0.14192,0 0.26197,0.0319 0.3607,0.0966 0.1,0.0633 0.18462,0.16231 0.25373,0.29714 z m 4.00802,0.13022 h 0.66818 l -0.20929,1.18236 -0.24236,0.86248 h -0.47749 l 0.0517,-0.86248 z m -10.45879,0.71366 c 0.19128,0 0.33869,0.056 0.44235,0.16743 0.10366,0.11143 0.15554,0.26852 0.15554,0.47077 0,0.044 -0.004,0.0926 -0.01,0.14624 -0.005,0.0536 -0.0128,0.11239 -0.0238,0.1757 l -0.24598,1.40715 h -0.66456 l 0.20929,-1.20509 c 0.0148,-0.0784 0.0257,-0.14426 0.0331,-0.19792 0.009,-0.0551 0.0129,-0.0986 0.0129,-0.13023 0,-0.0881 -0.0222,-0.15596 -0.0667,-0.20412 -0.0432,-0.0482 -0.10479,-0.0724 -0.18501,-0.0724 -0.13698,0 -0.25474,0.0596 -0.35346,0.17932 -0.0975,0.11833 -0.16535,0.28301 -0.20361,0.49351 l -0.19999,1.13688 h -0.66455 l 0.40359,-2.31148 h 0.66611 l -0.061,0.33848 c 0.12217,-0.13346 0.24504,-0.23247 0.36845,-0.29714 0.12341,-0.0647 0.25254,-0.0972 0.38706,-0.0972 z m 2.10633,0 c 0.14192,0 0.2816,0.011 0.41858,0.0331 0.13822,0.0206 0.27706,0.0524 0.41651,0.0951 l -0.0982,0.57361 c -0.12958,-0.0688 -0.25872,-0.12078 -0.38706,-0.15658 -0.12835,-0.0358 -0.25007,-0.0537 -0.36484,-0.0537 -0.13081,0 -0.23176,0.0194 -0.30334,0.0579 -0.0703,0.0372 -0.10542,0.0906 -0.10542,0.16071 0,0.0412 0.0195,0.0744 0.0589,0.0992 0.0395,0.0248 0.11755,0.051 0.23358,0.0786 l 0.12041,0.0248 c 0.2678,0.0633 0.45539,0.14502 0.56275,0.24546 0.10737,0.0991 0.16072,0.23748 0.16072,0.41497 0,0.26829 -0.0944,0.47807 -0.28319,0.62942 -0.18881,0.14996 -0.45282,0.22479 -0.7922,0.22479 -0.14192,0 -0.28702,-0.0124 -0.43511,-0.0372 -0.14809,-0.0248 -0.29894,-0.0621 -0.45321,-0.11162 l 0.0997,-0.57981 c 0.1197,0.0784 0.24717,0.13787 0.38292,0.17777 0.13699,0.0399 0.27749,0.0594 0.42065,0.0594 0.13945,0 0.24436,-0.0181 0.31471,-0.0553 0.0703,-0.0372 0.10542,-0.0918 0.10542,-0.1633 0,-0.0496 -0.02,-0.0883 -0.0594,-0.11575 -0.0395,-0.0275 -0.12099,-0.0554 -0.24443,-0.0842 l -0.11989,-0.0248 c -0.23694,-0.055 -0.40626,-0.13661 -0.50746,-0.24391 -0.1012,-0.10731 -0.15193,-0.25559 -0.15193,-0.44545 0,-0.25728 0.087,-0.45532 0.26096,-0.59428 0.17525,-0.13896 0.42526,-0.20877 0.74983,-0.20877 z m 6.49366,0 c 0.28014,0 0.50249,0.0836 0.66663,0.25011 0.16536,0.16647 0.24804,0.39078 0.24804,0.67283 0,0.055 -0.003,0.11328 -0.0109,0.17518 -0.006,0.0605 -0.0169,0.12707 -0.0315,0.19999 v 5.1e-4 l -0.0222,0.11731 h -1.55133 c 0,0.008 -8e-4,0.0207 -0.002,0.0372 -0.001,0.0151 -0.002,0.0269 -0.002,0.0351 0,0.14997 0.0402,0.26212 0.1204,0.33641 0.0814,0.0743 0.20318,0.11162 0.36484,0.11162 0.13945,0 0.28654,-0.0235 0.4408,-0.0703 0.15549,-0.0468 0.31804,-0.11662 0.48834,-0.20877 l -0.1018,0.57412 c -0.16167,0.066 -0.32275,0.11459 -0.48318,0.14625 -0.1592,0.033 -0.32142,0.0496 -0.48679,0.0496 -0.32333,0 -0.57335,-0.0831 -0.74982,-0.2496 -0.17525,-0.16648 -0.26252,-0.40184 -0.26252,-0.7059 0,-0.17611 0.0276,-0.34702 0.0832,-0.51211 0.0568,-0.16649 0.13861,-0.31821 0.24598,-0.45579 0.12711,-0.1651 0.27931,-0.29039 0.45579,-0.37569 0.17771,-0.0853 0.37417,-0.12815 0.59014,-0.12815 z m -11.26029,0.0558 h 0.66662 l -0.40566,2.31148 h -0.66456 z m 6.25491,0 h 0.66663 l -0.40566,2.31148 h -0.66456 z m 4.93355,0.43563 c -0.12958,0 -0.23992,0.0401 -0.33125,0.11989 -0.0901,0.0784 -0.15909,0.19472 -0.20722,0.34881 h 0.8568 c 0.004,-0.0179 0.006,-0.0359 0.007,-0.0537 0.003,-0.0193 0.004,-0.0379 0.004,-0.0558 0,-0.11006 -0.0297,-0.19734 -0.0889,-0.262 -0.0592,-0.0647 -0.1396,-0.0971 -0.24081,-0.0971 z m -2.75487,0.0455 c -0.16784,0 -0.30585,0.0866 -0.41445,0.25994 -0.10859,0.17197 -0.16278,0.39282 -0.16278,0.66249 0,0.14033 0.0288,0.24764 0.0868,0.32194 0.0592,0.0729 0.14421,0.10955 0.25528,0.10956 0.17006,-1.9e-4 0.30894,-0.0875 0.41496,-0.262 0.10737,-0.17474 0.16123,-0.40319 0.16123,-0.68523 0,-0.12795 -0.0305,-0.22766 -0.0909,-0.29921 -0.0592,-0.0716 -0.14274,-0.10749 -0.25011,-0.10749 z m 4.27622,1.09606 h 0.66663 l -0.12764,0.73432 h -0.66869 z" />
    <path
       id="rect1-26-6-2"
       style="fill:none;fill-opacity:1;stroke:none;stroke-width:0.264583"
       d="m 123.97332,104.775 c -0.96153,0 -1.73582,0.77429 -1.73582,1.73581 v 7.90495 c 0.83553,3.94971 2.56053,5.90566 9.65161,6.14897 5.41099,0.18568 10.12439,-1.97186 13.50409,-4.14031 v -9.91361 c 0,-0.96152 -0.77429,-1.73581 -1.73581,-1.73581 z" />
    <path
       style="display:inline;fill:#ffffff;fill-opacity:1;stroke-width:0.264583"
       d="m 139.97464,115.61204 c 0,0 -4.74116,2.20126 -8.42403,2.20126 -3.68287,0 -6.8782,-1.60739 -6.90009,-4.36018 -0.0222,-2.7984 3.94529,-4.85954 6.24883,-5.55229 2.60497,-0.78341 8.04714,-1.5397 10.00659,0.11265 3.51516,2.96423 -0.42332,5.95382 -0.42332,5.69363 l -0.0423,1.0583 c 0,0 3.00423,-1.52359 3.00556,-4.02152 0.001,-2.61774 -3.78834,-5.13889 -10.17652,-3.78494 -3.35873,0.71187 -9.42966,2.76242 -9.42311,6.79049 0.007,4.02152 3.76753,5.20682 7.23874,5.16448 3.47121,-0.0423 8.88968,-2.03192 8.88968,-2.03192 z"
       id="path1-4-0-9" />
    <path
       id="path2-0-5-1-9"
       style="fill:#ffffff;fill-opacity:1;stroke:none;stroke-width:0.075194;stroke-dasharray:none;stroke-opacity:1;paint-order:stroke fill markers"
       d="m 133.79263,109.54086 -1.24489,0.51728 -0.17518,0.53847 -0.14676,-0.24236 0.11317,-0.20567 -1.34617,0.49506 -1.85518,1.3255 -2.10789,0.56896 -1.00148,1.33893 0.0672,1.16841 0.0305,0.0336 0.55087,-0.24495 1.2945,-0.009 0.14831,-0.28525 3.68711,-0.34468 0.4284,-0.37001 -0.25115,-0.10748 0.0434,-0.0424 0.61599,0.0258 v 0 l -0.69815,0.64905 -3.63802,0.31368 -0.1664,0.33693 h -1.45521 l -0.37879,0.27388 1.18753,0.83354 2.93573,0.0625 2.40089,0.73329 3.48661,-1.22576 0.97565,-0.34313 0.41548,-0.56276 -1.77147,-0.62167 1.74977,-0.32659 0.5395,-0.68317 -2.6169,-0.93172 1.69602,-0.25011 0.40721,-0.53847 -3.74705,-1.24696 -0.25839,-0.39015 z m -1.15342,2.10375 -0.48886,0.36329 -0.0971,0.30334 -0.83922,-0.12816 z" />
    <path
       style="fill:#ffffff;fill-opacity:1;stroke:none;stroke-width:0.075194;stroke-dasharray:none;stroke-opacity:1;paint-order:stroke fill markers"
       d="m 138.73491,107.73111 -4.70551,1.75644 -0.0475,0.17417 0.18608,0.32428 2.21381,0.72314 z"
       id="path3-3-4-9-8" />
  </g>
</svg>
