<?xml version="1.0" encoding="UTF-8" standalone="no"?>
<!-- Created with Inkscape (http://www.inkscape.org/) -->

<svg
   width="25.352999mm"
   height="25.355009mm"
   viewBox="0 0 25.352999 25.355009"
   version="1.1"
   id="svg1"
   xml:space="preserve"
   xmlns="http://www.w3.org/2000/svg"
   xmlns:svg="http://www.w3.org/2000/svg"><defs
     id="defs1" /><g
     id="layer1"
     transform="translate(-95.802065,-192.65423)"><path
       style="fill:#000000"
       d="m 107.71636,217.98726 c -3.98531,-0.24847 -7.61064,-2.33928 -9.806931,-5.65585 -2.809823,-4.24306 -2.809823,-9.75749 0,-14.00055 1.852066,-2.79677 4.754681,-4.75441 8.039511,-5.42215 4.56923,-0.92885 9.28232,0.72512 12.26739,4.30501 2.88863,3.46422 3.71843,8.2183 2.1741,12.45593 -1.50795,4.13783 -5.07062,7.20735 -9.38266,8.08391 -1.06424,0.21634 -2.23573,0.29952 -3.29141,0.2337 z m 1.75683,-1.26806 c 1.51297,-0.15085 2.7873,-0.51154 4.08477,-1.15613 0.9453,-0.46964 1.69571,-0.9723 2.47338,-1.65679 l 0.15523,-0.13663 -3.1397,-3.13976 c -1.72684,-1.72686 -3.14686,-3.13976 -3.15561,-3.13976 -0.009,0 -0.0159,0.1143 -0.0159,0.254 v 0.254 h -0.52917 -0.52917 v -0.79953 -0.79954 l -0.16942,-0.16843 -0.16942,-0.16843 -0.26437,0.26373 c -0.25912,0.2585 -0.26549,0.26712 -0.32036,0.43351 -0.20018,0.607 -0.64824,1.05564 -1.24601,1.24763 l -0.16933,0.0544 -2.85398,2.8541 -2.85398,2.8541 0.15523,0.13664 c 0.77767,0.68448 1.52808,1.18714 2.47338,1.65678 0.9705,0.48215 1.96504,0.81519 3.00526,1.00634 0.49363,0.0907 0.77938,0.12501 1.49225,0.17911 0.19369,0.0147 1.35132,-0.007 1.57692,-0.0293 z m -4.46289,-8.86891 c -0.47087,-0.24778 -0.75705,-0.62357 -0.89485,-1.17507 -0.0557,-0.22298 -0.0774,-0.74827 -0.0405,-0.97827 0.0343,-0.21361 0.14419,-0.51932 0.2589,-0.72054 0.10786,-0.18918 0.3373,-0.4424 0.50222,-0.55427 0.40131,-0.27221 0.90956,-0.39461 1.41337,-0.34036 0.12455,0.0134 0.23408,0.0291 0.24342,0.0349 0.009,0.006 0.017,0.003 0.017,-0.007 0,-0.009 -1.45576,-1.47288 -3.23501,-3.25211 l -3.23501,-3.23495 -0.136631,0.15523 c -0.684488,0.77767 -1.187148,1.52809 -1.656784,2.47339 -0.649793,1.30792 -1.00152,2.55628 -1.159836,4.11651 -0.03365,0.33159 -0.03365,1.59458 0,1.92617 0.158316,1.56023 0.510043,2.80859 1.159836,4.11651 0.469635,0.9453 0.972295,1.69571 1.65678,2.47338 l 0.136625,0.15523 2.55689,-2.55682 2.55689,-2.55682 z m -6.078108,-2.50857 v -2.65642 l 1.180038,8e-5 c 2.05036,1.3e-4 2.34687,0.0478 2.73411,0.43946 0.27762,0.2808 0.38158,0.53655 0.39823,0.97968 0.009,0.2457 0.004,0.31244 -0.0341,0.46567 -0.0598,0.2384 -0.15289,0.41651 -0.30373,0.58113 -0.20202,0.22047 -0.50977,0.38463 -0.85247,0.45471 -0.0699,0.0143 -0.14038,0.03 -0.15674,0.0349 -0.0172,0.005 0.0454,0.0602 0.14783,0.13002 0.22711,0.15492 0.45784,0.38667 0.63765,0.64047 0.14206,0.20053 0.99051,1.54826 0.99051,1.57339 0,0.007 -0.28041,0.0133 -0.62314,0.0133 h -0.62313 l -0.58211,-0.86254 c -0.62483,-0.92585 -0.76204,-1.10813 -0.91161,-1.21104 -0.16489,-0.11344 -0.24612,-0.1326 -0.60964,-0.14375 l -0.333375,-0.0102 v 1.11377 1.11378 h -0.529167 -0.529166 z m 2.598398,-0.43318 c 0.29994,-0.0345 0.48193,-0.15018 0.58026,-0.36888 0.0702,-0.15618 0.0694,-0.44271 -0.002,-0.60103 -0.0685,-0.15261 -0.20455,-0.2686 -0.37777,-0.3221 -0.1264,-0.0391 -0.19719,-0.0422 -0.93881,-0.0422 h -0.802105 v 0.67733 0.67734 l 0.682625,-1.6e-4 c 0.37544,-9e-5 0.76129,-0.009 0.85744,-0.0203 z m 15.65792,7.82034 c 0.61596,-0.72506 1.08617,-1.44133 1.52178,-2.31815 0.64979,-1.30792 1.00152,-2.55628 1.15984,-4.11651 0.0336,-0.33159 0.0336,-1.59458 0,-1.92617 -0.15832,-1.56023 -0.51005,-2.80859 -1.15984,-4.11651 -0.33921,-0.68277 -0.67782,-1.23389 -1.10514,-1.79867 -0.19635,-0.25953 -0.60201,-0.74827 -0.66318,-0.799 -0.0256,-0.0212 -0.62371,0.56747 -3.54868,3.49265 -2.96633,2.96653 -3.51793,3.52727 -3.51793,3.57622 v 0.0581 h 1.05833 1.05833 v -1.04775 -1.04775 h 0.52917 0.52917 v 2.65642 2.65641 h -0.52917 -0.52917 v -1.16416 -1.16417 h -1.05833 -1.05833 v 0.16389 0.16389 l 3.51793,3.51817 c 2.92497,2.92517 3.52311,3.51386 3.54868,3.49265 0.0169,-0.014 0.12786,-0.13982 0.24654,-0.27952 z m -1.47246,-4.64719 c -0.996,-0.0955 -1.62334,-0.656 -1.78647,-1.59608 -0.0162,-0.0934 -0.0278,-0.17115 -0.0257,-0.17282 0.002,-0.002 0.2133,-0.0234 0.46941,-0.0483 0.25612,-0.0249 0.48577,-0.0497 0.51034,-0.0551 0.0396,-0.009 0.0486,0.006 0.0793,0.13278 0.10632,0.43697 0.38114,0.72556 0.78064,0.81975 0.28567,0.0674 0.75253,0.0273 0.98031,-0.0842 0.14054,-0.0688 0.29993,-0.22743 0.36185,-0.36021 0.098,-0.21013 0.0521,-0.48399 -0.10307,-0.61451 -0.14995,-0.12618 -0.31005,-0.18529 -0.99507,-0.36738 -0.57146,-0.1519 -0.74648,-0.20954 -1.00051,-0.32951 -0.44437,-0.20985 -0.73456,-0.54028 -0.84822,-0.96585 -0.045,-0.16853 -0.0508,-0.5165 -0.0112,-0.6755 0.10431,-0.41898 0.38385,-0.7621 0.77747,-0.95429 0.55759,-0.27226 1.52772,-0.29832 2.15223,-0.0578 0.41226,0.15875 0.75017,0.49432 0.88448,0.87833 0.0481,0.13745 0.10382,0.40226 0.10382,0.49315 v 0.0593 l -0.43921,0.0135 c -0.24156,0.007 -0.47863,0.0184 -0.52683,0.0244 l -0.0876,0.0109 -0.0262,-0.11207 c -0.0577,-0.24644 -0.2029,-0.45532 -0.37908,-0.5452 -0.20311,-0.10362 -0.63887,-0.13904 -0.93592,-0.0761 -0.4216,0.0894 -0.63438,0.35499 -0.51441,0.64218 0.0939,0.22475 0.31797,0.33081 1.16955,0.55354 0.88642,0.23184 1.20172,0.37383 1.48981,0.67091 0.26246,0.27064 0.37613,0.55804 0.39277,0.99299 0.0126,0.33011 -0.0283,0.53215 -0.1629,0.80342 -0.25017,0.50434 -0.7011,0.79599 -1.38752,0.89742 -0.22203,0.0328 -0.69324,0.0442 -0.92206,0.0222 z m -9.32804,-1.39045 0.56635,-0.56606 v -0.1608 c 0,-0.19038 -0.0606,-0.44567 -0.14067,-0.59282 -0.18134,-0.33319 -0.47645,-0.49963 -0.85208,-0.48056 -0.23645,0.012 -0.38667,0.0808 -0.56452,0.2587 -0.22929,0.22928 -0.31343,0.47972 -0.31343,0.93285 0,0.45316 0.0842,0.70363 0.31343,0.9328 0.11795,0.11789 0.31574,0.23929 0.39296,0.24118 0.0174,4.2e-4 0.28646,-0.25396 0.59796,-0.56529 z m 2.2645,-2.26448 0.16451,-0.16355 v -0.78895 -0.78896 h 0.52917 0.52917 v 0.24342 c 0,0.13388 0.007,0.24341 0.0159,0.24341 0.009,0 1.42877,-1.41289 3.15561,-3.13976 l 3.1397,-3.13975 -0.15523,-0.13664 c -0.77767,-0.68448 -1.52808,-1.18714 -2.47338,-1.65678 -1.30793,-0.64979 -2.55629,-1.00152 -4.11652,-1.15984 -0.33159,-0.0336 -1.59458,-0.0336 -1.92617,0 -1.56022,0.15832 -2.80858,0.51005 -4.11651,1.15984 -0.9453,0.46964 -1.69571,0.9723 -2.47339,1.65679 l -0.15523,0.13663 3.84879,3.84884 c 2.11684,2.11686 3.85336,3.84884 3.85894,3.84884 0.006,0 0.0842,-0.0736 0.17464,-0.16354 z"
       id="path1" /></g></svg>
