<?xml version="1.0" encoding="UTF-8" standalone="no"?>
<!-- Created with Inkscape (http://www.inkscape.org/) by GhostOverFlow256-->

<svg
   width="10.526885mm"
   height="11.08369mm"
   viewBox="0 0 39.786653 41.891111"
   version="1.1"
   id="svg5"
   xml:space="preserve"
   xmlns:inkscape="http://www.inkscape.org/namespaces/inkscape"
   xmlns:sodipodi="http://sodipodi.sourceforge.net/DTD/sodipodi-0.dtd"
   xmlns="http://www.w3.org/2000/svg"
   xmlns:svg="http://www.w3.org/2000/svg"><sodipodi:namedview
     id="namedview7"
     pagecolor="#505050"
     bordercolor="#eeeeee"
     borderopacity="1"
     inkscape:showpageshadow="0"
     inkscape:pageopacity="0"
     inkscape:pagecheckerboard="0"
     inkscape:deskcolor="#505050"
     inkscape:document-units="mm"
     showgrid="false" /><defs
     id="defs2" /><g
     inkscape:label="Layer 1"
     inkscape:groupmode="layer"
     id="layer1"
     transform="translate(-438.95653,-568.65578)"><path
       style="fill:#000000;stroke-width:0.32"
       d="m 443.71688,610.28574 -0.62633,-0.24497 2.70633,-0.21063 c 1.48848,-0.11584 3.96633,-0.21149 5.50633,-0.21254 l 2.8,-0.002 v 0.27304 0.27305 l -2.44828,0.20695 c -3.18144,0.26894 -7.14418,0.2275 -7.93805,-0.083 z m 20.06633,-1.22437 -1.36,-0.12249 -0.0534,-1.8216 c -0.13292,-4.538 -0.2235,-5.88513 -0.4081,-6.06973 l -0.19823,-0.19823 -0.91953,0.54318 c -0.50574,0.29875 -1.14931,0.54318 -1.43015,0.54318 h -0.51063 l -0.0339,-0.56 c -0.0186,-0.308 -0.009,-0.94172 0.0208,-1.40826 l 0.0547,-0.84827 -0.32473,-0.2007 -0.32474,-0.2007 -0.34731,0.64897 -0.34732,0.64896 h -0.58955 c -0.32426,0 -0.75949,0.20474 -0.96717,0.45499 l -0.3776,0.45498 -1.26158,0.21314 -1.26158,0.21315 v 0.29796 0.29797 l 0.8,-0.20078 0.8,-0.20079 -5.1e-4,0.27469 c -2.9e-4,0.15108 -0.57629,0.81644 -1.28,1.47857 l -1.27949,1.20388 v 0.47612 0.47612 h -0.59562 -0.59563 l 0.15143,-0.79217 0.15144,-0.79217 0.80782,-0.80783 0.80783,-0.80783 h -0.61963 c -0.3408,0 -0.78853,-0.16889 -0.99496,-0.37532 l -0.37532,-0.37532 -0.82374,0.37532 c -0.45305,0.20643 -1.00404,0.37532 -1.22442,0.37532 h -0.40069 l 0.13265,-1.1362 0.13264,-1.1362 0.6031,0.5458 0.6031,0.54579 v -0.51713 -0.51713 l -0.67313,-0.62711 -0.67313,-0.62712 0.99313,-0.51357 0.99313,-0.51356 v -0.6129 c 0,-0.3371 -0.12681,-0.69127 -0.28179,-0.78706 -0.32606,-0.20151 -0.67882,-1.76296 -0.39081,-1.72992 0.10593,0.0122 0.43555,0.005 0.73248,-0.0158 l 0.53988,-0.0379 -0.15148,-1.04 -0.15148,-1.04 0.3142,-0.47073 0.3142,-0.47073 0.1941,0.1941 c 0.10676,0.10676 0.24905,0.86833 0.3162,1.69239 l 0.12209,1.49829 0.38039,0.45834 c 0.20921,0.25209 0.57875,0.45834 0.8212,0.45834 0.24245,0 0.44082,0.144 0.44082,0.32 0,0.176 0.1728,0.32 0.384,0.32 h 0.384 l -0.384,-0.384 c -0.2112,-0.2112 -0.384,-0.5712 -0.384,-0.8 v -0.416 h 0.48 0.48 v 0.8 0.8 h 0.5348 c 0.29415,0 0.79815,-0.23832 1.12,-0.5296 l 0.5852,-0.52959 v 0.75359 0.7536 l 0.384,-0.384 c 0.2112,-0.2112 0.69578,-0.384 1.07685,-0.384 h 0.69284 l 0.80752,-0.63519 c 0.44413,-0.34936 1.79045,-1.15666 2.99182,-1.79399 l 2.18431,-1.1588 0.118,0.35399 0.11799,0.35399 h 0.91445 0.91445 l 0.18183,0.2942 0.18182,0.2942 -0.48093,0.48094 -0.48094,0.48094 1.03799,0.62489 c 0.5709,0.34369 1.2525,0.69038 1.51467,0.77042 l 0.47666,0.14552 -0.0984,1.14213 -0.0984,1.14213 0.34174,0.2112 0.34173,0.2112 v -0.80298 -0.80299 l 0.56,-0.32617 0.56,-0.32617 -0.4373,-0.01 -0.43731,-0.01 0.16172,-0.84596 0.16171,-0.84596 -0.84441,-0.74828 -0.84441,-0.74828 0.46472,-0.30464 c 0.2556,-0.16756 0.57846,-0.23436 0.71747,-0.14845 0.13901,0.0859 0.47345,0.0327 0.74321,-0.11827 l 0.49047,-0.27448 -1.0928,-0.42878 -1.09279,-0.42878 -0.13524,-1.86968 -0.13524,-1.86967 -0.75568,-0.80439 -0.75568,-0.80438 h -0.72533 c -0.39894,0 -0.81434,-0.144 -0.92311,-0.32 -0.10877,-0.176 -0.46877,-0.32 -0.8,-0.32 -0.72343,0 -0.82676,-0.15265 -1.08309,-1.6 l -0.19836,-1.12 0.36962,0.72 c 0.2033,0.396 0.49348,0.72 0.64486,0.72 0.15137,0 1.11282,-0.864 2.13655,-1.92 l 1.86133,-1.92 h 1.55475 1.55474 l 1.06037,0.72 1.06037,0.72 0.50464,1.31218 0.50464,1.31218 -0.3786,1.40602 c -0.20823,0.77331 -0.6601,1.9578 -1.00416,2.63221 l -0.62555,1.22618 0.36539,0.44026 0.36538,0.44026 -0.20801,0.65535 -0.208,0.65536 h 0.34157 c 0.18786,0 0.34156,-0.144 0.34156,-0.32 0,-0.176 0.2006,-0.32 0.44576,-0.32 h 0.44577 l 0.18232,0.47512 0.18232,0.47512 -0.63705,0.34093 -0.63705,0.34094 0.18858,0.30512 0.18857,0.30512 0.78039,-0.19587 0.78039,-0.19586 v 0.51175 0.51175 l 1.10349,0.72294 1.10349,0.72294 -0.0135,2.8791 c -0.007,1.58351 -0.0782,2.98385 -0.15734,3.11187 l -0.14386,0.23276 -1.26549,-0.50635 -1.26549,-0.50635 -0.47251,0.18132 -0.4725,0.18131 0.18373,3.85317 0.18372,3.85317 -4.75187,-0.0559 c -2.61352,-0.0308 -5.36386,-0.11102 -6.11186,-0.1784 z m 3.69672,-8.00869 0.0967,-1.677 h -1.06561 -1.06561 l -0.56077,0.65494 -0.56077,0.65493 0.18551,0.30017 0.18552,0.30017 0.78414,-0.0649 0.78414,-0.0649 v -0.4102 c 0,-0.56339 0.61868,-0.5181 0.84112,0.0616 l 0.18104,0.47177 -0.51108,0.51108 c -0.28109,0.2811 -0.51108,0.65536 -0.51108,0.83169 v 0.32061 l 0.56,-0.10646 0.56,-0.10646 z m 3.14113,1.02623 -0.19063,-0.49676 0.52245,-0.79736 0.52245,-0.79736 -0.78705,0.3586 -0.78704,0.3586 0.13731,0.93553 0.1373,0.93552 h 0.31792 0.31791 z m 1.29549,-0.99656 -0.21334,-0.21333 -0.21333,0.21333 -0.21333,0.21333 h 0.42666 0.42667 z m -17.34903,-1.04933 0.56351,-0.62267 -0.75391,0.0473 c -0.71731,0.045 -1.21834,0.43558 -1.22901,0.95802 -0.01,0.46694 0.86355,0.23156 1.41941,-0.38266 z m 17.77569,0.48155 c 0,-0.0776 -0.16625,-0.24387 -0.36944,-0.36945 l -0.36945,-0.22833 0.22833,0.36945 c 0.22798,0.36888 0.51056,0.49525 0.51056,0.22833 z m -21.92,-1.45889 0.19777,-0.32 h -0.33888 c -0.18639,0 -0.33889,0.144 -0.33889,0.32 0,0.176 0.0635,0.32 0.14111,0.32 0.0776,0 0.23012,-0.144 0.33889,-0.32 z m 1.44,0.17889 c 0,-0.0776 -0.144,-0.23011 -0.32,-0.33889 l -0.32,-0.19777 v 0.33888 c 0,0.18639 0.144,0.33889 0.32,0.33889 0.176,0 0.32,-0.0635 0.32,-0.14111 z m 13.87276,-1.06108 0.59275,-0.16958 0.26286,0.42531 0.26285,0.42531 0.50439,-0.41861 c 0.58688,-0.48707 0.65657,-1.16842 0.15142,-1.48061 l -0.35296,-0.21815 -1.56704,0.73396 c -0.86186,0.40368 -1.56703,0.86875 -1.56703,1.0335 v 0.29953 l 0.56,-0.23054 c 0.308,-0.1268 0.82674,-0.30685 1.15276,-0.40012 z m 5.16724,0.24219 0.19777,-0.32 h -0.33888 c -0.18639,0 -0.33889,0.144 -0.33889,0.32 0,0.176 0.0635,0.32 0.14111,0.32 0.0776,0 0.23012,-0.144 0.33889,-0.32 z m -16.34617,-0.19424 c 0.27839,-0.10683 0.50617,-0.30286 0.50617,-0.43562 v -0.24139 l -0.79627,0.15222 -0.79627,0.15221 0.17516,0.28341 c 0.20787,0.33636 0.25503,0.34097 0.91121,0.0892 z m 18.00477,-0.82576 -0.16807,-0.42 -0.0253,0.61333 -0.0253,0.61334 0.19333,-0.19334 c 0.10633,-0.10633 0.1177,-0.38233 0.0253,-0.61333 z m -0.5386,-0.9 c 0,-0.176 -0.144,-0.32 -0.32,-0.32 -0.176,0 -0.32,0.144 -0.32,0.32 0,0.176 0.144,0.32 0.32,0.32 0.176,0 0.32,-0.144 0.32,-0.32 z m -6.08,-0.48 c 0,-0.264 -0.12859,-0.48 -0.28576,-0.48 -0.15717,0 -0.36865,0.216 -0.46996,0.48 l -0.18419,0.48 h 0.46995 0.46996 z m -14.08,0 c 0,-0.088 -0.072,-0.16 -0.16,-0.16 -0.088,0 -0.16,0.072 -0.16,0.16 0,0.088 0.072,0.16 0.16,0.16 0.088,0 0.16,-0.072 0.16,-0.16 z m 20.27043,-4.1738 c -0.10422,-0.27159 -0.25813,-0.42517 -0.342,-0.34129 -0.0839,0.0839 -0.0576,0.30609 0.0584,0.4938 0.31554,0.51055 0.49996,0.41136 0.28359,-0.15251 z m -1.07043,-5.08731 c 0,-0.0776 -0.144,-0.23012 -0.32,-0.33889 l -0.32,-0.19777 v 0.33888 c 0,0.18639 0.144,0.33889 0.32,0.33889 0.176,0 0.32,-0.0635 0.32,-0.14111 z m -3.496,-2.18689 c -0.0396,-0.38262 -0.47849,-0.30852 -0.616,0.104 l -0.128,0.384 0.384,-0.128 c 0.2112,-0.0704 0.3732,-0.2324 0.36,-0.36 z m 3.496,-0.392 c 0,-0.088 -0.072,-0.16 -0.16,-0.16 -0.088,0 -0.16,0.072 -0.16,0.16 0,0.088 0.072,0.16 0.16,0.16 0.088,0 0.16,-0.072 0.16,-0.16 z m -23.57047,23.28855 c -0.2738,-0.65529 -0.5611,-1.55529 -0.63845,-2 -0.0773,-0.4447 -0.30691,-1.27655 -0.51014,-1.84855 l -0.36951,-1.04 h -3.50905 -3.50905 l 0.192,-0.192 c 0.1056,-0.1056 0.69572,-0.192 1.31138,-0.192 h 1.11938 l 0.18299,-0.47688 c 0.10065,-0.26228 0.10203,-0.60788 0.003,-0.768 l -0.17992,-0.29112 h -1.28 -1.28 l 0.18982,-0.30713 0.18981,-0.30713 2.55043,0.15766 2.55043,0.15766 0.63575,-0.34024 0.63575,-0.34024 0.96289,0.49793 0.96289,0.49793 v 0.40058 c 0,0.22032 -0.22659,0.72408 -0.50353,1.11947 l -0.50353,0.71889 0.55642,1.51231 c 0.30603,0.83177 0.67662,1.64911 0.82353,1.81631 l 0.26711,0.304 v -0.544 -0.544 h 0.32 0.32 v 0.64 0.64 h -0.50543 -0.50542 l 0.21085,0.96 0.21085,0.96 h -0.20175 c -0.11097,0 -0.42577,-0.53615 -0.69957,-1.19145 z m -0.47,-5.71445 c 0.0658,-0.0586 0.0343,-0.32871 -0.0699,-0.6003 l -0.18949,-0.4938 h -2.25005 -2.25004 v 0.61654 0.61653 l 0.56,0.11562 c 0.60708,0.12533 4.00427,-0.0806 4.19953,-0.25459 z m -1.9862,6.37257 c -0.11733,-0.11733 -0.21333,-0.32882 -0.21333,-0.46996 v -0.25662 l 0.48,0.18419 c 0.264,0.10131 0.48,0.31279 0.48,0.46996 0,0.33549 -0.44084,0.37825 -0.74667,0.0724 z m 6.66667,-0.42667 c 0.10877,-0.176 0.26977,-0.32 0.35777,-0.32 0.088,0 0.071,0.144 -0.0378,0.32 -0.10877,0.176 -0.26977,0.32 -0.35777,0.32 -0.088,0 -0.071,-0.144 0.0378,-0.32 z m -5.40576,-0.82617 c -0.25778,-0.67175 -0.24611,-0.77383 0.0884,-0.77383 0.15547,0 0.35799,0.288 0.45004,0.64 l 0.16736,0.64 h -0.2558 c -0.14069,0 -0.34321,-0.22778 -0.45004,-0.50617 z m 4.02576,-0.15383 c 0.077,-0.231 0.329,-0.483 0.56,-0.56 l 0.42,-0.14 -0.14,0.42 c -0.077,0.231 -0.329,0.483 -0.56,0.56 l -0.42,0.14 z m -1.02,-1.24494 c 0,-0.16772 0.16739,-0.67233 0.37198,-1.12135 l 0.37198,-0.81641 -0.23814,-0.23815 -0.23815,-0.23814 -0.45383,0.62065 -0.45384,0.62066 v -0.50198 c 0,-0.64899 0.57902,-1.09464 1.68,-1.29302 l 0.88,-0.15857 v 0.43563 0.43562 h -0.35424 -0.35423 l 0.17521,0.45661 0.17522,0.4566 -0.46098,0.38258 c -0.25354,0.21042 -0.46098,0.58094 -0.46098,0.82339 0,0.24245 -0.144,0.44082 -0.32,0.44082 -0.176,0 -0.32,-0.13722 -0.32,-0.30494 z m -1.6,-7.19617 c 0,-0.25362 0.144,-0.55012 0.32,-0.65889 l 0.32,-0.19777 v 0.65889 0.65888 h -0.32 c -0.176,0 -0.32,-0.2075 -0.32,-0.46111 z m 1.48463,-0.72092 c -0.36038,-0.36038 -0.21948,-0.73797 0.27537,-0.73797 0.264,0 0.48,0.1355 0.48,0.30112 0,0.40351 -0.49971,0.69251 -0.75537,0.43685 z m 20.27537,-1.85797 v -0.48 h 0.32 0.32 v 0.48 0.48 h -0.32 -0.32 z m -20.69333,-0.0533 0.21333,-0.21334 0.21333,0.21334 0.21334,0.21333 h -0.42667 -0.42667 z m 9.33333,-0.42667 c 0.10877,-0.176 0.33327,-0.32 0.49889,-0.32 0.16561,0 0.30111,0.144 0.30111,0.32 v 0.32 h -0.49888 -0.49889 z m -1.69144,-0.37944 -0.35389,-0.35389 0.19535,-0.99334 0.19536,-0.99333 0.58731,-0.41814 0.58731,-0.41815 v -0.62872 -0.62871 l 0.80135,-0.36512 0.80136,-0.36512 0.23864,0.25579 0.23865,0.25579 -0.4,0.14286 c -0.22,0.0786 -0.4,0.33405 -0.4,0.56774 0,0.23369 -0.44692,0.80095 -0.99317,1.26058 l -0.99316,0.8357 0.39235,0.47275 0.39234,0.47275 h -0.39341 -0.39342 l 0.18026,0.46975 0.18026,0.46975 -0.2548,0.15748 c -0.14014,0.0866 -0.41405,-0.002 -0.60869,-0.19642 z m 11.33965,-0.0903 -0.18026,-0.46975 0.29205,-0.1805 0.29205,-0.1805 -0.18165,-0.47338 -0.18166,-0.47338 0.4841,0.18577 c 0.26625,0.10217 0.55363,0.45166 0.63861,0.77664 l 0.15452,0.59088 -0.34698,0.34699 c -0.47186,0.47186 -0.75641,0.43587 -0.97078,-0.12277 z m -14.92821,-0.55201 c 0,-0.24763 0.16155,-0.61179 0.35899,-0.80923 l 0.359,-0.359 0.441,0.16923 0.44101,0.16923 v -0.7009 -0.7009 l 0.344,0.11466 c 0.38417,0.12806 0.39293,0.24104 0.10705,1.38011 l -0.20043,0.79856 h -0.41914 c -0.23052,0 -0.64691,0.0874 -0.92531,0.19424 l -0.50617,0.19423 z m 6.18001,-0.13919 -0.19991,-0.52094 0.64356,-0.51906 c 0.57697,-0.46535 1.11346,-1.38561 1.1887,-2.03905 0.0152,-0.132 0.13564,-0.24 0.26764,-0.24 0.132,0 0.32963,0 0.43918,0 0.10955,0 0.0263,0.20838 -0.18512,0.46306 l -0.3843,0.46306 0.0848,0.73694 c 0.0466,0.40532 -0.0238,1.06094 -0.15645,1.45694 l -0.24125,0.72 h -0.62848 -0.62848 z m -11.62001,-0.11905 v -0.42667 l 0.21333,0.21334 0.21334,0.21333 -0.21334,0.21333 -0.21333,0.21334 z m 2.08,-0.64 c 0.10877,-0.176 0.33327,-0.32 0.49889,-0.32 0.16561,0 0.30111,0.144 0.30111,0.32 v 0.32 h -0.49889 -0.49888 z m 12.83402,-0.50674 -0.19445,-0.50674 0.38021,0.12674 c 0.20912,0.0697 0.43722,0.29774 0.50689,0.50674 l 0.12666,0.38 h -0.31243 c -0.17183,0 -0.39993,-0.22803 -0.50688,-0.50674 z m -14.07978,-0.31943 c -0.27294,-0.71125 -0.29483,-0.67677 0.76576,-1.20587 l 0.96,-0.47891 v 0.26124 c 0,0.14368 -0.216,0.34412 -0.48,0.44543 l -0.48,0.18419 v 0.65005 0.65004 h -0.28576 c -0.15717,0 -0.37317,-0.22778 -0.48,-0.50617 z m 10.36576,0.34617 c 0,-0.088 0.072,-0.16 0.16,-0.16 0.088,0 0.16,0.072 0.16,0.16 0,0.088 -0.072,0.16 -0.16,0.16 -0.088,0 -0.16,-0.072 -0.16,-0.16 z m 8,-0.16 v -0.42667 l 0.21333,0.21334 0.21334,0.21333 -0.21334,0.21333 -0.21333,0.21334 z m 9.6,0.0711 c 0,-0.13689 0.26499,-0.47578 0.58887,-0.75309 l 0.58888,-0.50421 0.53112,0.38837 c 0.29212,0.2136 0.53113,0.49729 0.53113,0.63041 v 0.24204 l -0.63968,-0.16728 -0.63968,-0.16728 -0.17921,0.28996 c -0.2192,0.35468 -0.78143,0.38423 -0.78143,0.0411 z m -23.60898,-0.44419 0.14231,-0.42693 h 0.53334 c 0.29333,0 0.56933,0.144 0.61333,0.32 l 0.08,0.32 -0.75564,0.10693 -0.75564,0.10692 z m 10.91565,-0.16026 0.21333,-0.21334 0.21333,0.21334 0.21334,0.21333 h -0.42667 -0.42667 z m 2.13333,-0.10667 v -0.42667 l 0.21333,0.21334 0.21334,0.21333 -0.21334,0.21333 -0.21333,0.21334 z m 2.42654,0.043 -0.25063,-0.40553 0.19205,-0.19204 0.19204,-0.19205 0.19333,0.19334 c 0.10634,0.10633 0.1327,0.37524 0.0586,0.59757 l -0.13475,0.40424 z m 7.17346,-0.36295 c 0,-0.176 0.1525,-0.32 0.33889,-0.32 h 0.33888 l -0.19777,0.32 c -0.10877,0.176 -0.26127,0.32 -0.33889,0.32 -0.0776,0 -0.14111,-0.144 -0.14111,-0.32 z m -13.04,-0.56263 c 0.93562,-0.58009 1.13857,-1.1997 0.48,-1.46544 l -0.4,-0.1614 0.36082,-0.0253 c 0.19845,-0.0139 0.54008,0.19074 0.75918,0.45474 l 0.39837,0.48 h 0.92081 0.92082 v 0.28082 c 0,0.15445 -0.216,0.46008 -0.48,0.67918 l -0.48,0.39836 v -0.51918 c 0,-0.62879 -0.23594,-0.63602 -1.28,-0.0392 -0.44,0.25153 -1.088,0.45859 -1.44,0.46015 l -0.64,0.003 0.88,-0.5456 z m 4.20037,0.0705 0.18884,-0.49212 -0.48824,-0.18735 -0.48823,-0.18735 -0.62857,-1.2321 -0.62857,-1.23209 -0.91961,0.18392 -0.91961,0.18392 0.16885,-0.8833 0.16886,-0.8833 0.38823,0.53094 0.38824,0.53094 0.60472,0.002 c 0.3326,10e-4 1.02013,0.21862 1.52784,0.4834 l 0.92312,0.48142 0.38633,-0.32062 0.38632,-0.32061 0.1993,0.19929 0.19929,0.1993 -0.32,0.59793 -0.32,0.59792 h 0.49126 l 0.49126,-1e-5 v 0.33004 c 0,0.18153 -0.216,0.41293 -0.48,0.51424 l -0.48,0.18419 v 0.60577 0.60576 h -0.51424 -0.51423 z m -11.32037,-0.30376 c 0,-0.22861 0.22778,-0.50306 0.50617,-0.60989 1.26984,-0.48729 1.52371,0.0841 0.29133,0.65565 l -0.7975,0.3699 z m -1.6,-0.004 c 0,-0.088 0.072,-0.16 0.16,-0.16 0.088,0 0.16,0.072 0.16,0.16 0,0.088 -0.072,0.16 -0.16,0.16 -0.088,0 -0.16,-0.072 -0.16,-0.16 z m 20.8,-0.16 v -0.42667 l 0.21334,0.21334 0.21333,0.21333 -0.21333,0.21333 -0.21334,0.21334 z m 3.84,-0.0189 v -0.33888 l 0.32,0.19777 c 0.176,0.10877 0.32,0.26127 0.32,0.33888 0,0.0776 -0.144,0.14112 -0.32,0.14112 -0.176,0 -0.32,-0.1525 -0.32,-0.33888 z m -27.2,-0.14111 c 0,-0.088 0.072,-0.16 0.16,-0.16 0.088,0 0.16,0.072 0.16,0.16 0,0.088 -0.072,0.16 -0.16,0.16 -0.088,0 -0.16,-0.072 -0.16,-0.16 z m 24.20463,-0.38203 c -0.11254,-0.11255 -0.20463,-0.39664 -0.20463,-0.6313 v -0.42667 h 0.48 0.48 v 0.46112 c 0,0.5346 -0.45673,0.89548 -0.75537,0.59685 z m -26.28463,-0.41797 -0.19777,-0.32 h 0.51777 0.51777 l -0.19777,0.32 c -0.10877,0.176 -0.25277,0.32 -0.32,0.32 -0.0672,0 -0.21123,-0.144 -0.32,-0.32 z m 4.8,0 -0.64,-0.27502 0.37383,-0.0225 c 0.2056,-0.0124 0.6016,-0.1099 0.88,-0.21673 l 0.50617,-0.19423 v 0.51423 c 0,0.5691 -0.17645,0.5997 -1.12,0.19424 z m -6.24,-0.16 c 0,-0.088 0.072,-0.16 0.16,-0.16 0.088,0 0.16,0.072 0.16,0.16 0,0.088 -0.072,0.16 -0.16,0.16 -0.088,0 -0.16,-0.072 -0.16,-0.16 z m 13.3893,-0.44227 -0.42325,-0.67773 h -0.88302 c -1.00843,0 -1.08427,-0.16447 -0.39411,-0.85464 l 0.48892,-0.48892 0.52426,0.43178 0.52426,0.43178 -0.23667,-1.28 c -0.13017,-0.704 -0.24573,-1.496 -0.2568,-1.76 -0.0111,-0.264 -0.16213,-0.66 -0.33569,-0.88 l -0.31556,-0.4 h 0.33301 c 0.18315,0 0.56078,-0.0874 0.83918,-0.19424 l 0.50617,-0.19423 v 0.61023 c 0,0.33563 -0.14281,0.75305 -0.31736,0.9276 l -0.31736,0.31736 0.34756,1.10664 c 0.19115,0.60865 0.47678,1.53263 0.63472,2.05328 l 0.28716,0.94664 -0.29109,0.29109 -0.29108,0.29109 z m -5.25545,-0.15049 -0.19601,-0.51079 0.51108,-0.51108 c 0.28109,-0.2811 0.51108,-0.77899 0.51108,-1.10644 v -0.59535 l 0.9294,-0.66179 c 0.51117,-0.36398 1.15917,-0.66179 1.44,-0.66179 h 0.5106 v 0.37333 0.37334 l -0.22127,-0.22128 -0.22128,-0.22127 -0.34225,1.04794 -0.34226,1.04794 -0.71647,-0.10011 -0.71647,-0.10012 v 0.30108 c 0,0.1656 0.324,0.51891 0.72,0.78514 0.84957,0.57116 0.71133,0.79574 -0.6584,1.06969 l -1.01174,0.20235 z m 21.62615,0.11276 c 0,-0.176 0.1355,-0.32 0.30111,-0.32 0.16562,0 0.39012,0.144 0.49889,0.32 l 0.19777,0.32 h -0.49888 -0.49889 z m -27.2,-0.64 v -0.42667 l 0.21333,0.21334 0.21334,0.21333 -0.21334,0.21333 -0.21333,0.21334 z m 4.18526,-0.18667 0.0253,-0.61333 0.16807,0.42 c 0.0924,0.231 0.0811,0.507 -0.0253,0.61333 l -0.19333,0.19334 0.0253,-0.61334 z m -2.40402,-0.10062 -0.61876,-0.24231 0.40947,-0.25306 0.40947,-0.25307 0.51786,0.51787 0.51786,0.51786 -0.30857,-0.0225 c -0.16971,-0.0124 -0.58701,-0.13153 -0.92733,-0.2648 z m 23.81876,-0.19271 c 0,-0.088 0.072,-0.16 0.16,-0.16 0.088,0 0.16,0.072 0.16,0.16 0,0.088 -0.072,0.16 -0.16,0.16 -0.088,0 -0.16,-0.072 -0.16,-0.16 z m -28.16,-0.65889 v -0.49888 l 0.32522,0.201 0.32522,0.20099 -0.18411,0.29789 c -0.27431,0.44386 -0.46633,0.36109 -0.46633,-0.201 z m 7.04,-0.46111 c -0.25381,-0.15686 -0.38946,-0.3572 -0.30146,-0.4452 0.088,-0.088 0.36765,-0.0317 0.62146,0.1252 0.25381,0.15686 0.38947,0.3572 0.30147,0.4452 -0.088,0.088 -0.36766,0.0317 -0.62147,-0.1252 z m 7.36,0.16 c 0,-0.088 0.072,-0.16 0.16,-0.16 0.088,0 0.16,0.072 0.16,0.16 0,0.088 -0.072,0.16 -0.16,0.16 -0.088,0 -0.16,-0.072 -0.16,-0.16 z m 14.08,-0.32 v -0.48 h 0.32 0.32 v 0.48 0.48 h -0.32 -0.32 z m 1.38667,0.26667 0.21333,-0.21334 0.21334,0.21334 0.21333,0.21333 h -0.42667 -0.42666 z m -12.26667,-0.26667 c 0,-0.088 0.072,-0.16 0.16,-0.16 0.088,0 0.16,0.072 0.16,0.16 0,0.088 -0.072,0.16 -0.16,0.16 -0.088,0 -0.16,-0.072 -0.16,-0.16 z m -16,-0.32 c 0,-0.088 0.072,-0.16 0.16,-0.16 0.088,0 0.16,0.072 0.16,0.16 0,0.088 -0.072,0.16 -0.16,0.16 -0.088,0 -0.16,-0.072 -0.16,-0.16 z m 1.06667,-0.0533 0.21333,-0.21334 0.21333,0.21334 0.21334,0.21333 h -0.42667 -0.42667 z m 2.93333,-0.10667 c 0.10877,-0.176 0.26127,-0.32 0.33889,-0.32 0.0776,0 0.14111,0.144 0.14111,0.32 0,0.176 -0.1525,0.32 -0.33889,0.32 h -0.33888 z m 2.24,-0.32 -0.19777,-0.32 h 0.51777 0.51777 l -0.19777,0.32 c -0.10877,0.176 -0.25277,0.32 -0.32,0.32 -0.0672,0 -0.21123,-0.144 -0.32,-0.32 z m -3.68,-0.32 v -0.42667 l 0.21333,0.21334 0.21334,0.21333 -0.21334,0.21333 -0.21333,0.21334 z m 10.4,0 c 0.10877,-0.176 0.34177,-0.32 0.51777,-0.32 h 0.32 l -0.19777,0.32 c -0.10877,0.176 -0.34177,0.32 -0.51777,0.32 h -0.32 z m -4.96,-0.64 v -0.42667 l 0.21333,0.21334 0.21334,0.21333 -0.21334,0.21333 -0.21333,0.21334 z m -4.05333,-0.21333 0.21333,-0.21334 0.21333,0.21334 0.21334,0.21333 h -0.42667 -0.42667 z m 22.93333,0.0533 c 0,-0.088 0.072,-0.16 0.16,-0.16 0.088,0 0.16,0.072 0.16,0.16 0,0.088 -0.072,0.16 -0.16,0.16 -0.088,0 -0.16,-0.072 -0.16,-0.16 z m -20.48,-0.28082 c 0,-0.0665 0.216,-0.30008 0.48,-0.51918 l 0.48,-0.39836 v 0.51918 0.51918 h -0.48 c -0.264,0 -0.48,-0.0544 -0.48,-0.12082 z m 7.14667,-0.41251 0.21333,-0.21334 0.21333,0.21334 0.21334,0.21333 h -0.42667 -0.42667 z m -10.34667,-0.26667 c 0,-0.088 0.072,-0.16 0.16,-0.16 0.088,0 0.16,0.072 0.16,0.16 0,0.088 -0.072,0.16 -0.16,0.16 -0.088,0 -0.16,-0.072 -0.16,-0.16 z m 1.44,-0.16 c 0.10877,-0.176 0.26127,-0.32 0.33889,-0.32 0.0776,0 0.14111,0.144 0.14111,0.32 0,0.176 -0.1525,0.32 -0.33889,0.32 h -0.33888 z m 4.64,0.16 c 0,-0.088 0.072,-0.16 0.16,-0.16 0.088,0 0.16,0.072 0.16,0.16 0,0.088 -0.072,0.16 -0.16,0.16 -0.088,0 -0.16,-0.072 -0.16,-0.16 z m -14.63749,-8.56 c -0.27463,-0.34779 -1.36251,-5.14361 -1.36251,-6.0065 v -0.3135 h 0.60272 0.60272 l 0.21528,2.01024 c 0.1184,1.10563 0.3312,2.1978 0.47289,2.42705 l 0.2576,0.41682 0.22273,-1.96866 c 0.26911,-2.37861 0.44454,-2.88545 0.99873,-2.88545 h 0.4242 l 0.15768,0.56 c 0.0867,0.308 0.25117,1.064 0.36545,1.68 0.11428,0.616 0.29711,1.408 0.40629,1.76 l 0.19852,0.64 0.21973,-0.96 c 0.12086,-0.528 0.23678,-1.50452 0.2576,-2.17004 l 0.0379,-1.21005 0.4938,-0.18949 c 0.27159,-0.10421 0.57589,-0.1074 0.67622,-0.007 0.10033,0.10033 -0.0731,1.63709 -0.38541,3.41503 l -0.56782,3.23261 -0.63572,-0.0955 -0.63571,-0.0955 -0.25655,-0.48 c -0.14111,-0.264 -0.36049,-1.2 -0.48752,-2.08 l -0.23096,-1.6 -0.28937,1.44 c -0.15915,0.792 -0.35322,1.764 -0.43126,2.16 l -0.14189,0.72 h -0.43472 c -0.2391,0 -0.57686,-0.18 -0.75058,-0.4 z m 5.35749,0.0606 c 0,-0.21249 0.14084,-0.90704 0.31297,-1.54346 0.17214,-0.63642 0.47035,-1.98513 0.66269,-2.99713 l 0.34972,-1.84 h 0.78417 0.78417 l 0.28263,0.72 c 0.15544,0.396 0.46367,1.584 0.68495,2.64 0.22129,1.056 0.51864,2.136 0.66079,2.4 l 0.25845,0.48 0.01,-3.12 0.01,-3.12 h 1.57714 1.57715 l 0.526,0.526 0.526,0.526 -0.23117,0.834 c -0.28094,1.01361 -0.27721,1.36251 0.0359,3.3467 l 0.24499,1.55271 -0.60798,-0.1158 -0.60798,-0.11581 -0.16,-1.2769 -0.16,-1.2769 -0.88,-0.10125 -0.88,-0.10126 v 1.48057 1.48057 l -1.18736,-0.0993 -1.18736,-0.0993 -0.18785,-0.8 -0.18785,-0.8 -0.77116,0.003 -0.77116,0.003 -0.18766,0.79494 -0.18766,0.79494 -0.54597,0.10514 -0.54597,0.10515 z m 2.56,-3.51948 v -0.94111 h -0.28531 c -0.15692,0 -0.37732,0.36662 -0.48979,0.81472 l -0.20448,0.81471 0.1919,0.31051 0.1919,0.3105 0.29789,-0.18411 0.29789,-0.1841 z m 4.96,-0.94111 v -0.8 l -0.88,-0.10125 -0.88,-0.10126 v 0.76792 c 0,0.96421 0.2773,1.24683 1.10683,1.12809 l 0.65317,-0.0935 z m 2.08,1.44 v -3.36 h 0.60118 0.60118 l 0.33635,0.88 c 0.18499,0.484 0.51887,1.41854 0.74194,2.07676 l 0.40558,1.19677 0.22833,-0.36944 0.22833,-0.36945 -0.17622,-1.70732 -0.17621,-1.70732 h 0.68477 0.68477 v 3.38226 3.38225 l -0.67764,-0.10225 -0.67764,-0.10226 -0.64143,-1.76 c -0.35278,-0.968 -0.78295,-1.904 -0.95592,-2.08 l -0.31449,-0.32 0.12873,2.16 0.12872,2.16 h -0.57516 -0.57517 z m 4.8,0 v -3.36 h 0.56857 0.56857 l -0.0553,2.48 c -0.0304,1.364 -0.0703,2.876 -0.0886,3.36 l -0.0333,0.88 h -0.48 -0.48 z m 1.86059,-6.8e-4 -0.10059,-3.36067 0.69337,6.7e-4 0.69336,6.8e-4 0.69327,2.24 c 0.3813,1.232 0.79399,2.24 0.9171,2.24 h 0.22382 l -0.12657,-2.24 -0.12657,-2.24 h 0.51611 0.51611 l 0.023,0.4 c 0.10464,1.82251 0.0145,6.06925 -0.13201,6.21571 -0.10085,0.10084 -0.38457,0.10614 -0.6305,0.0118 l -0.44714,-0.17158 -0.82892,-2.18795 -0.82892,-2.18795 -0.0177,2.32 -0.0177,2.32 h -0.45941 -0.45941 z m 5.16551,2.86393 -0.40957,-0.4935 -0.0213,-2.41883 -0.0213,-2.41883 0.74843,-0.60605 0.74844,-0.60604 h 0.71496 0.71495 l 0.52959,0.5852 c 0.29128,0.32186 0.5296,0.82586 0.5296,1.12 v 0.5348 h -0.44576 -0.44577 l -0.1928,-0.50244 -0.19281,-0.50245 -0.72143,0.10245 -0.72143,0.10244 v 2.24 2.24 l 0.72,0.10226 0.72,0.10225 v -0.31608 c 0,-0.17385 0.0874,-0.54386 0.19424,-0.82226 l 0.19423,-0.50617 h -0.51423 -0.51424 v -0.48 -0.48 h 0.96 0.96 v 1.69041 1.69041 l -1.56216,0.068 -1.56216,0.068 z"
       id="path219"
       inkscape:export-filename="tarwarning.svg"
       inkscape:export-xdpi="96"
       inkscape:export-ydpi="96" /></g></svg>
