<?xml version="1.0" encoding="UTF-8" standalone="no"?>
<!-- Created with Inkscape (http://www.inkscape.org/) -->

<svg
   width="171.81813mm"
   height="160.25769mm"
   viewBox="0 0 171.81813 160.25769"
   version="1.1"
   id="svg1"
   xml:space="preserve"
   xmlns="http://www.w3.org/2000/svg"
   xmlns:svg="http://www.w3.org/2000/svg"><defs
     id="defs1" /><g
     id="layer1"
     transform="translate(-247.28232,-10.596996)"><g
       label="Layer 1"
       id="imagebot_2"
       transform="matrix(0.26458333,0,0,0.26458333,78.973481,193.49001)"><title
         id="title1">Layer 1</title><path
         fill="#000000"
         d="m 1116.4351,-86.037208 c -7.741,-0.239 -17.24,-0.69 -21.111,-1.001 -7.29,-0.587 -10.401,-1.377 -59.841,-15.192002 -21.874,-6.112 -44.98198,-11.733 -55.50798,-13.502 -4.016,-0.675 -8.379,-1.845 -11.585,-3.107 -8.315,-3.271 -31.349,-14.987 -51.423,-26.154 -29.098,-16.187 -47.712,-26.088 -63.707,-33.886 -23.388,-11.403 -44.404,-24.104 -67.829,-40.994 -14.626,-10.545 -22.294,-17.099 -34.914,-29.843 -22.626,-22.847 -34.994,-40.592 -45.463,-65.23 -8.517,-20.042 -17.482,-34.584 -29.534,-47.905 -6.184,-6.834 -13.91,-16.73 -18.809,-24.088 -5.444,-8.177 -11.85,-20.95 -14.387,-28.688 -5.6138,-17.121 -7.7743,-41.921 -4.975,-57.108 2.9398,-15.948 11.495,-30.332 32.194,-54.129 2.848,-3.275 5.304,-6.077 5.457,-6.226 1.011,-0.981 7.769,-8.905 12.392,-14.528 12.428,-15.114 19.81,-27.477 28.496,-47.722 11.979,-27.92099 24.143,-48.01099 39.92,-65.93799 8.266,-9.391 13.385,-13.696 28.707,-24.14 l 8.556,-5.831 86.171,0.328 c 47.394,0.18 89.094,0.435 92.667,0.567 3.573,0.132 13.438,0.502 21.923,0.823 87.44998,3.311 141.50998,12.599 179.22998,30.797 21.409,10.328 44.242,27.929 55.1069,42.48 6.09,8.15599 9.79,17.63599 9.79,25.08199 0,12.989 3.786,27.023 9.725,36.046 3.711,5.639 6.4,8.457 12.735,13.347 11.202,8.648 17.478,18.299 21.137,32.506 3.028,11.759 4.364,28.617 3.859,48.717 -0.616,24.51 -1.181,26.451 -19.312,66.309 l -9.357,20.569 0.34,56.566 c 0.187,31.111 0.455,59.854 0.596,63.873 0.141,4.019 0.393,11.936 0.56,17.592 0.619,20.927 1.085,30.362 3.033,61.297 l 1.099,17.452 -5.539,9.884 c -12.306,21.957 -20.148,31.137 -35.0779,41.063 -9.841,6.542002 -25.396,13.785002 -35.762,16.652002 -12.852,3.554 -31.587,4.432 -69.557,3.259 z m 43.304,-16.411002 c 20.227,-1.953 27.413,-3.678 39.696,-9.53 16.215,-7.724 28.3679,-18.106 37.2219,-31.798 2.845,-4.399 7.643,-14.259 9.208,-18.92 1.749,-5.21 2.221,-13.486 1.35,-23.691 -2.661,-31.205 -3.219,-49.338 -3.901,-126.66 l -0.596,-67.662 9.774,-21.502 c 16.743,-36.833 17.987,-40.679 19.071,-58.966 0.897,-15.121 -0.441,-31.433 -3.323,-40.512 -1.619,-5.103 -4.977,-11.639 -8.139,-15.841 -1.516,-2.014 -6.826,-7.738 -11.801,-12.72 -17.281,-17.306 -22.633,-28.688 -23.857,-50.739 -0.6839,-12.307 -2.8629,-18.563 -9.2419,-26.524 -10.222,-12.75799 -37.239,-31.75599 -56.822,-39.95699 -16.755,-7.016 -30.944,-8.951 -59.806,-8.155 -22.723,0.627 -47.13,0.51 -57.919,-0.278 -12.459,-0.911 -17.277,-1.431 -38.162,-4.121 -24.08798,-3.102 -37.08198,-4.412 -51.15298,-5.157 -22.211,-1.176 -41.205,1.003 -59.153,6.785 -28.411,9.152 -70.92,33.187 -96.759,54.70899 -9.492,7.906 -16.598,12.758 -17.445,11.911 -1.967,-1.967 20.152,-20.268 46.693,-38.63399 21.252,-14.706 35.566,-22.183 54.584,-28.512 35.451,-11.798 71.932,-14.135 109.97,-7.046 18.84798,3.513 49.95798,5.977 82.81898,6.561 18.036,0.32 27.321,-0.11 28.533,-1.323 0.727,-0.727 -2.629,-2.45 -6.914,-3.55 -13.244,-3.399 -50.297,-7.073 -87.928,-8.718 -3.721,-0.162 -8.95798,-0.411 -11.63798,-0.553 -5.461,-0.289 -19.047,-0.722 -41.951,-1.338 -8.485,-0.229 -46.378,-0.368 -84.207,-0.311 l -68.78,0.105 -9.438,6.382 c -10.862,7.345 -13.618,9.553 -20.065,16.075 -15.478,15.658 -28.64,37.291 -41.618,68.40099 -5.758,13.801 -12.948,28.779 -16.242,33.831 -1.262,1.935 -3.876,5.417 -5.808,7.737 -1.933,2.32 -3.423,4.299 -3.312,4.396 0.222,0.195 27.876,0.841 36.424,0.851 2.952,0.004 5.222,0.153 5.043,0.332 -0.179,0.179 -5.883,0.913 -12.675,1.631 -19.576,2.07 -32.77,4.652 -39.12,7.657 -10.905,5.159 -36.052,40.682 -40.072,56.606 -4.441,17.592 -1.118,40.275 8.92,60.898 8.134,16.713 18.068,27.417 30.973,33.38 4.901,2.264 10.98,6.505 10.98,7.66 0,1.039 -2.374,0.841 -7.695,-0.641 -2,-0.558 -3.802,-0.848 -4.004,-0.645 -0.469,0.469 1.393,3.274 6.551,9.873 6.829,8.737 15.494,24.534 21.611,39.401 11.364,27.62 36.567,59.106 63.819,79.731 19.506,14.762 57.836,38.507 72.905,45.164 10.12,4.471 39.347,20.011 66.038,35.114 13.529,7.655 36.278,19.167 46.01,23.283 5.037,2.131 8.772,3.269 14.615,4.454 17.29498,3.51 33.92498,7.917 83.31998,22.08 30.174,8.652 31.901,9.071 40.35,9.779 8.335,0.698 43.05,0.189 53.064,-0.779 z m -26.52,-52.85 c -41.979,-0.632 -72.017,-2.065 -90.126,-4.3 -53.39898,-6.59 -118.68998,-23.783 -163.73998,-43.12 -16.624,-7.134 -47.12,-23.612 -72.263,-39.045 -15.876,-9.745 -28.148,-18.288 -28.148,-19.596 0,-2.204 11.648,3.775 36.538,18.757 27.605,16.615 35.139,20.883 50.05,28.349 31.413,15.729 60.194,25.346 112.61,37.628 51.08398,11.97 70.11698,14.408 130.71998,16.746 11.611,0.448 23.79,0.934 27.065,1.081 9.023,0.403 27.97,1.084 29.501,1.059 0.832,-0.013 6.048,-3.223 13.532,-8.327 33.393,-22.771 34.758,-24.201 36.486,-38.218 0.425,-3.451 0.887,-6.389 1.027,-6.528 0.461,-0.462 1.042,15.873 0.65,18.279 -0.504,3.082 -2.595,6.919 -5.065,9.291 -2.523,2.424 -11.229,8.648 -27.595,19.731 l -12.989,8.796 -5.594,-0.088 c -3.077,-0.048 -17.774,-0.271 -32.66,-0.495 z m -54.13,-23.587 c -16.172,-0.248 -51.029,-1.891 -73.075,-3.445 -29.09098,-2.051 -41.51598,-5.062 -71.99298,-17.448 -23.855,-9.695 -55.98,-25.295 -87.735,-42.605 -13.236,-7.216 -28.16,-16.215 -30.743,-18.538 -2.187,-1.968 -2.203,-2.008 -0.81,-2.03 2.531,-0.04 17.749,7.408 40.259,19.705 21.553,11.774 47.576,24.644 68.522,33.889 2.802,1.237 14.96,6.334 27.017,11.327 l 21.923,9.078 6.495,0.358 c 3.573,0.197 10.758,0.595 15.968,0.885 19.65798,1.094 59.18898,3.211 70.90998,3.797 6.699,0.335 20.948,0.62 31.666,0.633 21.416,0.027 30.766,-0.68 40.66,-3.076 14.285,-3.459 21.972,-8.055 35.392,-21.159 7.682,-7.501 11.432,-10.531 13.035,-10.531 0.82,0 0.892,0.25 0.483,1.676 -2.1,7.323 -18.442,21.579 -33.292,29.042 -8.001,4.022 -16.819,6.126 -31.035,7.407 -8.795,0.793 -28.691,1.265 -43.648,1.036 z m -57.919,-24.506 -3.789,-0.31 4.063,-0.417 c 5.241,-0.537 56.581,-0.544 62.406,-0.008 l 4.441,0.409 -3.518,0.35 c -4.301,0.429 -58.325,0.408 -63.603,-0.024 z m 2.436,-18.224 c -1.638,-0.109 -8.043,-0.452 -14.234,-0.762 -40.00098,-2.004 -73.35598,-8.342 -100.23998,-19.047 -27.407,-10.913 -61.227,-34.243 -86.907,-59.95 -19.565,-19.585 -31.484,-35.575 -50.863,-68.235 -10.275,-17.315 -16.662,-27.229 -20.2,-31.355 -2.92,-3.405 -3.461,-5.417 -2.482,-9.238 0.968,-3.774 0.005,-9.319 -2.509,-14.46 -2.92,-5.971 -5.372,-7.182 -14.593,-7.203 -10.484,-0.024 -17.144,-2.536 -17.487,-6.596 -0.141,-1.679 0.09,-2.147 1.624,-3.282 0.984,-0.729 4.225,-2.244 7.202,-3.369 7.219,-2.726 14.011,-6.251 17.322,-8.988 5.019,-4.151 7.24,-8.274 9.514,-17.662 2.638,-10.894 7.691,-16.778 11.305,-13.164 0.937,0.937 2.008,3.918 2.93,8.151 2.414,11.087 34.657,29.416 92.398,52.524 31.714,12.692 78.074,29.125 99.154,35.147 25.502,7.285 50.57498,12.199 76.45898,14.986 11.088,1.194 46.072,1.371 55.212,0.28 29.25,-3.493 48.886,-10.079 68.204,-22.877 18.624,-12.338 25.418,-23.355 27.851,-45.157 0.332,-2.977 1.118,-7.926 1.746,-10.997 1.533,-7.49 3.532,-10.408 6.603,-9.637 2.583,0.648 4.383,4.818 5.672,13.146 0.841,5.43 2.58,9.726 5,12.351 2.56,2.777 3.804,5.627 5.59,12.812 7.096,28.542 8.171,90.969 2.186,126.95 -6.387,38.402 -21.69,55.919 -57.083,65.341 -16.274,4.332 -41.384,7.736 -70.369,9.539 -9.318,0.58 -53.181,1.135 -59.002,0.747 z m 24.849,-17.676 c 0.312,-1.563 0.799,-4.303 1.081,-6.09 0.282,-1.786 1.384,-8.306 2.447,-14.49 2.697,-15.673 2.548,-19.519 -0.825,-21.264 -1.759,-0.909 -6.52,-1.646 -15.644,-2.421 -9.343,-0.793 -19.88,-2.48 -25.891,-4.145 -4.381,-1.214 -5.154,-1.296 -5.825,-0.625 -1.318,1.318 -2.3,7.826 -2.967,19.669 -0.89495,15.898 -0.07,28.333 1.982,29.862 1.801,1.342 13.202,2.149 31.986,2.265 l 13.088,0.081 z m 35.941,1.469 c 4.029,-1.231 5.725,-3.183 9.728,-11.196 2.773,-5.553 11.217,-26.186 11.217,-27.41 0,-0.703 -10.98,-1.435 -21.11,-1.408 -12.523,0.034 -12.846,0.265 -15.654,11.192 -1.203,4.684 -5.457,28.05 -5.457,29.976 0,0.189 4.08,0.223 9.066,0.075 6.494,-0.193 9.959,-0.541 12.209,-1.229 z m 34.806,-4.34 c 2.711,-0.689 6.431,-1.422 8.267,-1.63 1.836,-0.208 3.507,-0.65 3.715,-0.983 0.207,-0.333 0.4,-2.554 0.429,-4.936 0.075,-6.186 1.222,-9.472 10.634,-30.488 0.577,-1.287 0.973,-2.533 0.882,-2.768 -0.092,-0.235 -2.955,0.393 -6.361,1.396 -3.406,1.002 -7.779,2.099 -9.717,2.436 -4.127,0.719 -4.799,1.331 -7.341,6.69 -1.786,3.765 -9.497,28.562 -9.497,30.54 0,1.898 0.571,1.882 8.988,-0.257 z m -136.21998,0.857 c 1.582,-0.847 2.661,-4.405 3.235,-10.671 0.634,-6.908 1.926,-40.689 1.571,-41.044 -0.135,-0.135 -4.858,-1.57 -10.495,-3.19 -19.005,-5.461 -28.641,-8.937 -50.285,-18.139 -3.562,-1.514 -6.507,-2.753 -6.546,-2.753 -0.039,0 -0.228,3.975 -0.42,8.833 -0.466,11.812 -1.657,16.439 -7.022,27.265 -8.631,17.418 -7.325,20.381 12.072,27.39 23.274,8.41 53.262,14.786 57.889,12.309 z m 169.88998,-8.363 c 1.839,-0.721 5.096,-1.583 7.236,-1.915 2.353,-0.365 5.13,-1.263 7.022,-2.272 3.169,-1.689 9.668,-7.143 9.668,-8.113 0,-0.329 -1.427,-0.388 -3.779,-0.157 -3.026,0.298 -4.045,0.198 -5.116,-0.503 -2.769,-1.814 -2.777,-6.316 -0.03,-17.152 2.066,-8.15 1.734,-10.804 -1.117,-8.936 -3.796,2.488 -10.275,13.631 -15.282,26.285 -5.88,14.86 -5.801,15.584 1.397,12.763 z m 30.669,-17.818 c 3.356,-5.728 11.386,-26.904 12.416,-32.744 1.491,-8.46 -11.188,17.737 -14.41,29.77 -1.643,6.136 -0.691,7.555 1.994,2.974 z m -288.08998,-10.88 c 9.584,-22.459 12.062,-34.47 8.446,-40.943 -1.814,-3.248 -3.213,-4.096 -11.094,-6.719 -10.234,-3.407 -19.406,-7.616 -39.78,-18.255 l -13.865,-7.24 -0.299,8.414 c -0.405,11.409 -1.727,16.291 -6.42,23.719 -3.037,4.805 0.177,8.179 28.496,29.909 7.145,5.482 16.523,12.707 20.84,16.053 4.316,3.346 8.098,6.093 8.402,6.104 0.305,0.012 2.678,-4.958 5.275,-11.043 z m -74.789,-51.874 c 1.011,-0.676 2.265,-2.077 2.785,-3.113 1.927,-3.834 0.785,-18.533 -1.882,-24.231 -2.486,-5.312 -8.517,-9.74 -24.298,-17.842 -9.636,-4.947 -13.971,-6.852 -14.465,-6.357 -1.412,1.411 23.79,39.838 32.924,50.201 1.246,1.414 2.453,2.571 2.682,2.571 0.228,0 1.242,-0.553 2.254,-1.229 z m 180.49998,-4.32 c -0.195,-3.052 -0.583,-8.837 -0.863,-12.856 -0.28,-4.019 -0.55595,-8.581 -0.61295,-10.138 -0.057,-1.557 -0.243,-3.048 -0.413,-3.314 -0.17,-0.266 -1.52803,-0.749 -3.01603,-1.073 -1.489,-0.323 -7.944,-1.821 -14.344,-3.329 -43.557,-10.257 -46.748,-10.796 -48.169,-8.14 -0.705,1.317 -4.16,16.105 -4.95,21.184 -1.017,6.54 0.138,9.671 4.361,11.825 2.821,1.439 14.8,5.053 22.235,6.708 10.037,2.234 21.212,3.67 31.937,4.104 5.507,0.222 10.95403,0.443 12.10203,0.49 l 2.08795,0.086 -0.354,-5.548 z m 61.402,4.601 c 0,-1.37 -2.518,-15.408 -3.597,-20.082 -0.692,-2.996 -1.196,-4.096 -2.043,-4.452 -1.381,-0.582 -12.091,-2.175 -26.836,-3.993 -6.103,-0.753 -12.01,-1.514 -13.126,-1.692 l -2.03,-0.324 v 15.745 15.745 h 23.817 c 22.323,0 23.817,-0.059 23.815,-0.947 z m 45.471,-0.909 c 7.428,-1.084 14.596,-2.849 16.655,-4.101 2.671,-1.625 2.625,-2.958 -0.538,-15.456 -2.564,-10.131 -2.983,-11.325 -3.945,-11.241 -1.561,0.136 -45.976,7.333 -46.152,7.478 -0.34,0.28 1.596,18.858 2.105,20.196 0.68,1.79 2.018,3.325 3.457,3.966 1.603,0.715 21.858,0.114 28.418,-0.843 z m 41.409,-5.18 c 0.893,-0.253 2.902,-0.622 4.465,-0.822 3.124,-0.399 4.205,-1.419 5.758,-5.435 3.572,-9.234 4.286,-22.316 1.689,-30.949 -1.489,-4.949 -3.072,-4.917 -12.454,0.246 -11.295,6.216 -11.995,7.468 -9.823,17.582 0.786,3.661 1.673,9.167 1.97,12.236 0.736,7.599 1.723,9.17 5.101,8.119 0.918,-0.285 2.4,-0.725 3.293,-0.977 z m 33.943,-12.237 c 0.925,-0.479 2.862,-1.974 4.303,-3.322 2.404,-2.248 2.621,-2.66 2.618,-4.949 0,-3.404 -1.594,-9.739 -4.631,-18.465 -3.942,-11.329 -7.487,-18.372 -8.657,-17.202 -1.411,1.412 -1.625,15.035 -0.45,28.719 1.37,15.949 2.129,17.643 6.817,15.219 z m -270.82998,-2.682 c 0.599,-0.762 1.369,-2.772 1.709,-4.465 0.341,-1.694 1.546,-7.465 2.678,-12.823 2.41,-11.405 2.33,-12.01 -1.946,-14.754 -2.717,-1.744 -10.372,-4.947 -17.527,-7.335 -13.681,-4.566 -31.135,-10.619 -41.68,-14.457 -13.436,-4.889 -18.354,-5.899 -19.381,-3.98 -0.996,1.862 -1.14,6.111 -0.313,9.289 1.586,6.097 7.944,16.181 14.898,23.628 5.079,5.438 7.658,7.155 12.201,8.124 6.879,1.467 12.238,3.556 28.862,11.25 16.197,7.496 18.466,8.107 20.5,5.523 z m -91.069,-34.691 c 0.986,-2.361 1.078,-11.658 0.228,-23.195 -0.307,-4.168 -0.56,-7.99 -0.563,-8.494 -0.005,-0.972 -0.868,-1.507 -23.01,-14.263 -32.863,-18.932 -40.733,-21.185 -40.467,-11.583 0.108,3.893 3.478,14.382 6.772,21.078 3.776,7.676 10.82,14.028 24.764,22.331 11.516,6.857 29.111,16.065 30.746,16.091 0.387,0.006 1.075,-0.878 1.53,-1.964 z m 374.87998,-14.131 c -0.851,-3.314 -3.944,-9.454 -4.922,-9.773 -0.6,-0.195 -0.685,0.203 -0.412,1.916 1.024,6.399 3.984,12.435 5.404,11.015 0.425,-0.426 0.405,-1.306 -0.07,-3.158 z m -487.70998,15.549 c -1.58,-0.561 -6.002,-2.647 -9.828,-4.635 -23.909,-12.425 -28.176,-22.312 -29.061,-67.341 -0.37,-18.849 0.209,-29.222 1.991,-35.653 2.101,-7.581 9.345,-19.988 15.271,-26.156 5.403,-5.622 12.301,-9.085 21.521,-10.804 3.616,-0.673 36.084,-1.013 44.657,-0.467 l 4.331,0.275 -7.849,0.713 c -4.317,0.391 -8.823,0.817 -10.014,0.946 -1.191,0.128 -7.281,0.732 -13.532,1.342 -28.821,2.809 -32.047,4.316 -41.664,19.464 -4.827,7.603 -8.169,14.501 -9.574,19.757 -1.031,3.858 -1.184,6.167 -1.404,21.191 -0.459,31.317 1.835,46.53 8.549,56.693 3.869,5.857 7.185,8.669 17.299,14.671 11.122,6.6 14.615,9.2 14.615,10.878 0,0.513 -2.618,0.082 -5.308,-0.873 z m 337.30998,0.507 c -4.312,-0.72 -8.598,-2.53 -10.43,-4.405 -1.946,-1.99 -3.831,-6.649 -3.831,-9.467 0,-1.086 0.49,-2.988 1.09,-4.227 1.933,-3.992 5.427,-4.577 9.541,-1.597 5.718,4.142 8.471,4.373 14.458,1.218 6.432,-3.389 16.167,-14.747 21.538,-25.124 2.602,-5.027 2.825,-8.783 0.797,-13.371 -2.318,-5.241 -5.41,-7.916 -10.074,-8.716 -6.269,-1.074 -13.465,-11.845 -15.966,-23.895 -0.489,-2.354 -1.086,-8.711 -1.328,-14.126 -0.621,-13.891 -0.924,-14.429 -11.75,-20.864 -5.897,-3.504 -9.636,-6.905 -10.24,-9.315 -0.589,-2.343 0.175,-4.001 2.349,-5.102 2.504,-1.267 4.046,-1.575 9.87,-1.97 8.645,-0.586 13.965,-2.904 21.31,-9.287 13.184,-11.456 22.498,-15.876 38.774,-18.402 9.079,-1.409 31.529,-1.41 37.533,-0.002 7.424,1.741 11.36,3.945 17.661,9.889 4.382,4.134 6.598,7.5 6.673,10.137 0.225,7.948 -10.307,11.808 -41.568,15.231 -34.803,3.811 -53.656,10.016 -55.965,18.42 -0.735,2.672 -0.75,7.599 -0.045,14.344 1.227,11.747 2.931,14.528 13.609,22.214 12.528,9.018 21.134,16.408 30.431,26.131 9.679,10.123 13.368,12.965 18.066,13.92 4.455,0.905 9.29,3.357 13.84,7.017 3.465,2.787 6.858,6.62 6.858,7.746 0,1.19 -3.634,0.015 -8.14,-2.631 -6.728,-3.951 -19.407,-10.153 -23.644,-11.567 -5.93,-1.978 -7.435,-1.488 -10.747,3.502 -2.534,3.817 -3.898,4.21 -6.726,1.938 -3.308,-2.659 -4.665,-2.312 -9.937,2.538 -3.002,2.761 -7.294,7.376 -11.944,12.843 -4.881,5.737 -12.323,12.938 -14.983,14.497 -4.66,2.73 -10.508,3.58 -17.078,2.482 z m 84.985,-151.86 c 2.278,-0.193 4.141,-0.537 4.141,-0.764 0,-0.664 -4.211,-1.195 -9.473,-1.195 -5.643,10e-4 -10.555,0.582 -10.555,1.25 0,0.784 9.822,1.222 15.887,0.709 z m -184.04998,134.89 c -3.11,-1.778 -7.041,-4.831 -8.328,-6.467 -2.037,-2.59 -4.257,-8.215 -5.044,-12.785 -1.4,-8.13 -0.14,-18.914 2.908,-24.889 3.585,-7.027 10.487,-10.681 21.23,-11.237 13.897,-0.72 21.133,3.841 16.773,10.573 -1.198,1.851 -4.089,3.069 -9.845,4.148 -14.175,2.658 -17.322,4.86 -17.322,12.121 0,4.539 1.643,8.618 4.914,12.197 3.13,3.424 4.292,5.899 4.276,9.105 -0.013,2.476 -1.401,6.089 -2.925,7.613 -1.3,1.3 -3.968,1.148 -6.638,-0.379 z m -242.45,-4.03 c -1.831,-1.131 -4.802,-4.626 -6.574,-7.734 -3.987,-6.991 -7.181,-23.655 -7.177,-37.439 0.005,-17.198 4.488,-31.83 13.379,-43.671 3.016,-4.016 9.384,-10.247 13.302,-13.014 11.702,-8.268 37.117,-11.117 54.484,-6.11 2.931,0.845 7.792,3.052 13.532,6.144 15.752,8.483 30.842,14.644 42.399,17.312 9.907,2.286 18.548,0.979 30.553,-4.621 7.939,-3.704 13.625,-7.742 20.044,-14.231 6.493,-6.565 8.336,-7.589 11.922,-6.624 3.192,0.86 4.188,2.279 4.145,5.91 -0.111,9.526 -15.741,25.253 -31.283,31.476 -16.774,6.717 -35.955,6.273 -58.168,-1.346 -12.468,-4.277 -30.96,-13.034 -34.986,-16.57 -2.408,-2.115 -4.622,-2.968 -9.68,-3.73 -7.261,-1.094 -18.634,0.161 -26.886,2.968 -7.256,2.468 -10.845,5.156 -15.809,11.842 -4.148,5.586 -7.074,10.647 -9.148,15.827 -5.073,12.67 -5.466,17.798 -2.356,30.791 3.912,16.349 4.693,20.529 4.773,25.534 0.068,4.27 -0.08,5.178 -1.058,6.496 -1.398,1.884 -3.209,2.149 -5.409,0.79 z m 516.71998,-1.328 c 0,-1.688 6.0249,-5.881 18.4039,-12.808 15.904,-8.899 17.208,-10.624 20.863,-27.616 2.443,-11.356 3.178,-18.353 2.758,-26.253 -0.886,-16.651 -5.232,-25.784 -15.613,-32.816 -3.251,-2.202 -7.521,-5.928 -12.068,-10.533 -6.894,-6.98 -9.453,-8.857 -13.2619,-9.729 -1.042,-0.238 -11.76,-0.451 -23.817,-0.472 -20.798,-0.037 -22.034,-0.094 -24.088,-1.121 -6.19,-3.095 0.216,-6.998 8.119,-4.947 4.974,1.291 14.024,1.969 26.289,1.969 17.7629,10e-4 19.8839,0.724 30.1639,10.285 7.113,6.616 12.956,11.487 15.906,13.262 3.736,2.248 11.638,20.678 12.92,30.134 1.164,8.583 -2.469,32.206 -7.145,46.459 -1.381,4.208 -2.095,5.536 -3.929,7.308 -5.197,5.021 -26.444,16.014 -33.5169,17.34 -1.589,0.298 -1.985,0.206 -1.985,-0.464 z m -251.42998,-0.756 c -3.298,-0.804 -5.242,-4.999 -5.196,-11.218 0.038,-5.169 0.253,-5.985 2.115,-8 2.539,-2.75 5.752,-3.401 16.614,-3.369 11.098,0.033 17.03198,1.066 23.64698,4.114 7.489,3.453 9.243,8.557 3.74,10.887 -0.803,0.339 -7.316,0.758 -15.20798,0.977 -8.166,0.226 -14.679,0.652 -15.948,1.041 -1.185,0.364 -3.001,1.574 -4.06,2.704 -1.659,1.772 -3.913,3.388 -4.45,3.19 -0.094,-0.034 -0.658,-0.181 -1.254,-0.326 z m 258.23988,-23.365 c -0.646,-1.044 1.745,-4.708 6.556,-10.046 8.347,-9.262 9.113,-10.829 9.009,-18.434 -0.078,-5.656 -1.407,-16.627 -2.942,-24.287 -1.838,-9.17 -4.052,-12.135 -12.625,-16.909 -5.7729,-3.215 -10.3979,-7.188 -9.8939,-8.5 0.193,-0.504 0.808,-0.915 1.366,-0.915 1.606,0 7.0209,2.001 11.7719,4.35 7.532,3.725 10.657,7.758 12.673,16.358 2.426,10.35 4.066,33.847 2.767,39.65 -0.802,3.584 -3.794,8.296 -7.969,12.55 -4.743,4.833 -9.759,7.728 -10.713,6.184 z m -352.62988,-7.103 c -2.925,-0.624 -3.307,-0.969 -2.073,-1.872 1.66,-1.214 8.823,-1.964 23.393,-2.45 18.953,-0.632 25.706,-2.066 28.619,-6.078 1.049,-1.445 1.05,-1.527 0.077,-4.391 -1.183,-3.48 -0.873,-4.695 1.194,-4.684 1.808,0.01 2.495,0.421 3.319,1.986 1.633,3.102 -0.281,9.731 -3.7,12.82 -2.459,2.221 -4.029,2.707 -12.457,3.856 -7.323,0.998 -34.778,1.58 -38.372,0.813 z m 268.14998,-21.108 c -7.957,-1.461 -10.997,-2.669 -14.657,-5.82 -3.91,-3.366 -6.347,-9.618 -5.156,-13.228 1.892,-5.733 5.466,-5.701 16.988,0.154 8.292,4.213 9.886,3.938 19.063,-3.296 16.294,-12.843 19.446,-14.304 32.315,-14.973 14.643,-0.762 28.909,3.209 35.3949,9.853 4.363,4.468 5.131,10.263 1.828,13.799 -2.752,2.946 -7.6229,2.113 -13.8649,-2.372 -10.335,-7.425 -24.733,-8.129 -34.113,-1.669 -3.448,2.375 -5.922,5.677 -7.992,10.666 -1.853,4.466 -3.742,6.589 -6.561,7.371 -3.391,0.942 -17.03,0.658 -23.245,-0.484 z m -188.91998,-38.62 c -7.121,-4.136 -21.203,-11.941 -24.9,-13.799 -23.324,-11.724 -49.226,-14.393 -77.429,-7.98 -14.809,3.367 -24.493,3.004 -29.903,-1.123 -5.155,-3.931 -4.284,-12.447 2.283,-22.325 11.265,-16.945 34.951,-27.355 67.971,-29.873 22.439,-1.711 40.976,2.211 57.842,12.241 10.504,6.246 25.606,18.935 29.478,24.769 3.94,5.937 4.515,12.259 1.649,18.157 -2.445,5.033 -14.85,16.576 -21.355,19.872 -3.18,1.612 -2.97,1.609 -5.635,0.061 z m 8.803,-23.25 c 1.344,-1.344 1.932,-2.42 1.932,-3.533 0,-3.19 -7.25,-11.071 -14.939,-16.238 -12.601,-8.469 -33.64,-17.953 -35.563,-16.031 -0.641,0.642 -3.809,15.191 -3.809,17.495 0,2.672 1.48,3.869 5.421,4.387 5.859,0.771 10.898,2.745 25.481,9.984 11.003,5.463 13.37,6.31 16.92,6.056 2.155,-0.154 2.968,-0.532 4.556,-2.12 z m -117.1,-13.95 c 5.762,-1.799 9.399,-4.904 7.884,-6.73 -0.891,-1.073 -5.556,-1.063 -8.728,0.018 -4.12,1.403 -8.8,6.183 -7.738,7.901 0.444,0.719 4.088,0.214 8.582,-1.189 z m -44.259,20.789 c -0.199,-0.198 -0.361,-1.055 -0.361,-1.902 0,-2.337 2.694,-3.845 6.192,-3.466 1.471,0.159 3.016,0.631 3.433,1.049 0.652,0.651 0.503,0.955 -1.052,2.141 -2.883,2.199 -7.079,3.312 -8.212,2.178 z m -12.225,-10.784 c -3.29,-0.884 -5.681,-2.216 -7.548,-4.203 -2.543,-2.707 -0.445,-4.318 7.774,-5.97 5.976,-1.201 22.019,-3.667 22.263,-3.422 0.11,0.11 -3.758,1.956 -8.596,4.101 -8.655,3.839 -11.815,5.621 -11.148,6.287 0.186,0.186 3.03,1 6.32,1.809 3.29,0.809 6.159,1.648 6.375,1.864 0.74,0.741 -12.433,0.343 -15.441,-0.466 z m 269.39998,-28.161 c -0.515,-23.617 2.164,-36.312 8.337,-39.505 1.738,-0.899 3.148,-0.491 3.148,0.911 0,0.558 -1.105,3.15 -2.456,5.761 -3.202,6.187 -5.164,14.114 -7.003,28.284 -0.791,6.098 -1.536,11.185 -1.656,11.305 -0.12,0.12 -0.287,-2.92 -0.37,-6.757 z m -243.98998,-16.37 c 0,-3.422 10.867,-15.685 23.979,-27.062 11.468,-9.95 19.458,-14.473 34.112,-19.31099 12.117,-4 22.605,-5.964 37.448,-7.013 2.381,-0.168 6.096,-0.444 8.254,-0.613 6.853,-0.537 34.833,-0.327 40.558,0.305 8.743,0.965 12.842,2.618 9.01,3.634 -1.975,0.523 -13.522,0.547 -28.863,0.06 -22.082,-0.702 -42.214,1.583 -60.622,6.88199 -18.328,5.275 -29.461,12.52 -49.261,32.055 -7.583,7.481 -12.964,12.062 -14.169,12.062 -0.245,0 -0.446,-0.45 -0.446,-0.999 z m 156.24,-6.521 c -0.686,-11.734 -3.231,-18.824 -10.869,-30.274 -4.066,-6.094 -5.052,-8.17899 -4.382,-9.26399 0.616,-0.997 4.275,1.339 7.42,4.73699 3.596,3.884 6.917,10.457 8.512,16.848 1.298,5.2 1.416,11.211 0.39,19.79 l -0.648,5.413 -0.423,-7.249 z m 192.37998,4.678 c -0.578,-1.265 -1.784,-4.746 -2.68,-7.734 -2.774,-9.254 -6.915,-14.225 -18.079,-21.703 -7.805,-5.228 -14.568,-8.572 -19.602,-9.692 -3.496,-0.778 -5.696,-0.888 -12.141,-0.608 -15.225,0.663 -37.184,3.511 -48.636,6.309 -7.404,1.808 -9.42,1.98 -10.33,0.884 -2.579,-3.108 8.09,-6.352 29.444,-8.953 25.731,-3.13499 37.677,-3.68899 44.116,-2.04699 4.302,1.097 14.233,6.03799 20.727,10.31299 9.004,5.927 15.775,13.587 18.366,20.78 1.748,4.853 2.019,14.752 0.404,14.752 -0.296,0 -1.011,-1.036 -1.589,-2.301 z m -367.31998,-4.009 c 0.816,-3.281 12.499,-17.417 19.917,-24.098 21.852,-19.68299 50.921,-35.24499 77.095,-41.27299 16.026,-3.691 30.354,-5.232 50.793,-5.465 21.74,-0.247 31.301,0.607 49.529,4.426 20.18198,4.229 32.72698,5.33 60.62498,5.32 23.601,-0.008 30.754,-0.409 54.942,-3.079 25.141,-2.776 39.43,-2.357 45.994,1.349 2.717,1.534 4.617,4.314 4.617,6.757 0,1.834 -0.045,1.873 -1.76,1.531 -0.967,-0.192 -3.389,-1.434 -5.382,-2.758 -1.993,-1.324 -5.159,-2.93 -7.037,-3.569 -3.151,-1.072 -4.143,-1.137 -12.887,-0.848 -5.21,0.173 -12.396,0.688 -15.968,1.145 -13.228,1.691 -31.31,3.038 -47.324,3.525 -9.059,0.275 -16.632,0.401 -16.83,0.279 -0.197,-0.123 -4.478,-0.264 -9.512,-0.315 -17.122,-0.172 -35.562,-2.146 -53.26898,-5.702 -28.437,-5.711 -55.459,-5.943 -82.277,-0.707 -37.878,7.395 -69.531,23.765 -92.216,47.69099 -7.116,7.505 -15.528,15.275 -17.874,16.51 l -1.56,0.821 z"
         id="imagebot_4"
         style="fill:#ffffff;fill-opacity:1" /></g></g><style
     id="style1">
text {
	font-family : Verdana, Tahoma, sans-serif;
	font-size : 11px;
	fill : black;
	stroke : none;
}
/* As at 20060630, Wikipedia's SVG rasteriser couldn't make use of these styles. Leave them in in case it improves. */
#percentage_numbers text {
	text-anchor : end;
}
#x_axis_numbers text {
	text-anchor : middle;
}
</style></svg>
