<?xml version="1.0" encoding="UTF-8" standalone="no"?>
<!-- Created with Inkscape (http://www.inkscape.org/) -->

<svg
   version="1.1"
   id="svg1"
   width="1140.5941"
   height="1053.1486"
   viewBox="0 0 1140.5941 1053.1486"
   sodipodi:docname="esd_paw.svg"
   inkscape:version="1.3 (0e150ed6c4, 2023-07-21)"
   xmlns:inkscape="http://www.inkscape.org/namespaces/inkscape"
   xmlns:sodipodi="http://sodipodi.sourceforge.net/DTD/sodipodi-0.dtd"
   xmlns="http://www.w3.org/2000/svg"
   xmlns:svg="http://www.w3.org/2000/svg">
  <defs
     id="defs1" />
  <sodipodi:namedview
     id="namedview1"
     pagecolor="#505050"
     bordercolor="#ffffff"
     borderopacity="1"
     inkscape:showpageshadow="0"
     inkscape:pageopacity="0"
     inkscape:pagecheckerboard="1"
     inkscape:deskcolor="#d1d1d1"
     inkscape:zoom="0.76342506"
     inkscape:cx="569.80053"
     inkscape:cy="526.57428"
     inkscape:window-width="1920"
     inkscape:window-height="1008"
     inkscape:window-x="0"
     inkscape:window-y="0"
     inkscape:window-maximized="1"
     inkscape:current-layer="g1" />
  <g
     inkscape:groupmode="layer"
     inkscape:label="Image"
     id="g1">
    <rect
       style="fill:#ffff00;fill-opacity:1;stroke-width:1.37953"
       id="rect1"
       width="1148.0602"
       height="1065.2837"
       x="-3.3264427"
       y="-7.0807734" />
    <path
       style="fill:#000000"
       d="m 88.732644,922.47405 c 0.296991,-0.77395 43.196276,-75.30464 95.331746,-165.62377 52.13546,-90.31912 101.19426,-175.33738 109.01955,-188.92946 7.82529,-13.59208 14.39321,-24.91055 14.59536,-25.15214 0.20216,-0.2416 1.17636,0.0658 2.16489,0.68318 0.98852,0.61734 15.61858,9.08621 32.51123,18.8197 33.60398,19.3625 37.84262,21.94476 37.84262,23.05445 0,0.4095 -4.38416,1.24053 -9.74258,1.84673 -35.27802,3.991 -58.89399,17.86106 -69.23204,40.66113 -4.93785,10.8902 -5.99455,17.19622 -6.0471,36.08695 -0.0417,14.99546 0.22256,18.09749 2.13934,25.11172 5.43586,19.89186 8.66118,25.66129 21.57137,38.5868 23.1569,23.18437 52.73595,36.71761 85.31101,39.03217 5.09703,0.36217 9.26733,0.95894 9.26733,1.32618 0,0.36723 -1.08458,1.16187 -2.41017,1.76584 -4.20875,1.91764 -12.34676,8.38313 -16.52187,13.12631 -7.67397,8.71809 -13.74446,21.82504 -16.24424,35.07334 -2.34606,12.43365 0.54567,32.06908 6.12489,41.5893 6.3873,10.8991 20.11749,21.3106 34.49007,26.15356 6.48724,2.18592 8.90687,2.48925 19.74944,2.47582 l 12.35643,-0.0153 13.78218,-4.81287 c 7.5802,-2.64707 21.05347,-7.90922 29.9406,-11.69366 19.15357,-8.15625 53.21357,-19.72167 69.86139,-23.72215 6.53465,-1.57029 26.63762,-5.01821 44.67327,-7.66205 38.4416,-5.63515 43.03321,-6.5024 55.62431,-10.50612 24.4807,-7.78438 41.43687,-20.14937 56.61645,-41.28656 2.07809,-2.89368 3.71144,-4.27999 4.72912,-4.01386 0.85505,0.2236 19.69058,10.87761 41.85674,23.67558 22.16615,12.79797 75.37537,43.50376 118.2427,68.23509 42.86733,24.73133 78.78428,45.54098 79.81545,46.24367 1.57119,1.07067 -69.37779,1.27761 -438.0423,1.27761 -388.06728,0 -439.853527,-0.16586 -439.377186,-1.40718 z M 441.50497,853.18139 c -7.98603,-1.76271 -10.262,-2.84492 -13.11576,-6.23642 -5.05292,-6.00505 -4.37417,-13.79655 2.15753,-24.76672 7.36853,-12.37562 20.01106,-21.19562 39.44382,-27.51778 13.66043,-4.44422 21.58027,-5.46205 30.46361,-3.91508 7.58131,1.32022 12.21518,3.51539 16.13992,7.64585 2.48193,2.61203 2.85148,3.70116 2.85148,8.40388 0,9.64606 -6.36353,19.38908 -19.5597,29.94732 -9.18032,7.34517 -18.4332,12.4335 -27.3159,15.02152 -8.20325,2.39005 -23.49699,3.08788 -31.065,1.41743 z m 451.88879,-72.8933 c -62.43189,-36.10056 -113.85148,-65.97036 -114.26575,-66.37732 -0.41426,-0.40697 1.08277,-3.5794 3.32674,-7.04986 2.24397,-3.47046 8.99875,-14.05064 15.01064,-23.51151 6.01188,-9.46088 14.87356,-22.83534 19.69262,-29.72103 4.81906,-6.88569 15.37175,-22.35706 23.45041,-34.38082 8.07866,-12.02376 15.92371,-23.31708 17.43345,-25.09627 l 2.74496,-3.23487 73.39594,127.16832 c 40.36777,69.94258 73.24463,127.31962 73.05973,127.50453 -0.1849,0.18492 -51.41684,-29.20061 -113.84874,-65.30117 z m -303.1363,30.79304 c -27.21721,-2.30668 -48.3949,-16.25101 -66.09729,-43.52139 -10.24094,-15.77606 -14.51674,-27.17312 -15.34671,-40.90624 -0.62705,-10.37552 1.80769,-21.93837 6.80892,-32.33635 5.59855,-11.63988 25.31795,-28.48057 40.8925,-34.92287 10.55139,-4.3645 14.94675,-4.97841 35.64357,-4.97841 16.7661,0 20.91683,0.30653 29.7448,2.19665 25.99545,5.56576 42.21477,11.90406 51.25061,20.02806 6.3341,5.6949 8.73638,10.54959 8.75665,17.69608 0.0333,11.73517 -6.70787,20.97301 -24.51143,33.5896 -11.97194,8.48399 -20.74508,17.17422 -23.40218,23.18105 -1.3421,3.03403 -2.05037,8.06962 -2.77789,19.74987 -1.05349,16.91364 -2.39723,22.87398 -6.31484,28.01023 -6.54748,8.58419 -20.29397,13.43012 -34.64671,12.21372 z M 410.00575,736.18095 c -7.76541,-1.40938 -11.13679,-2.40018 -21.65239,-6.36332 -18.78263,-7.07883 -27.86791,-17.38615 -28.86225,-32.74446 -0.57937,-8.94869 1.43336,-14.96264 7.12709,-21.29545 8.78085,-9.76642 18.52584,-12.58294 43.99568,-12.71572 9.67129,-0.0504 20.64047,0.20656 24.37595,0.57108 13.47217,1.31463 30.64032,10.14027 37.65128,19.35541 4.46763,5.87221 5.52146,9.23153 6.14011,19.57287 0.4471,7.4737 0.26014,8.73215 -2.04753,13.78218 -1.39676,3.05661 -3.9065,6.98671 -5.57721,8.73356 -4.25686,4.45084 -14.05814,9.15282 -22.86209,10.96765 -8.99855,1.85494 -28.43764,1.92409 -38.28864,0.1362 z m 66.66754,-113.98237 c -9.15506,-2.24331 -19.89553,-8.62249 -32.11688,-19.07547 -8.50097,-7.2709 -12.06798,-11.77148 -16.22356,-20.46962 -2.57839,-5.39689 -2.95387,-7.19996 -2.96899,-14.25743 -0.0149,-6.95285 0.35518,-8.83774 2.65449,-13.52007 5.62404,-11.45286 13.81573,-15.47003 31.54603,-15.47003 13.72714,0 18.06062,1.17544 33.9186,9.20029 12.51001,6.33062 19.4742,12.70465 24.00986,21.97521 4.93678,10.09041 5.18398,22.90397 0.61465,31.86059 -4.38856,8.60229 -17.07639,17.8562 -27.46118,20.02891 -6.07242,1.27047 -7.81523,1.2365 -13.97302,-0.27238 z m 167.44673,-3.7782 c -29.81421,-8.10174 -45.64793,-21.49209 -45.74727,-38.68779 -0.0487,-8.43582 3.02613,-13.27652 10.72626,-16.88617 5.06569,-2.37469 6.23989,-2.52956 19.17825,-2.52956 12.43217,0 14.66667,0.26663 22.81188,2.72202 15.43647,4.65336 19.03709,6.40081 24.74786,12.01065 5.96734,5.86186 11.38179,13.89157 12.98213,19.25267 0.82348,2.75862 0.77224,4.68133 -0.22556,8.4638 -1.72993,6.55784 -5.64584,11.15507 -12.34776,14.4961 -7.94452,3.96048 -20.18916,4.40196 -32.12579,1.15828 z M 571.24755,505.66326 c -7.42369,-5.23392 -34.07137,-18.33688 -44.19802,-21.73265 -11.71761,-3.92927 -25.63597,-7.5935 -37.54456,-9.8842 -13.85491,-2.6651 -41.6033,-2.87286 -53.22772,-0.39854 -14.06536,2.99388 -25.61077,7.92099 -36.3585,15.51632 l -4.51691,3.19207 -20.3566,-11.8049 c -11.19612,-6.49269 -21.266,-11.94611 -22.3775,-12.11871 -1.78495,-0.27718 6.81814,-15.62932 73.68041,-131.48214 41.63573,-72.14258 90.94083,-157.58021 109.56688,-189.86139 18.62605,-32.28119 34.1094,-58.693077 34.40745,-58.693077 0.38666,0 144.08651,248.718647 171.61209,297.029717 l 2.1662,3.80198 -12.85772,14.25743 c -7.07175,7.84158 -23.40135,25.56158 -36.288,39.37778 -27.19522,29.1569 -34.85959,37.42723 -38.49954,41.54342 -2.51036,2.8388 -3.0738,3.01141 -11.84265,3.6279 -27.85887,1.95863 -50.17162,8.57908 -63.04664,18.70667 -1.90493,1.49844 -3.82969,2.69824 -4.27723,2.66623 -0.44754,-0.032 -3.16619,-1.71677 -6.04144,-3.74391 z"
       id="path1" />
  </g>
</svg>
