<?xml version="1.0" encoding="UTF-8" standalone="no"?>
<!-- Created with Inkscape (http://www.inkscape.org/) -->

<svg
   version="1.1"
   id="svg1"
   width="1140.5941"
   height="1053.1486"
   viewBox="0 0 1140.5941 1053.1486"
   sodipodi:docname="esd_paw_defined.svg"
   inkscape:version="1.3 (0e150ed6c4, 2023-07-21)"
   xmlns:inkscape="http://www.inkscape.org/namespaces/inkscape"
   xmlns:sodipodi="http://sodipodi.sourceforge.net/DTD/sodipodi-0.dtd"
   xmlns="http://www.w3.org/2000/svg"
   xmlns:svg="http://www.w3.org/2000/svg">
  <defs
     id="defs1" />
  <sodipodi:namedview
     id="namedview1"
     pagecolor="#505050"
     bordercolor="#ffffff"
     borderopacity="1"
     inkscape:showpageshadow="0"
     inkscape:pageopacity="0"
     inkscape:pagecheckerboard="1"
     inkscape:deskcolor="#d1d1d1"
     inkscape:zoom="0.874662"
     inkscape:cx="571.64939"
     inkscape:cy="530.49064"
     inkscape:window-width="1920"
     inkscape:window-height="1008"
     inkscape:window-x="0"
     inkscape:window-y="0"
     inkscape:window-maximized="1"
     inkscape:current-layer="g1" />
  <g
     inkscape:groupmode="layer"
     inkscape:label="Image"
     id="g1">
    <rect
       style="fill:#ffff00;fill-opacity:1;stroke:none;stroke-width:1.37201"
       id="rect71"
       width="1149.2729"
       height="1063.026"
       x="-3.1703339"
       y="-3.4879465" />
    <path
       style="fill:#000000"
       d="m 88.732644,922.47405 c 0.296991,-0.77395 43.196276,-75.30464 95.331746,-165.62377 52.13546,-90.31912 101.19426,-175.33738 109.01955,-188.92946 7.82529,-13.59208 14.38691,-24.90425 14.58138,-25.13816 0.19447,-0.2339 1.73052,0.3939 3.41344,1.39512 14.00805,8.33379 67.74886,39.16439 67.95135,38.98305 0.14179,-0.12698 -1.0579,-2.8827 -2.66598,-6.12381 -4.70319,-9.47933 -6.62154,-18.68695 -6.62154,-31.78178 0,-20.32724 4.50788,-31.73986 17.79142,-45.04266 l 7.81571,-7.82704 -8.76396,-5.1249 c -4.82018,-2.81869 -14.11049,-8.20798 -20.64515,-11.97618 -6.53465,-3.76821 -12.39993,-7.34974 -13.03394,-7.95895 -0.89429,-0.85931 15.57437,-30.0919 73.44888,-130.375 41.0309,-71.09703 90.08582,-156.10694 109.01093,-188.9109 18.92511,-32.80396 34.65126,-59.643567 34.947,-59.643567 0.29574,0 22.29867,37.746537 48.89539,83.881197 26.59673,46.13465 65.71562,113.96117 86.93086,150.72559 21.21525,36.76441 39.54216,68.60259 40.72646,70.75149 l 2.15329,3.9071 -2.725,2.91187 c -8.52915,9.11408 -15.98812,17.29249 -23.46087,25.72376 -4.6334,5.22772 -13.79614,15.06962 -20.36165,21.87089 -17.02035,17.63154 -36.17815,39.11596 -35.49189,39.80221 0.32137,0.32138 2.1679,0.58433 4.10338,0.58433 8.81396,0 36.14729,6.16898 50.43181,11.38219 13.13698,4.7944 26.24871,12.82171 36.26696,22.20348 5.00815,4.68997 5.94494,8.35436 2.59421,10.14761 -2.26213,1.21066 -2.52437,1.07251 -10.05306,-5.29579 -16.84926,-14.25233 -30.44971,-20.38446 -58.97802,-26.59185 -23.97395,-5.21641 -47.6993,-5.16668 -71.62255,0.15013 -24.64066,5.47625 -36.7888,13.33117 -47.10428,30.45736 -9.38958,15.58898 -9.69111,33.35888 -0.93453,55.07482 6.96047,17.26168 15.68539,26.6966 32.80022,35.4694 10.23361,5.2456 19.8052,8.57479 33.59197,11.68398 7.77573,1.75358 9.62451,2.51305 10.43208,4.28547 1.54814,3.39781 -1.55728,6.27734 -5.94372,5.51136 -14.90931,-2.60354 -34.01994,-9.16583 -45.19438,-15.51905 -19.42524,-11.04421 -28.50403,-22.35567 -36.00553,-44.8601 -8.12052,-24.36149 -5.89556,-43.05901 7.3248,-61.5544 2.82115,-3.94681 2.84809,-4.08575 1.06296,-5.48131 -8.11159,-6.34133 -32.55311,-18.43394 -47.84623,-23.67223 -24.31722,-8.32929 -44.27549,-11.51328 -67.38341,-10.74984 -12.37774,0.40894 -16.34287,0.91719 -23.27988,2.984 -14.11572,4.20564 -26.02259,11.09556 -37.03629,21.43105 -11.3158,10.619 -15.90953,21.7745 -15.90953,38.635 0,22.2836 5.14424,33.27577 24.55231,52.46316 27.4525,27.14036 51.65338,43.42041 75.87842,51.04378 4.62053,1.45403 8.93561,3.0658 9.58908,3.5817 2.04295,1.61287 1.40966,5.39752 -1.09407,6.53829 -5.33798,2.43215 -37.33708,-11.67106 -54.27227,-23.91983 -10.87384,-7.86476 -23.74616,-18.89494 -36.11882,-30.94992 l -8.55445,-8.33482 -6.17822,0.20809 c -13.09881,0.44116 -32.73565,4.71647 -44.13466,9.60893 -11.32778,4.86188 -23.06729,15.74335 -28.06263,26.01152 -9.97175,20.49741 -8.46199,53.03669 3.52665,76.00864 7.76029,14.86983 31.6131,33.71007 53.85708,42.53924 4.1377,1.64235 11.62285,4.09474 16.63367,5.44975 8.62677,2.33282 10.37246,2.46661 32.87296,2.51935 22.10271,0.0518 24.34387,-0.1013 32.08788,-2.19211 9.06451,-2.44733 11.15965,-2.02532 11.15965,2.24781 0,3.14584 -1.69083,4.10567 -11.54381,6.55305 -11.05739,2.74655 -21.36762,7.00555 -31.05777,12.82951 -10.50295,6.31245 -14.81812,10.10776 -19.64897,17.2818 -16.41559,24.37792 -15.29941,54.52594 2.61908,70.74124 11.74109,10.62507 24.53629,15.19462 40.62156,14.50716 11.35353,-0.48523 21.64884,-3.50582 41.55429,-12.19182 17.08597,-7.45567 30.30439,-12.40731 52.61708,-19.71041 23.1079,-7.56339 36.02473,-10.64933 56.48211,-13.49405 51.34784,-7.14024 64.63396,-9.82155 81.26733,-16.40082 15.6962,-6.20858 26.76126,-15.49571 42.10624,-35.34064 5.28143,-6.83022 12.44038,-15.84037 15.90877,-20.02255 15.30405,-18.45358 37.32365,-49.31618 53.32385,-74.73854 11.20622,-17.80531 26.72216,-41.12603 33.06824,-49.70212 3.83818,-5.18691 9.95661,-14.14639 13.5965,-19.90994 6.64153,-10.51646 24.08137,-35.40258 25.36603,-36.19654 0.37739,-0.23324 1.4441,1.68369 2.37047,4.25983 0.92637,2.57615 34.8058,62.06606 75.28763,132.1998 40.48182,70.13375 73.45134,127.66783 73.26564,127.85353 -0.3352,0.33527 -226.27448,-130.07406 -228.36667,-131.81042 -0.76576,-0.63553 -2.41347,1.0792 -5.50607,5.73004 -5.20561,7.82853 -33.05847,44.73356 -41.94648,55.57909 -3.40831,4.15896 -6.17648,7.79461 -6.15149,8.07921 0.025,0.2846 17.88242,10.7557 39.68317,23.2691 56.71772,32.55539 196.89387,113.47517 200.27141,115.6111 2.80238,1.7722 -4.72513,1.80353 -437.09181,1.81926 -388.09479,0.0141 -439.879662,-0.14982 -439.403316,-1.39116 z M 437.86498,861.64428 c -12.8632,-2.6835 -19.36266,-8.83126 -21.9912,-20.80121 -2.16843,-9.87473 8.75677,-30.43011 21.10865,-39.71519 17.29282,-12.99924 40.56248,-20.57622 60.12651,-19.57817 10.53331,0.53736 17.12481,2.73605 23.2504,7.7555 6.13974,5.03106 8.40246,10.4028 7.97206,18.92589 -0.46629,9.23377 -4.53734,17.5238 -13.02286,26.5189 -11.53082,12.22327 -23.0072,19.78458 -37.33793,24.60041 -7.79566,2.61972 -10.43606,3.03205 -21.25772,3.31969 -8.22701,0.21866 -14.52584,-0.12416 -18.84791,-1.02582 z M 582.65349,819.1488 c -14.44469,-1.78951 -29.3502,-8.39368 -42.29782,-18.74084 -10.80144,-8.63203 -27.13265,-30.51312 -33.88101,-45.3949 -9.59673,-21.16309 -9.18391,-43.26722 1.21212,-64.90232 3.22929,-6.72043 5.34856,-9.54767 12.21973,-16.30186 8.94017,-8.78797 20.633,-17.11085 30.47678,-21.69317 22.82946,-10.62721 60.24572,-9.90534 98.22891,1.89513 14.72482,4.57465 28.54658,12.27221 34.34284,19.12607 6.90611,8.1662 9.43561,19.56607 6.70582,30.2215 -2.94539,11.49697 -9.82295,20.14734 -23.42566,29.46401 -11.77028,8.06162 -18.88992,14.12531 -22.20076,18.90804 -2.64643,3.82295 -2.83459,4.7835 -3.98815,20.35873 -1.55122,20.94451 -3.33161,27.07304 -9.97739,34.34459 -10.42953,11.41157 -25.44175,15.43728 -47.41541,12.71502 z m -163.0099,-73.10983 c -24.39,-1.77782 -48.8295,-11.39756 -59.36556,-23.36716 -12.74157,-14.47519 -13.60705,-36.32836 -2.04186,-51.55675 3.99163,-5.25596 12.99676,-11.29501 19.938,-13.3709 20.6456,-6.17439 53.99451,-6.2195 71.65113,-0.0969 15.64923,5.42651 28.94318,15.68718 33.96936,26.21859 5.4414,11.40142 5.8052,26.30938 0.91262,37.39788 -8.11303,18.38736 -31.34352,27.23317 -65.06369,24.77526 z m 53.70297,-115.48016 c -11.06472,-2.95327 -23.87053,-10.74485 -37.61393,-22.88589 -18.51327,-16.35479 -24.75419,-39.22925 -15.63291,-57.29839 4.95107,-9.80803 11.75742,-15.25609 23.22426,-18.58959 8.66088,-2.51778 28.7421,-1.55439 39.52753,1.89633 22.42467,7.17461 38.38772,20.51418 44.68651,37.3424 2.83975,7.58684 3.5283,19.86436 1.5465,27.57549 -2.86719,11.15619 -11.47076,21.33093 -23.42439,27.70215 -10.82147,5.76779 -21.4222,7.16449 -32.31357,4.2575 z m 167.76238,-3.64231 c -33.47118,-9.1135 -50.7053,-24.38856 -51.64628,-45.77547 -0.43088,-9.793 1.87275,-15.72672 8.3752,-21.57298 11.54849,-10.38309 27.93098,-11.43451 60.71345,-3.89655 3.32003,0.76341 8.6408,2.70269 11.82392,4.30953 10.7241,5.41351 22.56775,18.86498 26.54648,30.15028 4.69186,13.30799 -3.1467,29.29443 -17.57025,35.83387 -5.31258,2.40865 -7.15498,2.71735 -17.80687,2.98357 -10.24305,0.25601 -13.06065,-0.0242 -20.43565,-2.03225 z"
       id="path71" />
  </g>
</svg>
