<?xml version="1.0" encoding="UTF-8" standalone="no"?>
<!-- Created with Inkscape (http://www.inkscape.org/) -->

<svg
   width="300mm"
   height="100mm"
   viewBox="0 0 300 100"
   version="1.1"
   id="svg5"
   xml:space="preserve"
   inkscape:version="1.2.2 (b0a8486541, 2022-12-01)"
   sodipodi:docname="ATTENTION_ESD_NO_PAWS.svg"
   xmlns:inkscape="http://www.inkscape.org/namespaces/inkscape"
   xmlns:sodipodi="http://sodipodi.sourceforge.net/DTD/sodipodi-0.dtd"
   xmlns="http://www.w3.org/2000/svg"
   xmlns:svg="http://www.w3.org/2000/svg"><sodipodi:namedview
     id="namedview7"
     pagecolor="#ffffff"
     bordercolor="#000000"
     borderopacity="0.25"
     inkscape:showpageshadow="2"
     inkscape:pageopacity="0.0"
     inkscape:pagecheckerboard="0"
     inkscape:deskcolor="#d1d1d1"
     inkscape:document-units="mm"
     showgrid="false"
     inkscape:zoom="0.70710678"
     inkscape:cx="683.06515"
     inkscape:cy="155.56349"
     inkscape:window-width="1958"
     inkscape:window-height="817"
     inkscape:window-x="0"
     inkscape:window-y="0"
     inkscape:window-maximized="0"
     inkscape:current-layer="layer1" /><defs
     id="defs2" /><g
     inkscape:label="Layer 1"
     inkscape:groupmode="layer"
     id="layer1"><rect
       style="fill:#ffcc00;stroke-width:0.289837"
       id="rect1846"
       width="299.99643"
       height="99.998413"
       x="0.0020406919"
       y="0.0013107669" /><text
       xml:space="preserve"
       style="font-style:normal;font-variant:normal;font-weight:bold;font-stretch:normal;font-size:16.9333px;font-family:Arial;-inkscape-font-specification:'Arial Bold';text-align:start;direction:ltr;text-anchor:start;fill:#000000;stroke-width:0.29253"
       x="13.064549"
       y="56.330925"
       id="text2265"
       transform="scale(0.9044627,1.1056288)"><tspan
         sodipodi:role="line"
         id="tspan2263"
         style="font-style:normal;font-variant:normal;font-weight:bold;font-stretch:normal;font-size:16.9333px;font-family:Arial;-inkscape-font-specification:'Arial Bold';text-align:start;text-anchor:start;stroke-width:0.29253"
         x="13.064549"
         y="56.330925">STATIC-SAFEGUARDED</tspan><tspan
         sodipodi:role="line"
         style="font-style:normal;font-variant:normal;font-weight:bold;font-stretch:normal;font-size:16.9333px;font-family:Arial;-inkscape-font-specification:'Arial Bold';text-align:start;text-anchor:start;stroke-width:0.29253"
         x="13.064549"
         y="77.497551"
         id="tspan2267">WORK AREA</tspan></text></g><path
     style="fill:#000000;stroke-width:0.10983"
     d="m 188.55304,96.604865 c 0.0328,-0.08466 4.76385,-8.236598 10.51355,-18.115427 5.74969,-9.878836 11.16009,-19.177872 12.02309,-20.664535 0.863,-1.48666 1.58665,-2.72395 1.6081,-2.749536 0.0214,-0.02559 0.19084,0.04309 0.37644,0.152598 1.54486,0.911522 7.47161,4.283678 7.49394,4.263849 0.0156,-0.01389 -0.11667,-0.315304 -0.29402,-0.669806 -0.51868,-1.036823 -0.73024,-2.043923 -0.73024,-3.476194 0,-2.223332 0.49714,-3.471611 1.9621,-4.926632 l 0.86195,-0.856094 -0.96652,-0.56055 c -0.5316,-0.3083 -1.55617,-0.897762 -2.27683,-1.309914 -0.72067,-0.412159 -1.36751,-0.803894 -1.43744,-0.870529 -0.0986,-0.09399 1.7176,-3.291359 8.10024,-14.260021 4.52504,-7.776378 9.93499,-17.074504 12.02214,-20.662501 2.08713,-3.5879971 3.82147,-6.5236317 3.85409,-6.5236317 0.0326,0 2.45918,4.1286009 5.39237,9.1746697 2.93318,5.046067 7.24736,12.464726 9.58707,16.485909 2.33971,4.021179 4.36086,7.503543 4.49147,7.738583 l 0.23748,0.427346 -0.30053,0.318493 c -0.94063,0.99687 -1.76323,1.891399 -2.58735,2.813584 -0.511,0.571793 -1.52149,1.648269 -2.24557,2.392174 -1.87706,1.928484 -3.98986,4.278384 -3.91417,4.353445 0.0355,0.03514 0.23908,0.06391 0.45253,0.06391 0.97204,0 3.98646,0.674746 5.56181,1.244953 1.4488,0.524397 2.89481,1.402398 3.99966,2.428548 0.55233,0.512976 0.65564,0.913773 0.2861,1.109916 -0.24947,0.132417 -0.2784,0.117308 -1.10869,-0.579239 -1.8582,-1.558878 -3.35811,-2.229591 -6.50431,-2.908535 -2.64395,-0.570553 -5.26048,-0.565117 -7.89882,0.01641 -2.71747,0.598978 -4.05722,1.458126 -5.19484,3.331334 -1.03553,1.705078 -1.06878,3.648696 -0.10318,6.023917 0.76764,1.888028 1.72985,2.919995 3.61734,3.879535 1.12861,0.573747 2.1842,0.937886 3.70466,1.277959 0.85754,0.191803 1.06142,0.27487 1.15049,0.468731 0.17073,0.371645 -0.17173,0.686597 -0.65549,0.602819 -1.64427,-0.284772 -3.75186,-1.002533 -4.98422,-1.697427 -2.14229,-1.207986 -3.14354,-2.445195 -3.97083,-4.906664 -0.89557,-2.664584 -0.65018,-4.70966 0.8078,-6.732636 0.31113,-0.431688 0.3141,-0.446885 0.11724,-0.599526 -0.89458,-0.693594 -3.59009,-2.016248 -5.27667,-2.589198 -2.68179,-0.911031 -4.88287,-1.259287 -7.4313,-1.175786 -1.36507,0.04472 -1.80237,0.100326 -2.56739,0.326383 -1.55675,0.459998 -2.86988,1.213598 -4.08452,2.344065 -1.24793,1.161472 -1.75456,2.381626 -1.75456,4.225779 0,2.437313 0.56733,3.639601 2.70772,5.738259 3.02758,2.968532 5.69654,4.749194 8.36817,5.583016 0.50957,0.159038 0.98545,0.335329 1.05753,0.391757 0.22529,0.176407 0.15546,0.590363 -0.12067,0.715137 -0.58869,0.266018 -4.11768,-1.276547 -5.98535,-2.61628 -1.19921,-0.860222 -2.61882,-2.066673 -3.98332,-3.385207 l -0.94343,-0.911639 -0.68136,0.02278 c -1.44458,0.04825 -3.6102,0.515874 -4.86733,1.050995 -1.24928,0.531775 -2.54395,1.72196 -3.09486,2.845063 -1.09972,2.241944 -0.93322,5.800991 0.38894,8.313595 0.85584,1.626417 3.48641,3.687103 5.93956,4.652811 0.45633,0.179636 1.28182,0.447869 1.83443,0.596075 0.95139,0.25516 1.14391,0.269793 3.62536,0.27556 2.43757,0.0057 2.68473,-0.01103 3.53877,-0.239769 0.99967,-0.267679 1.23073,-0.221519 1.23073,0.245863 0,0.34408 -0.18647,0.449065 -1.27309,0.716753 -1.21946,0.300409 -2.35651,0.766246 -3.42518,1.403252 -1.15829,0.690437 -1.63419,1.105558 -2.16696,1.890231 -1.81037,2.666383 -1.68728,5.963881 0.28884,7.737462 1.29486,1.162139 2.70596,1.66194 4.47991,1.586748 1.25211,-0.05307 2.38751,-0.383454 4.58276,-1.333503 1.88432,-0.815479 3.34209,-1.357074 5.80282,-2.155865 2.54843,-0.827259 3.97295,-1.164791 6.22907,-1.475939 5.66283,-0.780979 7.12808,-1.074252 8.96246,-1.793871 1.73105,-0.679077 2.95135,-1.694875 4.64364,-3.865449 0.58247,-0.747073 1.37197,-1.732574 1.75449,-2.19001 1.68779,-2.018398 4.11618,-5.394054 5.88075,-8.174674 1.23588,-1.947492 2.94703,-4.498239 3.64689,-5.436266 0.42329,-0.567328 1.09807,-1.547291 1.49949,-2.17769 0.73246,-1.150258 2.65578,-3.872225 2.79746,-3.959067 0.0417,-0.02551 0.15926,0.184153 0.26143,0.465927 0.10209,0.281769 3.83851,6.788596 8.303,14.459611 4.46449,7.671017 8.1005,13.963922 8.08002,13.984231 -0.037,0.03667 -24.95443,-14.227102 -25.18515,-14.417023 -0.0846,-0.06951 -0.26617,0.118039 -0.60724,0.626737 -0.5741,0.856261 -3.64582,4.892819 -4.62603,6.079071 -0.37588,0.454894 -0.68115,0.852549 -0.6784,0.883679 0.003,0.03112 1.97216,1.176425 4.37642,2.545106 6.25504,3.560807 21.71422,12.411569 22.0867,12.64519 0.30905,0.193836 -0.5211,0.197263 -48.20417,0.198982 -42.80059,0.0016 -48.51163,-0.01637 -48.45909,-0.152156 z m 38.50366,-6.653379 c -1.41861,-0.293514 -2.13539,-0.965936 -2.42528,-2.275172 -0.23914,-1.080069 0.96574,-3.328354 2.32794,-4.343928 1.90712,-1.421817 4.47338,-2.250562 6.63098,-2.141398 1.16167,0.05878 1.8886,0.299259 2.56414,0.84827 0.67712,0.550285 0.92666,1.137827 0.8792,2.070059 -0.0514,1.009961 -0.5004,1.916698 -1.43621,2.900558 -1.27166,1.336943 -2.53732,2.163976 -4.11777,2.690714 -0.85975,0.28654 -1.15093,0.331636 -2.34439,0.3631 -0.9073,0.02394 -1.60196,-0.01355 -2.07861,-0.112203 z m 15.96783,-4.648025 c -1.59301,-0.195733 -3.23685,-0.918075 -4.66477,-2.049819 -1.19122,-0.944145 -2.99228,-3.337431 -3.73653,-4.965155 -1.05836,-2.314755 -1.01284,-4.732436 0.13368,-7.098819 0.35614,-0.735062 0.58986,-1.044296 1.34764,-1.783047 0.98596,-0.961201 2.27548,-1.871535 3.3611,-2.372731 2.51772,-1.162375 6.64413,-1.083419 10.83306,0.207283 1.62391,0.500358 3.14823,1.342296 3.78746,2.091952 0.76163,0.893193 1.0406,2.140074 0.73954,3.305533 -0.32482,1.257505 -1.08331,2.203656 -2.58346,3.222685 -1.29807,0.881756 -2.08326,1.544984 -2.44839,2.068105 -0.29186,0.418142 -0.3126,0.523201 -0.43983,2.226774 -0.17108,2.290849 -0.36742,2.96117 -1.10035,3.75651 -1.1502,1.248162 -2.80581,1.688479 -5.22915,1.390729 z M 225.04717,77.30693 c -2.68983,-0.194456 -5.3851,-1.246632 -6.54707,-2.555832 -1.40519,-1.583251 -1.50063,-3.973482 -0.22518,-5.639118 0.44022,-0.574881 1.43334,-1.235415 2.19884,-1.46247 2.27687,-0.675336 5.95473,-0.680272 7.90196,-0.01061 1.72587,0.593538 3.19196,1.715817 3.74628,2.867709 0.60009,1.247055 0.64022,2.877644 0.10068,4.09047 -0.89474,2.011154 -3.45669,2.97868 -7.17548,2.709842 z m 5.92256,-12.630872 c -1.22025,-0.32302 -2.63252,-1.175239 -4.1482,-2.503185 -2.04171,-1.788841 -2.72999,-4.290781 -1.72406,-6.267127 0.54601,-1.072772 1.29665,-1.668665 2.56127,-2.033273 0.95516,-0.275387 3.16978,-0.170013 4.35924,0.207416 2.47308,0.784735 4.23355,2.243777 4.92821,4.084395 0.31317,0.82983 0.38911,2.172703 0.17054,3.016126 -0.3162,1.220229 -1.26503,2.333113 -2.58333,3.029978 -1.19342,0.630863 -2.36252,0.783628 -3.56367,0.46567 z m 18.50149,-0.398383 c -3.69133,-0.996806 -5.59198,-2.667548 -5.69575,-5.006782 -0.0475,-1.071127 0.20654,-1.720143 0.92365,-2.359588 1.27361,-1.135669 3.08034,-1.250672 6.69571,-0.426191 0.36614,0.0835 0.95294,0.295608 1.30399,0.471364 1.18271,0.59211 2.48885,2.063393 2.92766,3.297745 0.51743,1.455587 -0.34704,3.204137 -1.93772,3.919397 -0.5859,0.263453 -0.78909,0.297218 -1.96382,0.326338 -1.12963,0.02799 -1.44038,-0.0025 -2.25372,-0.222283 z"
     id="path71" /><text
     xml:space="preserve"
     style="font-size:35.2778px;fill:#ffff00;stroke-width:0.200364"
     x="113.84337"
     y="35.963257"
     id="text2097"
     transform="scale(0.95016878,1.0524446)"><tspan
       sodipodi:role="line"
       style="font-style:normal;font-variant:normal;font-weight:bold;font-stretch:normal;font-size:35.2778px;font-family:Arial;-inkscape-font-specification:'Arial Bold';text-align:center;direction:ltr;text-anchor:middle;fill:#000000;stroke-width:0.200364"
       x="113.84337"
       y="35.963257"
       id="tspan2255">ATTENTION</tspan></text></svg>
