<?xml version="1.0" encoding="UTF-8" standalone="no"?>
<!-- Created with Inkscape (http://www.inkscape.org/) -->

<svg
   version="1.1"
   id="svg1"
   width="1140.5941"
   height="1053.1486"
   viewBox="0 0 1140.5941 1053.1486"
   sodipodi:docname="esd_paw_big_bean.svg"
   inkscape:version="1.3 (0e150ed6c4, 2023-07-21)"
   xmlns:inkscape="http://www.inkscape.org/namespaces/inkscape"
   xmlns:sodipodi="http://sodipodi.sourceforge.net/DTD/sodipodi-0.dtd"
   xmlns="http://www.w3.org/2000/svg"
   xmlns:svg="http://www.w3.org/2000/svg">
  <defs
     id="defs1" />
  <sodipodi:namedview
     id="namedview1"
     pagecolor="#505050"
     bordercolor="#ffffff"
     borderopacity="1"
     inkscape:showpageshadow="0"
     inkscape:pageopacity="0"
     inkscape:pagecheckerboard="1"
     inkscape:deskcolor="#d1d1d1"
     inkscape:zoom="0.69902686"
     inkscape:cx="553.62679"
     inkscape:cy="533.59895"
     inkscape:window-width="1920"
     inkscape:window-height="1008"
     inkscape:window-x="0"
     inkscape:window-y="0"
     inkscape:window-maximized="1"
     inkscape:current-layer="g1" />
  <g
     inkscape:groupmode="layer"
     inkscape:label="Image"
     id="g1">
    <rect
       style="fill:#ffff00;fill-opacity:1;stroke-width:1.37953"
       id="rect1"
       width="1153.6594"
       height="1068.7223"
       x="-3.6537611"
       y="-6.1115761" />
    <path
       style="fill:#000000"
       d="m 88.732644,922.47405 c 0.296991,-0.77395 43.196276,-75.30464 95.331746,-165.62377 52.13546,-90.31912 101.19426,-175.33738 109.01955,-188.92946 7.82529,-13.59208 14.39321,-24.91055 14.59536,-25.15214 0.20216,-0.2416 1.17636,0.0658 2.16489,0.68318 0.98852,0.61734 15.61858,9.08621 32.51123,18.8197 33.60398,19.3625 37.84262,21.94476 37.84262,23.05445 0,0.4095 -4.38416,1.24053 -9.74258,1.84673 -35.27802,3.991 -58.89399,17.86106 -69.23204,40.66113 -4.93785,10.8902 -5.99455,17.19622 -6.0471,36.08695 -0.0417,14.99546 0.22256,18.09749 2.13934,25.11172 5.43586,19.89186 8.66118,25.66129 21.57137,38.5868 23.1569,23.18437 52.73595,36.71761 85.31101,39.03217 5.09703,0.36217 9.26733,0.95894 9.26733,1.32618 0,0.36723 -1.08458,1.16187 -2.41017,1.76584 -4.20875,1.91764 -12.34676,8.38313 -16.52187,13.12631 -7.67397,8.71809 -13.74446,21.82504 -16.24424,35.07334 -2.34606,12.43365 0.54567,32.06908 6.12489,41.5893 6.3873,10.8991 20.11749,21.3106 34.49007,26.15356 6.48724,2.18592 8.90687,2.48925 19.74944,2.47582 l 12.35643,-0.0153 13.78218,-4.81287 c 7.5802,-2.64707 21.05347,-7.90922 29.9406,-11.69366 19.15357,-8.15625 53.21357,-19.72167 69.86139,-23.72215 6.53465,-1.57029 26.63762,-5.01821 44.67327,-7.66205 38.4416,-5.63515 43.03321,-6.5024 55.62431,-10.50612 24.4807,-7.78438 41.43687,-20.14937 56.61645,-41.28656 2.07809,-2.89368 3.71144,-4.27999 4.72912,-4.01386 0.85505,0.2236 19.69058,10.87761 41.85674,23.67558 22.16615,12.79797 75.37537,43.50376 118.2427,68.23509 42.86733,24.73133 78.78428,45.54098 79.81545,46.24367 1.57119,1.07067 -69.37779,1.27761 -438.0423,1.27761 -388.06728,0 -439.853527,-0.16586 -439.377186,-1.40718 z M 437.86498,861.64428 c -12.8632,-2.6835 -19.36266,-8.83126 -21.9912,-20.80121 -2.16843,-9.87473 8.75677,-30.43011 21.10865,-39.71519 17.29282,-12.99924 40.56248,-20.57622 60.12651,-19.57817 10.53331,0.53736 17.12481,2.73605 23.2504,7.7555 6.13974,5.03106 8.40246,10.4028 7.97206,18.92589 -0.46629,9.23377 -4.53734,17.5238 -13.02286,26.5189 -11.53082,12.22327 -23.0072,19.78458 -37.33793,24.60041 -7.79566,2.61972 -10.43606,3.03205 -21.25772,3.31969 -8.22701,0.21866 -14.52584,-0.12416 -18.84791,-1.02582 z m 455.52878,-81.35619 c -62.43189,-36.10056 -113.85148,-65.97036 -114.26575,-66.37732 -0.41426,-0.40697 1.08277,-3.5794 3.32674,-7.04986 2.24397,-3.47046 8.99875,-14.05064 15.01064,-23.51151 6.01188,-9.46088 14.87356,-22.83534 19.69262,-29.72103 4.81906,-6.88569 15.37175,-22.35706 23.45041,-34.38082 8.07866,-12.02376 15.92371,-23.31708 17.43345,-25.09627 l 2.74496,-3.23487 73.39594,127.16832 c 40.36777,69.94258 73.24463,127.31962 73.05973,127.50453 -0.1849,0.18492 -51.41684,-29.20061 -113.84874,-65.30117 z M 582.65349,819.1488 c -14.44469,-1.78951 -29.3502,-8.39368 -42.29782,-18.74084 -10.80144,-8.63203 -27.13265,-30.51312 -33.88101,-45.3949 -9.59673,-21.16309 -9.18391,-43.26722 1.21212,-64.90232 3.22929,-6.72043 5.34856,-9.54767 12.21973,-16.30186 8.94017,-8.78797 20.633,-17.11085 30.47678,-21.69317 22.82946,-10.62721 60.24572,-9.90534 98.22891,1.89513 14.72482,4.57465 28.54658,12.27221 34.34284,19.12607 6.90611,8.1662 9.43561,19.56607 6.70582,30.2215 -2.94539,11.49697 -9.82295,20.14734 -23.42566,29.46401 -11.77028,8.06162 -18.88992,14.12531 -22.20076,18.90804 -2.64643,3.82295 -2.83459,4.7835 -3.98815,20.35873 -1.55122,20.94451 -3.33161,27.07304 -9.97739,34.34459 -10.42953,11.41157 -25.44175,15.43728 -47.41541,12.71502 z m -163.0099,-73.10983 c -24.39,-1.77782 -48.8295,-11.39756 -59.36556,-23.36716 -12.74157,-14.47519 -13.60705,-36.32836 -2.04186,-51.55675 3.99163,-5.25596 12.99676,-11.29501 19.938,-13.3709 20.6456,-6.17439 53.99451,-6.2195 71.65113,-0.0969 15.64923,5.42651 28.94318,15.68718 33.96936,26.21859 5.4414,11.40142 5.8052,26.30938 0.91262,37.39788 -8.11303,18.38736 -31.34352,27.23317 -65.06369,24.77526 z m 53.70297,-115.48016 c -11.06472,-2.95327 -23.87053,-10.74485 -37.61393,-22.88589 -18.51327,-16.35479 -24.75419,-39.22925 -15.63291,-57.29839 4.95107,-9.80803 11.75742,-15.25609 23.22426,-18.58959 8.66088,-2.51778 28.7421,-1.55439 39.52753,1.89633 22.42467,7.17461 38.38772,20.51418 44.68651,37.3424 2.83975,7.58684 3.5283,19.86436 1.5465,27.57549 -2.86719,11.15619 -11.47076,21.33093 -23.42439,27.70215 -10.82147,5.76779 -21.4222,7.16449 -32.31357,4.2575 z m 167.76238,-3.64231 c -33.47118,-9.1135 -50.7053,-24.38856 -51.64628,-45.77547 -0.43088,-9.793 1.87275,-15.72672 8.3752,-21.57298 11.54849,-10.38309 27.93098,-11.43451 60.71345,-3.89655 3.32003,0.76341 8.6408,2.70269 11.82392,4.30953 10.7241,5.41351 22.56775,18.86498 26.54648,30.15028 4.69186,13.30799 -3.1467,29.29443 -17.57025,35.83387 -5.31258,2.40865 -7.15498,2.71735 -17.80687,2.98357 -10.24305,0.25601 -13.06065,-0.0242 -20.43565,-2.03225 z M 571.24755,505.66326 c -7.42369,-5.23392 -34.07137,-18.33688 -44.19802,-21.73265 -11.71761,-3.92927 -25.63597,-7.5935 -37.54456,-9.8842 -13.85491,-2.6651 -41.6033,-2.87286 -53.22772,-0.39854 -14.06536,2.99388 -25.61077,7.92099 -36.3585,15.51632 l -4.51691,3.19207 -20.3566,-11.8049 c -11.19612,-6.49269 -21.266,-11.94611 -22.3775,-12.11871 -1.78495,-0.27718 6.81814,-15.62932 73.68041,-131.48214 41.63573,-72.14258 90.94083,-157.58021 109.56688,-189.86139 18.62605,-32.28119 34.1094,-58.693077 34.40745,-58.693077 0.38666,0 144.08651,248.718647 171.61209,297.029717 l 2.1662,3.80198 -12.85772,14.25743 c -7.07175,7.84158 -23.40135,25.56158 -36.288,39.37778 -27.19522,29.1569 -34.85959,37.42723 -38.49954,41.54342 -2.51036,2.8388 -3.0738,3.01141 -11.84265,3.6279 -27.85887,1.95863 -50.17162,8.57908 -63.04664,18.70667 -1.90493,1.49844 -3.82969,2.69824 -4.27723,2.66623 -0.44754,-0.032 -3.16619,-1.71677 -6.04144,-3.74391 z"
       id="path1" />
  </g>
</svg>
